<?xml version="1.0" standalone="no"?>
<!DOCTYPE svg PUBLIC "-//W3C//DTD SVG 1.1//EN" "http://www.w3.org/Graphics/SVG/1.1/DTD/svg11.dtd" >
<svg xmlns="http://www.w3.org/2000/svg" xmlns:xlink="http://www.w3.org/1999/xlink" version="1.1">
<metadata>
Created by Christoph Koeberlin (http://christoph.koe.berlin)
Copyright (c) 2016 Swiss Typefaces Sa`rl. All rights reserved.
</metadata>
<defs>
<font id="Font" horiz-adv-x="244" >
  <font-face 
    font-family="Font"
    font-weight="400"
    font-stretch="normal"
    units-per-em="1000"
    panose-1="2 11 5 4 4 0 0 0 0 0"
    ascent="800"
    descent="-200"
    x-height="500"
    cap-height="750"
    bbox="-64 -241 1134 1008"
    underline-thickness="50"
    underline-position="-100"
    unicode-range="U+000D-FB02"
  />
<missing-glyph horiz-adv-x="500" 
d="M0 725h500v-725h-500v725zM250 378l216 328h-433zM19 696v-667l220 333zM481 29v667l-221 -334zM33 19h433l-216 327z" />
    <glyph glyph-name=".notdef" horiz-adv-x="500" 
d="M0 725h500v-725h-500v725zM250 378l216 328h-433zM19 696v-667l220 333zM481 29v667l-221 -334zM33 19h433l-216 327z" />
    <glyph glyph-name="glyph1" horiz-adv-x="0" 
 />
    <glyph glyph-name="uni000D" unicode="&#xd;" horiz-adv-x="240" 
 />
    <glyph glyph-name="space" unicode=" " horiz-adv-x="240" 
 />
    <glyph glyph-name="exclam" unicode="!" horiz-adv-x="348" 
d="M145 222l-18 284v244h94v-244l-18 -284h-58zM100 61q0 31 22 52.5t52 21.5q31 0 52.5 -21.5t21.5 -52.5t-21.5 -52.5t-52.5 -21.5q-30 0 -52 21.5t-22 52.5z" />
    <glyph glyph-name="quotedbl" unicode="&#x22;" horiz-adv-x="348" 
d="M152 750l-15 -227h-62l-15 227h92zM288 750l-15 -227h-62l-15 227h92z" />
    <glyph glyph-name="numbersign" unicode="#" horiz-adv-x="762" 
d="M683 472h-137l-24 -179h137l-9 -66h-137l-30 -227h-68l30 227h-168l-30 -227h-68l30 227h-139l9 66h139l24 179h-139l9 66h139l28 212h68l-28 -212h168l28 212h68l-28 -212h137zM454 293l24 179h-168l-24 -179h168z" />
    <glyph glyph-name="dollar" unicode="$" horiz-adv-x="630" 
d="M565 202q0 -48 -17.5 -87t-48.5 -66.5t-73 -43.5t-91 -18v-95h-47v97q-45 5 -84 23t-68.5 47t-48 68t-22.5 86h92q8 -68 44 -105t87 -46v297l-27 10q-33 12 -64 31t-55 44.5t-39 58.5t-15 74q0 40 15 73t41.5 57.5t63 39.5t80.5 19v105h47v-105q44 -3 80 -18.5
t63.5 -41.5t46 -61.5t26.5 -77.5h-92q-14 63 -47 92.5t-77 34.5v-256l30 -12q36 -14 71.5 -33t64 -45.5t46.5 -62t18 -83.5zM179 588q0 -48 27.5 -78.5t81.5 -53.5v238q-50 -6 -79.5 -32t-29.5 -74zM335 59q60 3 99 34.5t39 98.5q0 29 -10.5 51t-29 39.5t-43.5 31.5t-55 26
v-281z" />
    <glyph glyph-name="percent" unicode="%" horiz-adv-x="925" 
d="M60 556q0 46 10.5 85t30.5 67t50.5 43.5t71.5 15.5t72 -15.5t51.5 -43.5t31 -67t10.5 -85q0 -47 -10.5 -85.5t-31 -66.5t-51.5 -43.5t-72 -15.5t-71.5 15.5t-50.5 43.5t-30.5 66.5t-10.5 85.5zM168 0l500 750h85l-500 -750h-85zM312 556q0 75 -22.5 116t-66.5 41
q-42 0 -64.5 -41t-22.5 -116t22.5 -115.5t64.5 -40.5q44 0 66.5 40.5t22.5 115.5zM537 198q0 46 10.5 85t30.5 67t50.5 43.5t71.5 15.5t72 -15.5t51.5 -43.5t31 -67t10.5 -85q0 -47 -10.5 -85.5t-31 -66.5t-51.5 -43.5t-72 -15.5t-71.5 15.5t-50.5 43.5t-30.5 66.5
t-10.5 85.5zM789 198q0 75 -22.5 116t-66.5 41q-42 0 -64.5 -41t-22.5 -116t22.5 -115.5t64.5 -40.5q44 0 66.5 40.5t22.5 115.5z" />
    <glyph glyph-name="ampersand" unicode="&#x26;" horiz-adv-x="722" 
d="M712 0h-117l-78 90q-38 -53 -91 -78t-112 -25q-56 0 -102 16.5t-78.5 47.5t-50.5 74t-18 96q0 38 12.5 71.5t33 61.5t48 49.5t57.5 35.5q-42 52 -57 90.5t-15 73.5q0 34 14.5 63.5t41.5 52t64.5 35.5t83.5 13q84 0 136.5 -50t58.5 -135h-89q-8 60 -37.5 86.5t-74.5 26.5
q-52 0 -79.5 -25.5t-27.5 -68.5q0 -35 23.5 -70t60.5 -78zM316 61q100 0 152 87l-202 233q-51 -23 -78 -66.5t-27 -91.5q0 -38 12.5 -68t33.5 -51t49 -32t60 -11z" />
    <glyph glyph-name="quotesingle" unicode="'" horiz-adv-x="212" 
d="M152 750l-15 -227h-62l-15 227h92z" />
    <glyph glyph-name="parenleft" unicode="(" horiz-adv-x="324" 
d="M294 750q-25 -42 -50.5 -93.5t-46 -111.5t-33.5 -128t-13 -143q0 -74 13 -141.5t33.5 -127.5t46 -111.5t50.5 -93.5h-69q-27 34 -56 82.5t-53 109t-40 131.5t-16 151q0 81 16 152.5t40 132t53 109t56 82.5h69z" />
    <glyph glyph-name="parenright" unicode=")" horiz-adv-x="324" 
d="M99 750q27 -34 56 -82.5t53 -109t40 -132t16 -152.5q0 -80 -16 -151t-40 -131.5t-53 -109t-56 -82.5h-69q25 42 50.5 93.5t46 111.5t33.5 127.5t13 141.5q0 75 -13 143t-33.5 128t-46 111.5t-50.5 93.5h69z" />
    <glyph glyph-name="asterisk" unicode="*" horiz-adv-x="430" 
d="M244 631l113 43l23 -56l-115 -40l69 -97l-46 -35l-74 101l-68 -101l-53 34l70 98l-113 40l20 56l113 -43v119h61v-119z" />
    <glyph glyph-name="plus" unicode="+" horiz-adv-x="723" 
d="M323 62v226h-233v79h233v223h77v-223h233v-79h-233v-226h-77z" />
    <glyph glyph-name="comma" unicode="," horiz-adv-x="262" 
d="M121 0h-51v123h122v-124l-80 -184h-57z" />
    <glyph glyph-name="hyphen" unicode="-" horiz-adv-x="383" 
d="M70 308h243v-89h-243v89z" />
    <glyph glyph-name="period" unicode="." horiz-adv-x="288" 
d="M70 61q0 31 22 52.5t52 21.5q31 0 52.5 -21.5t21.5 -52.5t-21.5 -52.5t-52.5 -21.5q-30 0 -52 21.5t-22 52.5z" />
    <glyph glyph-name="slash" unicode="/" horiz-adv-x="374" 
d="M1 0l287 750h85l-288 -750h-84z" />
    <glyph glyph-name="zero" unicode="0" horiz-adv-x="721" 
d="M70 378q0 81 17.5 152t53.5 123.5t90.5 83t128.5 30.5t128.5 -30.5t90.5 -83t54 -123.5t18 -152q0 -82 -18 -153.5t-54 -124t-90.5 -83t-128.5 -30.5t-128.5 30.5t-90.5 83t-53.5 124t-17.5 153.5zM554 378q0 70 -13.5 128.5t-39 100.5t-61 65t-80.5 23q-44 0 -80 -23
t-61.5 -65t-39 -100.5t-13.5 -128.5q0 -71 13.5 -130t39 -101t61.5 -65t80 -23q45 0 80.5 23t61 65t39 101t13.5 130z" />
    <glyph glyph-name="one" unicode="1" horiz-adv-x="403" 
d="M287 750v-750h-90v667h-182l89 83h183z" />
    <glyph glyph-name="two" unicode="2" horiz-adv-x="592" 
d="M535 83v-83h-482v35q0 54 18.5 99.5t49 83t69.5 68.5t80 56q85 52 128 104t43 120q0 36 -11 61t-30 40t-44.5 21.5t-53.5 6.5q-64 0 -104.5 -38t-45.5 -110h-92q3 53 23.5 94t53.5 69t76 42.5t91 14.5q44 0 85.5 -11.5t74 -35.5t52.5 -60.5t20 -86.5t-17 -91.5t-46 -76.5
t-67 -64t-81 -54q-31 -18 -60.5 -40t-53.5 -47.5t-40.5 -54.5t-20.5 -62h385z" />
    <glyph glyph-name="three" unicode="3" horiz-adv-x="631" 
d="M244 443h62q32 0 57.5 10t43.5 27t27.5 40t9.5 50q0 60 -37 92.5t-101 32.5t-103 -32.5t-42 -92.5h-92q2 44 20.5 80t50 62t74 40.5t92.5 14.5q49 0 91 -14t73 -39.5t48.5 -61.5t17.5 -81q0 -59 -30.5 -102t-78.5 -63q64 -25 102 -74.5t38 -121.5q0 -49 -19.5 -90
t-54.5 -70.5t-83 -46t-105 -16.5t-104.5 16t-82.5 45t-55.5 70t-22.5 92h92q2 -36 16.5 -64.5t37.5 -47.5t53.5 -29t65.5 -10q34 0 64.5 10t53 29.5t35.5 48.5t13 67q0 36 -13.5 64t-36 47.5t-52.5 29.5t-63 10h-62v78z" />
    <glyph glyph-name="four" unicode="4" horiz-adv-x="687" 
d="M528 437v-179h149v-78h-149v-180h-90v180h-438l528 594v-114l-357 -402h267v179h90z" />
    <glyph glyph-name="five" unicode="5" horiz-adv-x="645" 
d="M484 238q0 45 -14 78.5t-37 56t-51.5 33.5t-58.5 11q-57 0 -96 -24.5t-56 -62.5l-78 5l43 415h399v-83h-323l-26 -250q27 36 70 54t88 18q48 0 91 -16.5t75.5 -48.5t52 -78.5t19.5 -106.5q0 -62 -21.5 -109.5t-57 -79t-82 -47.5t-97.5 -16q-63 0 -110 19t-78.5 50
t-48 71.5t-17.5 82.5h90q5 -69 46.5 -110t117.5 -41q33 0 62 12t50.5 35.5t34.5 56.5t13 75z" />
    <glyph glyph-name="six" unicode="6" horiz-adv-x="638" 
d="M363 478q46 0 86.5 -18t71.5 -49.5t49 -75t18 -94.5q0 -49 -19 -95t-53.5 -81t-83 -56.5t-108.5 -21.5t-108.5 21t-83 57t-53.5 83.5t-19 100.5q0 48 12.5 96t46 105.5t93 130t152.5 169.5h114q-75 -80 -128 -139.5t-89.5 -106.5t-58 -83.5t-31.5 -69.5q29 55 77.5 91
t114.5 36zM324 57q37 0 68 14t53 38.5t34.5 58.5t12.5 73q0 38 -13 69t-36 53t-53.5 34t-65.5 12q-25 0 -52 -8t-50.5 -22.5t-40.5 -35.5t-23 -48q-1 -11 -1.5 -22.5t-0.5 -23.5q0 -43 12.5 -78.5t34.5 -60.5t53 -39t68 -14z" />
    <glyph glyph-name="seven" unicode="7" horiz-adv-x="591" 
d="M35 750h551l-397 -750h-93l355 667h-416v83z" />
    <glyph glyph-name="eight" unicode="8" horiz-adv-x="663" 
d="M562 572q0 -59 -31.5 -102.5t-77.5 -63.5q60 -28 100 -76t40 -120q0 -49 -19.5 -90t-54 -70.5t-82.5 -46t-105 -16.5t-105 16.5t-83 46t-54.5 70.5t-19.5 90q0 36 10.5 65.5t29.5 54t44 43.5t55 33q-22 10 -42 26t-35 37.5t-23.5 47.5t-8.5 55q0 44 17.5 80t48.5 61.5
t73.5 39.5t92.5 14q49 0 91 -14t73 -39.5t48.5 -61.5t17.5 -80zM193 570q0 -27 10 -50t28 -40t43.5 -27t57.5 -10t57.5 10t43.5 27t27.5 40t9.5 50q0 60 -37 93.5t-101 33.5t-101.5 -33.5t-37.5 -93.5zM166 214q0 -38 13 -67.5t35.5 -49.5t52.5 -30t65 -10q34 0 64 10
t52.5 30t35.5 49.5t13 67.5q0 36 -13.5 65t-36 49.5t-52.5 31.5t-63 11q-35 0 -65 -11t-52.5 -31.5t-35.5 -49.5t-13 -65z" />
    <glyph glyph-name="nine" unicode="9" horiz-adv-x="614" 
d="M268 276q-46 0 -87 18t-71.5 49.5t-48.5 75t-18 94.5q0 49 19 95t53.5 81t83 56.5t108.5 21.5t108.5 -21t83 -57t53.5 -83.5t19 -100.5q0 -48 -13 -96.5t-47.5 -107t-94.5 -131.5t-153 -170h-114q75 79 129 140t91 108t58.5 84.5t32.5 70.5q-29 -55 -77.5 -91t-114.5 -36
zM307 697q-37 0 -68 -14t-53 -38.5t-34.5 -58.5t-12.5 -73q0 -38 13 -69t36 -53t53.5 -34t65.5 -12q25 0 52 8t50.5 22.5t40.5 35.5t23 48q1 11 1.5 22.5t0.5 23.5q0 43 -12.5 78.5t-34.5 60.5t-53 39t-68 14z" />
    <glyph glyph-name="colon" unicode=":" horiz-adv-x="308" 
d="M80 437q0 31 22 52.5t52 21.5q31 0 52.5 -21.5t21.5 -52.5t-21.5 -52.5t-52.5 -21.5q-30 0 -52 21.5t-22 52.5zM80 61q0 31 22 52.5t52 21.5q31 0 52.5 -21.5t21.5 -52.5t-21.5 -52.5t-52.5 -21.5q-30 0 -52 21.5t-22 52.5z" />
    <glyph glyph-name="semicolon" unicode=";" horiz-adv-x="311" 
d="M155 0h-51v123h122v-124l-80 -184h-57zM83 437q0 31 22 52.5t52 21.5q31 0 52.5 -21.5t21.5 -52.5t-21.5 -52.5t-52.5 -21.5q-30 0 -52 21.5t-22 52.5z" />
    <glyph glyph-name="less" unicode="&#x3c;" horiz-adv-x="673" 
d="M583 589v-87l-411 -175l411 -175v-87l-513 223v78z" />
    <glyph glyph-name="equal" unicode="=" horiz-adv-x="703" 
d="M90 421v79h523v-79h-523zM90 155v79h523v-79h-523z" />
    <glyph glyph-name="greater" unicode="&#x3e;" horiz-adv-x="673" 
d="M603 366v-78l-513 -223v87l411 175l-411 175v87z" />
    <glyph glyph-name="question" unicode="?" horiz-adv-x="578" 
d="M389 375q-26 -15 -42 -28t-24.5 -27t-11.5 -30t-3 -38v-30h-90v33q0 33 6.5 58.5t21.5 46.5t38 39.5t56 38.5q20 12 37.5 24.5t30.5 27.5t20.5 34.5t7.5 45.5q0 60 -37 92.5t-101 32.5t-104 -32.5t-43 -92.5h-91q1 44 20 80t50.5 62t74.5 40.5t93 14.5q49 0 91 -14
t73 -40t48.5 -62t17.5 -80q0 -34 -11.5 -63t-31 -53.5t-44.5 -44.5t-52 -35zM194 61q0 31 22 52.5t52 21.5q31 0 52.5 -21.5t21.5 -52.5t-21.5 -52.5t-52.5 -21.5q-30 0 -52 21.5t-22 52.5z" />
    <glyph glyph-name="at" unicode="@" horiz-adv-x="914" 
d="M540 286q-10 -48 -41 -79t-89 -31q-31 0 -56.5 9.5t-44 25.5t-28.5 38t-10 48q0 52 42 82t105 44q58 13 85 22t37 22v16q0 34 -26.5 47.5t-60.5 13.5q-43 0 -77 -14.5t-64 -45.5v70q29 20 63 32.5t85 12.5q30 0 57.5 -6t48.5 -20.5t34 -39.5t13 -63v-162q0 -48 10.5 -69
t36.5 -21q23 0 43.5 16.5t36.5 46.5t25 72.5t9 93.5q0 59 -21.5 107t-60.5 82.5t-92.5 53.5t-116.5 19q-88 0 -153 -31t-108 -81.5t-64.5 -113.5t-21.5 -126q0 -72 24 -129t65.5 -96.5t95.5 -60.5t114 -21q48 0 92.5 8.5t85.5 29.5v-71q-39 -15 -86 -22.5t-92 -7.5
q-79 0 -146 27t-116 76.5t-76.5 117.5t-27.5 151t30 157t84.5 130t131 88.5t170.5 32.5q75 0 140.5 -23t113.5 -65t75.5 -100.5t27.5 -130.5q0 -60 -13 -112t-38 -90.5t-61.5 -61t-84.5 -22.5q-51 0 -78 30t-27 74v20zM540 418l-111 -37q-36 -12 -57 -29t-21 -49
q0 -35 24.5 -55.5t62.5 -20.5q19 0 37.5 8t33 23.5t23 38t8.5 51.5v70z" />
    <glyph glyph-name="A" unicode="A" horiz-adv-x="732" 
d="M613 0l-99 227h-303l-99 -227h-92l345 784l347 -784h-99zM247 308h232l-116 266z" />
    <glyph glyph-name="B" unicode="B" horiz-adv-x="625" 
d="M575 219q0 -41 -14 -80.5t-45 -70.5t-80.5 -49.5t-121.5 -18.5h-224v750h196q72 0 121.5 -14.5t80.5 -40t45 -60.5t14 -75q0 -60 -34 -100t-98 -57q36 -7 65.5 -24t50.5 -41.5t32.5 -55t11.5 -63.5zM289 435q36 0 66.5 5t52 18.5t33.5 36t12 57.5t-12 57.5t-33.5 36
t-52 18.5t-66.5 5h-107v-234h107zM182 81h135q73 0 118.5 32.5t45.5 102.5t-45.5 104t-118.5 34h-135v-273z" />
    <glyph glyph-name="C" unicode="C" horiz-adv-x="744" 
d="M456 767q60 0 119.5 -14.5t107.5 -47.5v-98q-45 40 -106.5 59t-126.5 19q-58 0 -112.5 -19t-96.5 -57t-67 -96t-25 -136t25 -136t67 -96t96.5 -57t112.5 -19q65 0 126.5 19t106.5 59v-98q-48 -33 -108 -47.5t-120 -14.5q-76 0 -149 25t-130 74t-91.5 122t-34.5 169
t35 169t92.5 122t130.5 74t148 25z" />
    <glyph glyph-name="D" unicode="D" horiz-adv-x="783" 
d="M90 0v750h232q93 0 169.5 -28.5t131 -78.5t85 -119t30.5 -151q0 -81 -30.5 -149.5t-86 -118t-132 -77.5t-167.5 -28h-232zM640 375q0 64 -22.5 118t-63.5 93t-100 61t-132 22h-140v-588h140q73 0 131.5 22t100 61t64 93t22.5 118z" />
    <glyph glyph-name="E" unicode="E" horiz-adv-x="570" 
d="M182 436h303v-81h-303v-274h313v-81h-405v750h405v-81h-313v-233z" />
    <glyph glyph-name="F" unicode="F" horiz-adv-x="540" 
d="M182 436h313v-81h-313v-355h-92v750h415v-81h-323v-233z" />
    <glyph glyph-name="G" unicode="G" horiz-adv-x="867" 
d="M430 -13q-82 0 -151.5 30t-120.5 82.5t-79.5 124.5t-28.5 155t31 154t84 123t124 81.5t151 29.5q57 0 109.5 -16.5t96.5 -47.5t77 -74t51 -95h-104q-14 35 -37.5 63t-53.5 47.5t-65.5 30t-73.5 10.5q-60 0 -112.5 -22t-92.5 -62.5t-63 -96.5t-23 -125q0 -68 20.5 -125
t59 -98t92.5 -64t121 -23q54 0 99.5 16t77.5 45.5t50 72t18 96.5v20h-201v81h291v-400h-60l-23 134q-30 -68 -99 -107.5t-165 -39.5z" />
    <glyph glyph-name="H" unicode="H" horiz-adv-x="793" 
d="M703 0h-92v355h-429v-355h-92v750h92v-314h429v314h92v-750z" />
    <glyph glyph-name="I" unicode="I" horiz-adv-x="272" 
d="M182 0h-92v750h92v-750z" />
    <glyph glyph-name="J" unicode="J" horiz-adv-x="486" 
d="M309 750h92v-571q0 -45 -14.5 -81t-40 -60.5t-60 -37.5t-74.5 -13q-41 0 -75 13.5t-59 37.5t-40 58.5t-18 76.5h89q7 -62 34.5 -85t72.5 -23q18 0 35 5.5t29.5 19t20.5 36.5t8 57v567z" />
    <glyph glyph-name="K" unicode="K" horiz-adv-x="679" 
d="M673 0h-131l-360 356v-356h-92v750h92v-376l357 376h106l-355 -373z" />
    <glyph glyph-name="L" unicode="L" horiz-adv-x="525" 
d="M182 81h313v-81h-405v750h92v-669z" />
    <glyph glyph-name="M" unicode="M" horiz-adv-x="894" 
d="M721 750h83v-750h-92v577l-265 -414l-265 414v-577h-92v750h83l274 -429z" />
    <glyph glyph-name="N" unicode="N" horiz-adv-x="809" 
d="M627 750h92v-779l-537 630v-601h-92v750h75l462 -547v547z" />
    <glyph glyph-name="O" unicode="O" horiz-adv-x="879" 
d="M440 767q82 0 153 -30t123.5 -82.5t82.5 -124t30 -153.5t-30.5 -153.5t-83 -124t-123.5 -82.5t-153 -30t-153 30t-123.5 82.5t-82.5 124t-30 153.5t30.5 153.5t83 124t123.5 82.5t153 30zM439 69q63 0 116.5 23.5t92.5 64.5t61 97.5t22 122.5t-22 122.5t-61 97.5
t-92 64.5t-116 23.5t-116.5 -23.5t-92.5 -64.5t-61 -97.5t-22 -122.5t22 -122.5t61 -97.5t92 -64.5t116 -23.5z" />
    <glyph glyph-name="P" unicode="P" horiz-adv-x="580" 
d="M182 318v-318h-92v750h204q72 0 121.5 -18.5t80.5 -48.5t45 -69t14 -80t-14 -80t-45 -69t-80.5 -48.5t-121.5 -18.5h-112zM293 399q75 0 120.5 32.5t45.5 102.5t-45.5 102.5t-120.5 32.5h-111v-270h111z" />
    <glyph glyph-name="Q" unicode="Q" horiz-adv-x="879" 
d="M521 -5q74 -59 186 -59q42 0 87 9v-78q-21 -4 -42.5 -5.5t-43.5 -1.5q-45 0 -89 8t-83 24t-71 40t-53 56q-77 5 -143 37t-115 84t-76.5 120.5t-27.5 147.5q0 82 30.5 153.5t83 124t123.5 82.5t153 30t153 -30t123.5 -82.5t82.5 -124t30 -153.5q0 -72 -23 -135.5
t-64 -113.5t-97.5 -84.5t-123.5 -48.5zM148 377q0 -66 22 -122.5t61 -97.5t92 -64.5t116 -23.5t116.5 23.5t92.5 64.5t61 97.5t22 122.5t-22 122.5t-61 97.5t-92 64.5t-116 23.5t-116.5 -23.5t-92.5 -64.5t-61 -97.5t-22 -122.5z" />
    <glyph glyph-name="R" unicode="R" horiz-adv-x="645" 
d="M645 0h-116l-266 331h-81v-331h-92v750h165q72 0 121.5 -18t80.5 -47t45 -67t14 -78q0 -31 -9 -60.5t-27.5 -54.5t-47 -44.5t-67.5 -30.5zM182 412h72q75 0 120.5 30.5t45.5 97.5t-46 98t-120 31h-72v-257z" />
    <glyph glyph-name="S" unicode="S" horiz-adv-x="618" 
d="M553 208q0 -50 -19 -90.5t-52 -69.5t-77.5 -45t-96.5 -16q-53 0 -97.5 16t-77.5 46t-53 71.5t-25 92.5h100q9 -72 50.5 -108.5t105.5 -36.5q31 0 58 8t46.5 23.5t31 39t11.5 55.5q0 30 -11.5 53t-31.5 40t-46.5 30.5t-57.5 25.5l-62 24q-33 12 -64 30.5t-55 43.5
t-39 57.5t-15 73.5q0 43 17.5 79t48 62t72.5 40t92 14q48 0 87 -14.5t68.5 -41t49 -63.5t28.5 -81h-99q-16 62 -52 89t-90 27q-57 0 -92 -27.5t-35 -71.5q0 -51 31 -80t90 -52l62 -24q36 -14 71.5 -32t64 -44t46 -61t17.5 -83z" />
    <glyph glyph-name="T" unicode="T" horiz-adv-x="610" 
d="M259 0v669h-249v81h590v-81h-249v-669h-92z" />
    <glyph glyph-name="U" unicode="U" horiz-adv-x="756" 
d="M85 750h92v-493q0 -46 15.5 -81t42.5 -58.5t63.5 -35.5t79.5 -12t79.5 12t63.5 35.5t42.5 58.5t15.5 81v493h92v-485q0 -65 -21 -116.5t-59.5 -87.5t-92.5 -55t-120 -19t-120 19t-92.5 55t-59.5 87.5t-21 116.5v485z" />
    <glyph glyph-name="V" unicode="V" horiz-adv-x="702" 
d="M605 750h92l-345 -784l-347 784h102l249 -569z" />
    <glyph glyph-name="W" unicode="W" horiz-adv-x="947" 
d="M222 0l-202 750h99l149 -561l209 601l206 -601l153 561h91l-203 -750h-62l-189 546l-189 -546h-62z" />
    <glyph glyph-name="X" unicode="X" horiz-adv-x="723" 
d="M703 0h-111l-233 314l-233 -314h-106l287 385l-270 365h113l213 -289l215 289h105l-267 -360z" />
    <glyph glyph-name="Y" unicode="Y" horiz-adv-x="627" 
d="M613 750l-258 -430v-320h-90v320l-255 430h108l200 -336l197 336h98z" />
    <glyph glyph-name="Z" unicode="Z" horiz-adv-x="676" 
d="M484 669h-418v81h578l-461 -669h463v-81h-623z" />
    <glyph glyph-name="bracketleft" unicode="[" horiz-adv-x="347" 
d="M317 750v-61h-137v-828h137v-61h-217v950h217z" />
    <glyph glyph-name="backslash" unicode="\" horiz-adv-x="374" 
d="M289 0l-288 750h85l287 -750h-84z" />
    <glyph glyph-name="bracketright" unicode="]" horiz-adv-x="347" 
d="M247 750v-950h-217v61h137v828h-137v61h217z" />
    <glyph glyph-name="underscore" unicode="_" horiz-adv-x="583" 
d="M70 -13h443v-79h-443v79z" />
    <glyph glyph-name="grave" unicode="`" horiz-adv-x="251" 
d="M22 750h116l91 -136h-67z" />
    <glyph glyph-name="a" unicode="a" horiz-adv-x="518" 
d="M362 124q-6 -30 -18 -55t-31.5 -43t-46.5 -28.5t-62 -10.5q-36 0 -67 11.5t-53 32t-34.5 47.5t-12.5 59q0 33 13 58t36.5 44t56 32.5t71.5 21.5q36 7 62 14t43 14t27.5 14.5t15.5 15.5v16q0 21 -9 35.5t-24 23.5t-34.5 13t-40.5 4q-53 0 -95 -20.5t-79 -59.5v86
q34 26 78 44t107 18q36 0 70 -7.5t60 -25.5t41.5 -49t15.5 -78v-351h-90v124zM362 287l-135 -46q-45 -15 -69.5 -36.5t-24.5 -59.5q0 -44 26.5 -70t74.5 -26q24 0 47 10.5t41 31t29 51.5t11 73v72z" />
    <glyph glyph-name="b" unicode="b" horiz-adv-x="603" 
d="M340 511q48 0 89.5 -19.5t71.5 -54.5t47 -83t17 -105t-17 -105t-47 -83t-71.5 -54.5t-89.5 -19.5q-33 0 -60.5 10t-50 26.5t-38 37t-24.5 40.5v-101h-90v750h90v-353q9 20 24.5 40.5t38 37t50 26.5t60.5 10zM303 54q37 0 67.5 14t52 40t33 61.5t11.5 79.5q0 43 -11.5 79
t-33 62t-52 40t-67.5 14q-26 0 -50 -8t-43.5 -23t-31 -35.5t-11.5 -45.5v-166q0 -25 11.5 -45.5t31 -35.5t43.5 -23t50 -8z" />
    <glyph glyph-name="c" unicode="c" horiz-adv-x="464" 
d="M305 59q32 0 60.5 8t51.5 22v-76q-23 -12 -52 -19t-66 -7q-55 0 -102 19t-82 53.5t-55 82.5t-20 107q0 58 20 106.5t55 83t82 53.5t102 19q37 0 66 -7t52 -19v-76q-23 14 -51.5 22t-60.5 8q-35 0 -65.5 -12t-53.5 -35.5t-36.5 -59t-13.5 -83.5t13.5 -83.5t36.5 -59
t53.5 -35.5t65.5 -12z" />
    <glyph glyph-name="d" unicode="d" horiz-adv-x="605" 
d="M438 750h90v-750h-90v101q-9 -20 -24.5 -40.5t-38 -37t-50 -26.5t-60.5 -10q-48 0 -89.5 19.5t-71.5 54.5t-47 83t-17 105t17 105t47 83t71.5 54.5t89.5 19.5q33 0 60.5 -10t50 -26.5t38 -37t24.5 -40.5v353zM438 332q0 25 -11.5 45.5t-31 35.5t-44 23t-49.5 8
q-38 0 -68 -14t-51.5 -40t-33 -62t-11.5 -79q0 -44 11.5 -79.5t33 -61.5t51.5 -40t68 -14q25 0 49.5 8t44 23t31 35.5t11.5 45.5v166z" />
    <glyph glyph-name="e" unicode="e" horiz-adv-x="550" 
d="M135 249q0 -48 13.5 -83.5t37 -59t55 -35.5t67.5 -12q59 0 101.5 22.5t81.5 60.5v-85q-41 -37 -93 -53.5t-108 -16.5q-51 0 -96.5 18.5t-79.5 52.5t-54 82t-20 108q0 62 20 111t53.5 82.5t78 51.5t92.5 18q46 0 87.5 -16.5t72.5 -49t49.5 -80t19.5 -110.5h-378v-6z
M281 444q-24 0 -47 -6t-42 -21t-32.5 -39.5t-19.5 -61.5h274q-6 64 -40.5 96t-92.5 32z" />
    <glyph glyph-name="f" unicode="f" horiz-adv-x="367" 
d="M293 694q-19 0 -35.5 -5t-28.5 -16.5t-19 -31t-7 -48.5v-93h163v-72h-163v-428h-90v428h-101v72h101v77q0 52 14 88.5t38 59t56 32.5t68 10q43 0 88 -12v-73q-20 5 -41.5 8.5t-42.5 3.5z" />
    <glyph glyph-name="g" unicode="g" horiz-adv-x="555" 
d="M555 500v-54h-128q20 -22 31 -50t11 -63q0 -38 -14.5 -71t-41.5 -58.5t-64.5 -40t-83.5 -14.5q-28 0 -53 6q-15 -1 -28.5 -6t-24 -12t-16.5 -16t-6 -18q0 -16 15 -28.5t56 -10.5l98 6q211 13 211 -116q0 -72 -69 -115t-191 -43q-66 0 -117.5 14t-91.5 35v87
q60 -39 112 -50t99 -11q78 0 121.5 18t43.5 50q0 28 -26 42.5t-96 10.5l-87 -6q-41 -3 -69 4t-45 19t-25 28.5t-8 33.5q0 32 26 56.5t76 40.5q-49 22 -80.5 63t-31.5 97q0 43 17 77t46 57.5t67 36t79 12.5q37 0 73 -11h215zM267 201q54 0 83 35t29 95q0 59 -28.5 94
t-83.5 35q-57 0 -87 -34t-30 -98q0 -60 33 -93.5t84 -33.5z" />
    <glyph glyph-name="h" unicode="h" horiz-adv-x="563" 
d="M329 511q80 0 124 -44t44 -138v-329h-90v311q0 68 -30.5 100.5t-83.5 32.5q-27 0 -50 -7.5t-40 -23t-26.5 -39.5t-9.5 -56v-318h-90v750h90v-357q17 54 59 86t103 32z" />
    <glyph glyph-name="i" unicode="i" 
d="M77 500h90v-500h-90v500zM59 706q0 26 17.5 43.5t43.5 17.5t43.5 -17.5t17.5 -43.5t-17.5 -43.5t-43.5 -17.5t-43.5 17.5t-17.5 43.5z" />
    <glyph glyph-name="j" unicode="j" horiz-adv-x="246" 
d="M63 706q0 26 17.5 43.5t43.5 17.5t43.5 -17.5t17.5 -43.5t-17.5 -43.5t-43.5 -17.5t-43.5 17.5t-17.5 43.5zM79 500h90v-535q0 -34 -4 -57.5t-18.5 -43t-43 -37.5t-77.5 -40l-29 66q30 15 46.5 26t24.5 23t9.5 27t1.5 37v534z" />
    <glyph glyph-name="k" unicode="k" horiz-adv-x="516" 
d="M544 0h-120l-257 254v-254h-90v750h90v-480l240 230h100l-238 -226z" />
    <glyph glyph-name="l" unicode="l" 
d="M77 750h90v-750h-90v750z" />
    <glyph glyph-name="m" unicode="m" horiz-adv-x="877" 
d="M648 511q76 0 119.5 -44t43.5 -138v-329h-90v311q0 68 -30 100.5t-79 32.5q-51 0 -87 -31t-36 -95v-318h-90v311q0 68 -30 100.5t-79 32.5q-51 0 -87 -31t-36 -95v-318h-90v500h90v-107q17 54 58.5 86t100.5 32q63 0 103 -29.5t54 -91.5q18 55 61.5 88t103.5 33z" />
    <glyph glyph-name="n" unicode="n" horiz-adv-x="563" 
d="M329 511q80 0 124 -44t44 -138v-329h-90v311q0 68 -30.5 100.5t-83.5 32.5q-27 0 -50 -7.5t-40 -23t-26.5 -39.5t-9.5 -56v-318h-90v500h90v-107q17 54 59 86t103 32z" />
    <glyph glyph-name="o" unicode="o" horiz-adv-x="608" 
d="M304 -13q-60 0 -108.5 21t-83 56.5t-53.5 83t-19 101.5t19 101.5t53.5 83t83 56.5t108.5 21t108.5 -21t83 -56.5t53.5 -83t19 -101.5t-19 -101.5t-53.5 -83t-83 -56.5t-108.5 -21zM304 440q-37 0 -68.5 -14t-54 -39t-35 -60t-12.5 -78t12.5 -78t35 -60t54 -39t68.5 -14
t68.5 14t54 39t35 60t12.5 78t-12.5 78t-35 60t-54 39t-68.5 14z" />
    <glyph glyph-name="p" unicode="p" horiz-adv-x="605" 
d="M340 511q48 0 89.5 -19.5t71.5 -54.5t47 -83t17 -105t-17 -105t-47 -83t-71.5 -54.5t-89.5 -19.5q-33 0 -60.5 10t-50 26.5t-38 37t-24.5 40.5v-301h-90v700h90v-103q9 20 24.5 40.5t38 37t50 26.5t60.5 10zM303 54q37 0 67.5 14t52 40t33 61.5t11.5 79.5q0 43 -11.5 79
t-33 62t-52 40t-67.5 14q-26 0 -50 -8t-43.5 -23t-31 -35.5t-11.5 -45.5v-166q0 -25 11.5 -45.5t31 -35.5t43.5 -23t50 -8z" />
    <glyph glyph-name="q" unicode="q" horiz-adv-x="605" 
d="M438 500h90v-700h-90v301q-9 -20 -24.5 -40.5t-38 -37t-50 -26.5t-60.5 -10q-48 0 -89.5 19.5t-71.5 54.5t-47 83t-17 105t17 105t47 83t71.5 54.5t89.5 19.5q33 0 60.5 -10t50 -26.5t38 -37t24.5 -40.5v103zM438 332q0 25 -11.5 45.5t-31 35.5t-44 23t-49.5 8
q-38 0 -68 -14t-51.5 -40t-33 -62t-11.5 -79q0 -44 11.5 -79.5t33 -61.5t51.5 -40t68 -14q25 0 49.5 8t44 23t31 35.5t11.5 45.5v166z" />
    <glyph glyph-name="r" unicode="r" horiz-adv-x="356" 
d="M317 505q18 0 35 -3v-91q-21 6 -48 6q-23 0 -47 -3t-44 -13t-33 -29.5t-13 -52.5v-319h-90v500h90v-117q9 28 25 50.5t36.5 38.5t43.5 24.5t45 8.5z" />
    <glyph glyph-name="s" unicode="s" horiz-adv-x="456" 
d="M260 291q28 -8 55.5 -21t48.5 -31.5t34 -43.5t13 -57q0 -34 -13 -62t-37 -47.5t-56.5 -30.5t-71.5 -11q-81 0 -133.5 45t-60.5 126h80q15 -101 115 -101q37 0 65.5 17.5t28.5 51.5q0 19 -7.5 32.5t-20.5 23.5t-31 17.5t-38 13.5l-44 13q-63 19 -98 57.5t-35 96.5
q0 29 13 53t35.5 41.5t53 27t65.5 9.5q64 0 111 -34.5t58 -102.5h-80q-11 38 -35.5 54t-59.5 16q-30 0 -55.5 -15.5t-25.5 -48.5q0 -28 22 -46.5t60 -29.5z" />
    <glyph glyph-name="t" unicode="t" horiz-adv-x="403" 
d="M198 428v-268q0 -33 5 -52.5t14.5 -30t22.5 -14t28 -3.5q23 0 49 8.5t49 24.5v-77q-20 -11 -51 -20t-58 -9q-39 0 -67.5 8t-46.5 27t-26.5 51.5t-8.5 80.5v274h-108v4l198 202v-134h175v-72h-175z" />
    <glyph glyph-name="u" unicode="u" horiz-adv-x="559" 
d="M392 500h90v-500h-90v105q-17 -54 -59 -86t-103 -32q-77 0 -120.5 44t-43.5 138v331h90v-313q0 -68 30 -100.5t80 -32.5q53 0 89.5 30.5t36.5 95.5v320z" />
    <glyph glyph-name="v" unicode="v" horiz-adv-x="535" 
d="M3 500h98l172 -342l173 342h86l-265 -516z" />
    <glyph glyph-name="w" unicode="w" horiz-adv-x="731" 
d="M25 500h91l112 -365l145 388l142 -385l111 362h80l-158 -500h-64l-117 315l-118 -315h-66z" />
    <glyph glyph-name="x" unicode="x" horiz-adv-x="548" 
d="M523 0h-108l-149 194l-151 -194h-90l197 252l-190 248h108l137 -179l140 179h88l-184 -236z" />
    <glyph glyph-name="y" unicode="y" horiz-adv-x="535" 
d="M84 -200l139 269l-220 431h98l172 -342l173 342h86l-360 -700h-88z" />
    <glyph glyph-name="z" unicode="z" horiz-adv-x="497" 
d="M325 428h-266v72h411l-297 -428h287v-72h-433z" />
    <glyph glyph-name="bar" unicode="|" horiz-adv-x="283" 
d="M183 750v-850h-83v850h83z" />
    <glyph glyph-name="uni00A0" unicode="&#xa0;" horiz-adv-x="240" 
 />
    <glyph glyph-name="exclamdown" unicode="&#xa1;" horiz-adv-x="348" 
d="M174 563q31 0 52.5 -21.5t21.5 -52.5t-21.5 -52.5t-52.5 -21.5q-30 0 -52 21.5t-22 52.5t22 52.5t52 21.5zM221 44v-244h-94v244l18 284h58z" />
    <glyph glyph-name="cent" unicode="&#xa2;" horiz-adv-x="462" 
d="M300 439v-380h5q32 0 60.5 8t51.5 22v-76q-23 -12 -51.5 -19t-65.5 -7v-98h-47v102q-46 7 -85 28.5t-67.5 55.5t-44.5 78t-16 96t16 96t44.5 78t67.5 55.5t85 28.5v102h47v-98q37 0 65.5 -7t51.5 -19v-76q-23 14 -51.5 22t-60.5 8h-5zM253 432q-51 -15 -84 -60.5
t-33 -122.5t33 -122.5t84 -60.5v366z" />
    <glyph glyph-name="sterling" unicode="&#xa3;" horiz-adv-x="610" 
d="M226 23q-32 0 -71.5 -10t-74.5 -30l-29 70q45 20 77 45t63 59q21 23 37.5 57.5t12.5 78.5h-160v65h147q-9 19 -26 35.5t-31 29.5q-16 15 -31 31t-26.5 35t-18.5 41.5t-7 50.5q0 40 17.5 74t48.5 59t73 39t91 14q50 0 93 -14.5t74.5 -40.5t50 -62t20.5 -80h-91
q-3 60 -43 92.5t-104 32.5t-101 -32t-37 -87q0 -32 18.5 -57t42.5 -48q25 -24 49.5 -50.5t35.5 -62.5h169v-65h-164q-8 -69 -53 -119t-120 -90l1 -2q55 17 88 16t59 -8.5t51.5 -16.5t65.5 -9q32 0 66.5 9.5t64.5 28.5v-79q-22 -16 -54.5 -28t-68.5 -12q-27 0 -51 6
t-48.5 13.5t-50 14t-55.5 6.5z" />
    <glyph glyph-name="dieresis" unicode="&#xa8;" horiz-adv-x="406" 
d="M20 705q0 26 18.5 44t44.5 18t44.5 -18t18.5 -44t-18.5 -44.5t-44.5 -18.5t-44.5 18.5t-18.5 44.5zM260 705q0 26 18.5 44t44.5 18t44.5 -18t18.5 -44t-18.5 -44.5t-44.5 -18.5t-44.5 18.5t-18.5 44.5z" />
    <glyph glyph-name="copyright" unicode="&#xa9;" horiz-adv-x="918" 
d="M460 767q81 0 151.5 -28.5t123 -80t83 -123.5t30.5 -159t-30.5 -158.5t-83 -122.5t-123 -79.5t-151.5 -28.5t-152 28.5t-124 79.5t-83.5 122.5t-30.5 158.5t30.5 159t83.5 123.5t124 80t152 28.5zM460 47q69 0 127.5 23.5t101 67t67 104t24.5 134.5q0 75 -24.5 136
t-67 104.5t-101 67.5t-127.5 24q-68 0 -126.5 -24t-102 -67.5t-68.5 -104.5t-25 -136q0 -74 25 -134.5t68.5 -104t102 -67t126.5 -23.5zM469 139q-50 0 -94 18.5t-76 50.5t-50.5 75.5t-18.5 93.5t18 94t50.5 76.5t76 51t94.5 18.5q44 0 80.5 -10.5t65.5 -29.5v-74
q-23 22 -60.5 37.5t-87.5 15.5q-36 0 -66.5 -14.5t-53.5 -39t-36 -56.5t-13 -68q0 -35 13 -67.5t36 -57t53.5 -39t66.5 -14.5q51 0 88 16t60 37v-74q-29 -19 -65.5 -29.5t-80.5 -10.5z" />
    <glyph glyph-name="guillemotleft" unicode="&#xab;" horiz-adv-x="527" 
d="M30 253l159 198h101l-159 -198l159 -198h-101zM217 253l159 198h101l-159 -198l159 -198h-101z" />
    <glyph glyph-name="uni00AD" unicode="&#xad;" horiz-adv-x="383" 
d="M70 308h243v-89h-243v89z" />
    <glyph glyph-name="macron" unicode="&#xaf;" horiz-adv-x="344" 
d="M22 652v69h300v-69h-300z" />
    <glyph glyph-name="degree" unicode="&#xb0;" horiz-adv-x="374" 
d="M186 767q31 0 58 -11.5t47 -31.5t31.5 -46.5t11.5 -57.5q0 -30 -11.5 -57t-31.5 -47t-47 -31.5t-58 -11.5q-30 0 -56.5 11.5t-46.5 31.5t-31.5 47t-11.5 57q0 31 11.5 57.5t31.5 46.5t46.5 31.5t56.5 11.5zM186 531q38 0 62 26t24 63q0 38 -24 63.5t-62 25.5
q-37 0 -60 -25.5t-23 -63.5q0 -37 23 -63t60 -26z" />
    <glyph glyph-name="acute" unicode="&#xb4;" horiz-adv-x="251" 
d="M22 614l91 136h116l-140 -136h-67z" />
    <glyph glyph-name="cedilla" unicode="&#xb8;" horiz-adv-x="245" 
d="M31 -147q13 -6 28.5 -10t29.5 -4q22 0 41.5 7t19.5 25q0 15 -13 22.5t-31 7.5q-8 0 -19 -2t-19 -7l-30 17l58 94h53l-39 -62q15 3 30 3q36 0 56 -18.5t20 -49.5q0 -20 -9.5 -35t-25 -25.5t-35 -16t-38.5 -5.5q-20 0 -44 3.5t-49 15.5z" />
    <glyph glyph-name="guillemotright" unicode="&#xbb;" horiz-adv-x="527" 
d="M151 55h-101l159 198l-159 198h101l159 -198zM338 55h-101l159 198l-159 198h101l159 -198z" />
    <glyph glyph-name="questiondown" unicode="&#xbf;" horiz-adv-x="578" 
d="M189 177q26 15 42 28t24.5 27t11.5 30t3 38v30h90v-33q0 -33 -6.5 -58.5t-21.5 -46.5t-38 -39.5t-56 -38.5q-20 -12 -37.5 -24.5t-30.5 -27.5t-20.5 -34.5t-7.5 -45.5q0 -60 37 -92.5t101 -32.5t104 32.5t43 92.5h91q-2 -44 -20.5 -80t-50 -62t-74.5 -40.5t-93 -14.5
q-49 0 -91 14t-73 40t-48.5 62t-17.5 80q0 34 11.5 63t31 53.5t44.5 44.5t52 35zM384 491q0 -31 -22 -52.5t-52 -21.5q-31 0 -52.5 21.5t-21.5 52.5t21.5 52.5t52.5 21.5q30 0 52 -21.5t22 -52.5z" />
    <glyph glyph-name="Agrave" unicode="&#xc0;" horiz-adv-x="732" 
d="M613 0l-99 227h-303l-99 -227h-92l345 784l347 -784h-99zM247 308h232l-116 266zM162 950h136l101 -136h-67z" />
    <glyph glyph-name="Aacute" unicode="&#xc1;" horiz-adv-x="732" 
d="M613 0l-99 227h-303l-99 -227h-92l345 784l347 -784h-99zM247 308h232l-116 266zM330 814l101 136h136l-170 -136h-67z" />
    <glyph glyph-name="Acircumflex" unicode="&#xc2;" horiz-adv-x="732" 
d="M561 814h-86l-109 84l-109 -84h-86l152 136h89zM613 0l-99 227h-303l-99 -227h-92l345 784l347 -784h-99zM247 308h232l-116 266z" />
    <glyph glyph-name="Atilde" unicode="&#xc3;" horiz-adv-x="732" 
d="M613 0l-99 227h-303l-99 -227h-92l345 784l347 -784h-99zM247 308h232l-116 266zM545 939q-11 -62 -43.5 -87.5t-72.5 -25.5q-23 0 -41 7.5t-34 16t-30.5 16t-30.5 7.5q-40 0 -45 -44h-71q10 58 41 85t74 27q23 0 40.5 -7.5t32.5 -16t30 -16t32 -7.5q19 0 31.5 11
t15.5 34h71z" />
    <glyph glyph-name="Adieresis" unicode="&#xc4;" horiz-adv-x="732" 
d="M183 882q0 26 18.5 44t44.5 18t44.5 -18t18.5 -44t-18.5 -44.5t-44.5 -18.5t-44.5 18.5t-18.5 44.5zM423 882q0 26 18.5 44t44.5 18t44.5 -18t18.5 -44t-18.5 -44.5t-44.5 -18.5t-44.5 18.5t-18.5 44.5zM613 0l-99 227h-303l-99 -227h-92l345 784l347 -784h-99zM247 308
h232l-116 266z" />
    <glyph glyph-name="Aring" unicode="&#xc5;" horiz-adv-x="732" 
d="M476 905q0 -45 -31.5 -73.5t-78.5 -28.5q-46 0 -77.5 28.5t-31.5 73.5q0 22 8.5 41t23.5 33t35 21.5t42 7.5t42 -7.5t35 -21.5t24 -33t9 -41zM303 905q0 -26 19.5 -44t43.5 -18q26 0 44.5 18t18.5 44q0 28 -18.5 45.5t-44.5 17.5q-24 0 -43.5 -17.5t-19.5 -45.5zM613 0
l-99 227h-303l-99 -227h-92l345 784l347 -784h-99zM247 308h232l-116 266z" />
    <glyph glyph-name="AE" unicode="&#xc6;" horiz-adv-x="885" 
d="M810 669h-313v-233h303v-81h-303v-274h313v-81h-405v227h-184l-116 -227h-95l395 750h405v-81zM263 308h142v277z" />
    <glyph glyph-name="Ccedilla" unicode="&#xc7;" horiz-adv-x="744" 
d="M456 767q60 0 119.5 -14.5t107.5 -47.5v-98q-45 40 -106.5 59t-126.5 19q-58 0 -112.5 -19t-96.5 -57t-67 -96t-25 -136t25 -136t67 -96t96.5 -57t112.5 -19q65 0 126.5 19t106.5 59v-98q-48 -33 -108 -47.5t-120 -14.5q-76 0 -149 25t-130 74t-91.5 122t-34.5 169
t35 169t92.5 122t130.5 74t148 25zM316 -147q13 -6 28.5 -10t29.5 -4q22 0 41.5 7t19.5 25q0 15 -13 22.5t-31 7.5q-8 0 -19 -2t-19 -7l-30 17l58 94h53l-39 -62q15 3 30 3q36 0 56 -18.5t20 -49.5q0 -20 -9.5 -35t-25 -25.5t-35 -16t-38.5 -5.5q-20 0 -44 3.5t-49 15.5z
" />
    <glyph glyph-name="Egrave" unicode="&#xc8;" horiz-adv-x="570" 
d="M182 436h303v-81h-303v-274h313v-81h-405v750h405v-81h-313v-233zM112 950h136l101 -136h-67z" />
    <glyph glyph-name="Eacute" unicode="&#xc9;" horiz-adv-x="570" 
d="M182 436h303v-81h-303v-274h313v-81h-405v750h405v-81h-313v-233zM253 814l101 136h136l-170 -136h-67z" />
    <glyph glyph-name="Ecircumflex" unicode="&#xca;" horiz-adv-x="570" 
d="M182 436h303v-81h-303v-274h313v-81h-405v750h405v-81h-313v-233zM489 814h-86l-109 84l-109 -84h-86l152 136h89z" />
    <glyph glyph-name="Edieresis" unicode="&#xcb;" horiz-adv-x="570" 
d="M182 436h303v-81h-303v-274h313v-81h-405v750h405v-81h-313v-233zM104 882q0 26 18.5 44t44.5 18t44.5 -18t18.5 -44t-18.5 -44.5t-44.5 -18.5t-44.5 18.5t-18.5 44.5zM344 882q0 26 18.5 44t44.5 18t44.5 -18t18.5 -44t-18.5 -44.5t-44.5 -18.5t-44.5 18.5t-18.5 44.5z
" />
    <glyph glyph-name="Igrave" unicode="&#xcc;" horiz-adv-x="272" 
d="M182 0h-92v750h92v-750zM-64 950h136l101 -136h-67z" />
    <glyph glyph-name="Iacute" unicode="&#xcd;" horiz-adv-x="272" 
d="M182 0h-92v750h92v-750zM95 814l101 136h136l-170 -136h-67z" />
    <glyph glyph-name="Icircumflex" unicode="&#xce;" horiz-adv-x="272" 
d="M182 0h-92v750h92v-750zM332 814h-86l-109 84l-109 -84h-86l152 136h89z" />
    <glyph glyph-name="Idieresis" unicode="&#xcf;" horiz-adv-x="272" 
d="M182 0h-92v750h92v-750zM-46 882q0 26 18.5 44t44.5 18t44.5 -18t18.5 -44t-18.5 -44.5t-44.5 -18.5t-44.5 18.5t-18.5 44.5zM194 882q0 26 18.5 44t44.5 18t44.5 -18t18.5 -44t-18.5 -44.5t-44.5 -18.5t-44.5 18.5t-18.5 44.5z" />
    <glyph glyph-name="Eth" unicode="&#xd0;" horiz-adv-x="783" 
d="M322 750q93 0 169.5 -28.5t131 -78.5t85 -119t30.5 -151q0 -81 -30.5 -149.5t-86 -118t-132 -77.5t-167.5 -28h-232v355h-80v81h80v314h232zM322 81q73 0 131.5 22t100 61t64 93t22.5 118t-22.5 118t-63.5 93t-100 61t-132 22h-140v-233h171v-81h-171v-274h140z" />
    <glyph glyph-name="Ntilde" unicode="&#xd1;" horiz-adv-x="809" 
d="M627 750h92v-779l-537 630v-601h-92v750h75l462 -547v547zM600 939q-11 -62 -43.5 -87.5t-72.5 -25.5q-23 0 -41 7.5t-34 16t-30.5 16t-30.5 7.5q-40 0 -45 -44h-71q10 58 41 85t74 27q23 0 40.5 -7.5t32.5 -16t30 -16t32 -7.5q19 0 31.5 11t15.5 34h71z" />
    <glyph glyph-name="Ograve" unicode="&#xd2;" horiz-adv-x="879" 
d="M440 767q82 0 153 -30t123.5 -82.5t82.5 -124t30 -153.5t-30.5 -153.5t-83 -124t-123.5 -82.5t-153 -30t-153 30t-123.5 82.5t-82.5 124t-30 153.5t30.5 153.5t83 124t123.5 82.5t153 30zM439 69q63 0 116.5 23.5t92.5 64.5t61 97.5t22 122.5t-22 122.5t-61 97.5
t-92 64.5t-116 23.5t-116.5 -23.5t-92.5 -64.5t-61 -97.5t-22 -122.5t22 -122.5t61 -97.5t92 -64.5t116 -23.5zM232 950h136l101 -136h-67z" />
    <glyph glyph-name="Oacute" unicode="&#xd3;" horiz-adv-x="879" 
d="M440 767q82 0 153 -30t123.5 -82.5t82.5 -124t30 -153.5t-30.5 -153.5t-83 -124t-123.5 -82.5t-153 -30t-153 30t-123.5 82.5t-82.5 124t-30 153.5t30.5 153.5t83 124t123.5 82.5t153 30zM439 69q63 0 116.5 23.5t92.5 64.5t61 97.5t22 122.5t-22 122.5t-61 97.5
t-92 64.5t-116 23.5t-116.5 -23.5t-92.5 -64.5t-61 -97.5t-22 -122.5t22 -122.5t61 -97.5t92 -64.5t116 -23.5zM400 814l101 136h136l-170 -136h-67z" />
    <glyph glyph-name="Ocircumflex" unicode="&#xd4;" horiz-adv-x="879" 
d="M635 814h-86l-109 84l-109 -84h-86l152 136h89zM440 767q82 0 153 -30t123.5 -82.5t82.5 -124t30 -153.5t-30.5 -153.5t-83 -124t-123.5 -82.5t-153 -30t-153 30t-123.5 82.5t-82.5 124t-30 153.5t30.5 153.5t83 124t123.5 82.5t153 30zM439 69q63 0 116.5 23.5
t92.5 64.5t61 97.5t22 122.5t-22 122.5t-61 97.5t-92 64.5t-116 23.5t-116.5 -23.5t-92.5 -64.5t-61 -97.5t-22 -122.5t22 -122.5t61 -97.5t92 -64.5t116 -23.5z" />
    <glyph glyph-name="Otilde" unicode="&#xd5;" horiz-adv-x="879" 
d="M624 939q-11 -62 -43.5 -87.5t-72.5 -25.5q-23 0 -41 7.5t-34 16t-30.5 16t-30.5 7.5q-40 0 -45 -44h-71q10 58 41 85t74 27q23 0 40.5 -7.5t32.5 -16t30 -16t32 -7.5q19 0 31.5 11t15.5 34h71zM440 767q82 0 153 -30t123.5 -82.5t82.5 -124t30 -153.5t-30.5 -153.5
t-83 -124t-123.5 -82.5t-153 -30t-153 30t-123.5 82.5t-82.5 124t-30 153.5t30.5 153.5t83 124t123.5 82.5t153 30zM439 69q63 0 116.5 23.5t92.5 64.5t61 97.5t22 122.5t-22 122.5t-61 97.5t-92 64.5t-116 23.5t-116.5 -23.5t-92.5 -64.5t-61 -97.5t-22 -122.5t22 -122.5
t61 -97.5t92 -64.5t116 -23.5z" />
    <glyph glyph-name="Odieresis" unicode="&#xd6;" horiz-adv-x="879" 
d="M256 882q0 26 18.5 44t44.5 18t44.5 -18t18.5 -44t-18.5 -44.5t-44.5 -18.5t-44.5 18.5t-18.5 44.5zM496 882q0 26 18.5 44t44.5 18t44.5 -18t18.5 -44t-18.5 -44.5t-44.5 -18.5t-44.5 18.5t-18.5 44.5zM440 767q82 0 153 -30t123.5 -82.5t82.5 -124t30 -153.5
t-30.5 -153.5t-83 -124t-123.5 -82.5t-153 -30t-153 30t-123.5 82.5t-82.5 124t-30 153.5t30.5 153.5t83 124t123.5 82.5t153 30zM439 69q63 0 116.5 23.5t92.5 64.5t61 97.5t22 122.5t-22 122.5t-61 97.5t-92 64.5t-116 23.5t-116.5 -23.5t-92.5 -64.5t-61 -97.5
t-22 -122.5t22 -122.5t61 -97.5t92 -64.5t116 -23.5z" />
    <glyph glyph-name="multiply" unicode="&#xd7;" horiz-adv-x="661" 
d="M516 87l-186 186l-185 -186l-55 55l186 186l-186 185l55 55l185 -186l186 186l55 -55l-186 -185l186 -186z" />
    <glyph glyph-name="Oslash" unicode="&#xd8;" horiz-adv-x="879" 
d="M832 726l-93 -97q42 -51 66 -115t24 -137q0 -82 -30.5 -153.5t-83 -124t-123.5 -82.5t-153 -30q-69 0 -130 21.5t-111 60.5l-94 -97l-39 38l92 96q-51 52 -79 121t-28 150q0 82 30.5 153.5t83 124t123.5 82.5t153 30q76 0 142.5 -26t117.5 -72l91 94zM148 377
q0 -61 18.5 -113.5t52.5 -93.5l420 436q-38 38 -88.5 58.5t-110.5 20.5q-63 0 -116.5 -23.5t-92.5 -64.5t-61 -97.5t-22 -122.5zM731 377q0 54 -14.5 101.5t-41.5 85.5l-417 -432q37 -30 82.5 -46.5t98.5 -16.5q63 0 116.5 23.5t92.5 64.5t61 97.5t22 122.5z" />
    <glyph glyph-name="Ugrave" unicode="&#xd9;" horiz-adv-x="756" 
d="M85 750h92v-493q0 -46 15.5 -81t42.5 -58.5t63.5 -35.5t79.5 -12t79.5 12t63.5 35.5t42.5 58.5t15.5 81v493h92v-485q0 -65 -21 -116.5t-59.5 -87.5t-92.5 -55t-120 -19t-120 19t-92.5 55t-59.5 87.5t-21 116.5v485zM194 950h136l101 -136h-67z" />
    <glyph glyph-name="Uacute" unicode="&#xda;" horiz-adv-x="756" 
d="M85 750h92v-493q0 -46 15.5 -81t42.5 -58.5t63.5 -35.5t79.5 -12t79.5 12t63.5 35.5t42.5 58.5t15.5 81v493h92v-485q0 -65 -21 -116.5t-59.5 -87.5t-92.5 -55t-120 -19t-120 19t-92.5 55t-59.5 87.5t-21 116.5v485zM331 814l101 136h136l-170 -136h-67z" />
    <glyph glyph-name="Ucircumflex" unicode="&#xdb;" horiz-adv-x="756" 
d="M573 814h-86l-109 84l-109 -84h-86l152 136h89zM85 750h92v-493q0 -46 15.5 -81t42.5 -58.5t63.5 -35.5t79.5 -12t79.5 12t63.5 35.5t42.5 58.5t15.5 81v493h92v-485q0 -65 -21 -116.5t-59.5 -87.5t-92.5 -55t-120 -19t-120 19t-92.5 55t-59.5 87.5t-21 116.5v485z" />
    <glyph glyph-name="Udieresis" unicode="&#xdc;" horiz-adv-x="756" 
d="M195 882q0 26 18.5 44t44.5 18t44.5 -18t18.5 -44t-18.5 -44.5t-44.5 -18.5t-44.5 18.5t-18.5 44.5zM435 882q0 26 18.5 44t44.5 18t44.5 -18t18.5 -44t-18.5 -44.5t-44.5 -18.5t-44.5 18.5t-18.5 44.5zM85 750h92v-493q0 -46 15.5 -81t42.5 -58.5t63.5 -35.5t79.5 -12
t79.5 12t63.5 35.5t42.5 58.5t15.5 81v493h92v-485q0 -65 -21 -116.5t-59.5 -87.5t-92.5 -55t-120 -19t-120 19t-92.5 55t-59.5 87.5t-21 116.5v485z" />
    <glyph glyph-name="Yacute" unicode="&#xdd;" horiz-adv-x="627" 
d="M613 750l-258 -430v-320h-90v320l-255 430h108l200 -336l197 336h98zM290 814l101 136h136l-170 -136h-67z" />
    <glyph glyph-name="Thorn" unicode="&#xde;" horiz-adv-x="580" 
d="M182 168v-168h-92v750h92v-150h112q72 0 121.5 -18.5t80.5 -48.5t45 -69t14 -80t-14 -80t-45 -69t-80.5 -48.5t-121.5 -18.5h-112zM293 249q75 0 120.5 32.5t45.5 102.5t-45.5 102.5t-120.5 32.5h-111v-270h111z" />
    <glyph glyph-name="germandbls" unicode="&#xdf;" horiz-adv-x="637" 
d="M245 74q20 -6 45 -10t46 -4q34 0 64 9.5t52.5 29t35.5 48.5t13 67q0 36 -13.5 64t-36 47.5t-52.5 29.5t-63 10h-50v78h50q32 0 56.5 10t41.5 27t25.5 40t8.5 50q0 60 -36.5 92.5t-100.5 32.5q-26 0 -54.5 -4t-53 -22t-40.5 -55t-16 -103v-511h-90v502q0 82 23.5 133.5
t60.5 81t82 40t88 10.5q47 0 88 -14t71.5 -39.5t48 -61.5t17.5 -81q0 -59 -30.5 -98.5t-78.5 -59.5q74 -23 112 -77t38 -126q0 -49 -19.5 -90t-54 -70.5t-83 -46t-105.5 -16.5q-20 0 -44.5 2.5t-45.5 6.5v78z" />
    <glyph glyph-name="agrave" unicode="&#xe0;" horiz-adv-x="518" 
d="M362 124q-6 -30 -18 -55t-31.5 -43t-46.5 -28.5t-62 -10.5q-36 0 -67 11.5t-53 32t-34.5 47.5t-12.5 59q0 33 13 58t36.5 44t56 32.5t71.5 21.5q36 7 62 14t43 14t27.5 14.5t15.5 15.5v16q0 21 -9 35.5t-24 23.5t-34.5 13t-40.5 4q-53 0 -95 -20.5t-79 -59.5v86
q34 26 78 44t107 18q36 0 70 -7.5t60 -25.5t41.5 -49t15.5 -78v-351h-90v124zM362 287l-135 -46q-45 -15 -69.5 -36.5t-24.5 -59.5q0 -44 26.5 -70t74.5 -26q24 0 47 10.5t41 31t29 51.5t11 73v72zM110 750h116l91 -136h-67z" />
    <glyph glyph-name="aacute" unicode="&#xe1;" horiz-adv-x="518" 
d="M362 124q-6 -30 -18 -55t-31.5 -43t-46.5 -28.5t-62 -10.5q-36 0 -67 11.5t-53 32t-34.5 47.5t-12.5 59q0 33 13 58t36.5 44t56 32.5t71.5 21.5q36 7 62 14t43 14t27.5 14.5t15.5 15.5v16q0 21 -9 35.5t-24 23.5t-34.5 13t-40.5 4q-53 0 -95 -20.5t-79 -59.5v86
q34 26 78 44t107 18q36 0 70 -7.5t60 -25.5t41.5 -49t15.5 -78v-351h-90v124zM362 287l-135 -46q-45 -15 -69.5 -36.5t-24.5 -59.5q0 -44 26.5 -70t74.5 -26q24 0 47 10.5t41 31t29 51.5t11 73v72zM232 614l91 136h116l-140 -136h-67z" />
    <glyph glyph-name="acircumflex" unicode="&#xe2;" horiz-adv-x="518" 
d="M362 124q-6 -30 -18 -55t-31.5 -43t-46.5 -28.5t-62 -10.5q-36 0 -67 11.5t-53 32t-34.5 47.5t-12.5 59q0 33 13 58t36.5 44t56 32.5t71.5 21.5q36 7 62 14t43 14t27.5 14.5t15.5 15.5v16q0 21 -9 35.5t-24 23.5t-34.5 13t-40.5 4q-53 0 -95 -20.5t-79 -59.5v86
q34 26 78 44t107 18q36 0 70 -7.5t60 -25.5t41.5 -49t15.5 -78v-351h-90v124zM362 287l-135 -46q-45 -15 -69.5 -36.5t-24.5 -59.5q0 -44 26.5 -70t74.5 -26q24 0 47 10.5t41 31t29 51.5t11 73v72zM446 614h-86l-99 84l-99 -84h-86l142 136h89z" />
    <glyph glyph-name="atilde" unicode="&#xe3;" horiz-adv-x="518" 
d="M362 124q-6 -30 -18 -55t-31.5 -43t-46.5 -28.5t-62 -10.5q-36 0 -67 11.5t-53 32t-34.5 47.5t-12.5 59q0 33 13 58t36.5 44t56 32.5t71.5 21.5q36 7 62 14t43 14t27.5 14.5t15.5 15.5v16q0 21 -9 35.5t-24 23.5t-34.5 13t-40.5 4q-53 0 -95 -20.5t-79 -59.5v86
q34 26 78 44t107 18q36 0 70 -7.5t60 -25.5t41.5 -49t15.5 -78v-351h-90v124zM362 287l-135 -46q-45 -15 -69.5 -36.5t-24.5 -59.5q0 -44 26.5 -70t74.5 -26q24 0 47 10.5t41 31t29 51.5t11 73v72zM441 750q-11 -62 -43.5 -87.5t-72.5 -25.5q-23 0 -41 7.5t-34 16.5
t-30.5 16.5t-30.5 7.5q-40 0 -45 -44h-71q10 58 41 85t74 27q23 0 40.5 -7.5t32.5 -16.5t30 -16.5t32 -7.5q19 0 31.5 11t15.5 34h71z" />
    <glyph glyph-name="adieresis" unicode="&#xe4;" horiz-adv-x="518" 
d="M362 124q-6 -30 -18 -55t-31.5 -43t-46.5 -28.5t-62 -10.5q-36 0 -67 11.5t-53 32t-34.5 47.5t-12.5 59q0 33 13 58t36.5 44t56 32.5t71.5 21.5q36 7 62 14t43 14t27.5 14.5t15.5 15.5v16q0 21 -9 35.5t-24 23.5t-34.5 13t-40.5 4q-53 0 -95 -20.5t-79 -59.5v86
q34 26 78 44t107 18q36 0 70 -7.5t60 -25.5t41.5 -49t15.5 -78v-351h-90v124zM362 287l-135 -46q-45 -15 -69.5 -36.5t-24.5 -59.5q0 -44 26.5 -70t74.5 -26q24 0 47 10.5t41 31t29 51.5t11 73v72zM77 705q0 26 18.5 44t44.5 18t44.5 -18t18.5 -44t-18.5 -44.5t-44.5 -18.5
t-44.5 18.5t-18.5 44.5zM317 705q0 26 18.5 44t44.5 18t44.5 -18t18.5 -44t-18.5 -44.5t-44.5 -18.5t-44.5 18.5t-18.5 44.5z" />
    <glyph glyph-name="aring" unicode="&#xe5;" horiz-adv-x="518" 
d="M362 124q-6 -30 -18 -55t-31.5 -43t-46.5 -28.5t-62 -10.5q-36 0 -67 11.5t-53 32t-34.5 47.5t-12.5 59q0 33 13 58t36.5 44t56 32.5t71.5 21.5q36 7 62 14t43 14t27.5 14.5t15.5 15.5v16q0 21 -9 35.5t-24 23.5t-34.5 13t-40.5 4q-53 0 -95 -20.5t-79 -59.5v86
q34 26 78 44t107 18q36 0 70 -7.5t60 -25.5t41.5 -49t15.5 -78v-351h-90v124zM362 287l-135 -46q-45 -15 -69.5 -36.5t-24.5 -59.5q0 -44 26.5 -70t74.5 -26q24 0 47 10.5t41 31t29 51.5t11 73v72zM362 699q0 -41 -29 -67t-71 -26t-70.5 26t-28.5 67q0 42 29 68t70 26
q42 0 71 -26t29 -68zM205 699q0 -24 17.5 -40t39.5 -16q23 0 40 16t17 40q0 26 -17 41.5t-40 15.5q-22 0 -39.5 -15.5t-17.5 -41.5z" />
    <glyph glyph-name="ae" unicode="&#xe6;" horiz-adv-x="872" 
d="M612 -13q-77 0 -138.5 39.5t-90.5 111.5q-14 -75 -60.5 -113t-118.5 -38q-37 0 -67.5 11.5t-52.5 32t-34.5 47.5t-12.5 59q0 65 49.5 102t127.5 54q71 16 103.5 28t44.5 28v18q0 21 -9 35.5t-24 23.5t-34.5 13t-40.5 4q-53 0 -95 -20.5t-79 -58.5v86q35 26 78.5 43.5
t106.5 17.5q52 0 97 -15.5t70 -58.5q34 36 79 55t95 19q46 0 87.5 -16.5t72.5 -49t49.5 -80t19.5 -110.5h-378v-6q0 -48 13.5 -83.5t37 -59t55 -35t67.5 -11.5q59 0 101.5 23t81.5 61v-87q-41 -37 -93 -53.5t-108 -16.5zM736 316q-6 64 -40.5 96t-92.5 32q-24 0 -47 -6
t-42 -21t-32.5 -39.5t-19.5 -61.5h274zM362 287l-135 -46q-45 -15 -69.5 -36.5t-24.5 -59.5q0 -44 27 -70t75 -26q24 0 47 10.5t40.5 30.5t28.5 50.5t11 70.5v76z" />
    <glyph glyph-name="ccedilla" unicode="&#xe7;" horiz-adv-x="464" 
d="M305 59q32 0 60.5 8t51.5 22v-76q-23 -12 -52 -19t-66 -7q-55 0 -102 19t-82 53.5t-55 82.5t-20 107q0 58 20 106.5t55 83t82 53.5t102 19q37 0 66 -7t52 -19v-76q-23 14 -51.5 22t-60.5 8q-35 0 -65.5 -12t-53.5 -35.5t-36.5 -59t-13.5 -83.5t13.5 -83.5t36.5 -59
t53.5 -35.5t65.5 -12zM177 -147q13 -6 28.5 -10t29.5 -4q22 0 41.5 7t19.5 25q0 15 -13 22.5t-31 7.5q-8 0 -19 -2t-19 -7l-30 17l58 94h53l-39 -62q15 3 30 3q36 0 56 -18.5t20 -49.5q0 -20 -9.5 -35t-25 -25.5t-35 -16t-38.5 -5.5q-20 0 -44 3.5t-49 15.5z" />
    <glyph glyph-name="egrave" unicode="&#xe8;" horiz-adv-x="550" 
d="M135 249q0 -48 13.5 -83.5t37 -59t55 -35.5t67.5 -12q59 0 101.5 22.5t81.5 60.5v-85q-41 -37 -93 -53.5t-108 -16.5q-51 0 -96.5 18.5t-79.5 52.5t-54 82t-20 108q0 62 20 111t53.5 82.5t78 51.5t92.5 18q46 0 87.5 -16.5t72.5 -49t49.5 -80t19.5 -110.5h-378v-6z
M281 444q-24 0 -47 -6t-42 -21t-32.5 -39.5t-19.5 -61.5h274q-6 64 -40.5 96t-92.5 32zM122 750h116l91 -136h-67z" />
    <glyph glyph-name="eacute" unicode="&#xe9;" horiz-adv-x="550" 
d="M135 249q0 -48 13.5 -83.5t37 -59t55 -35.5t67.5 -12q59 0 101.5 22.5t81.5 60.5v-85q-41 -37 -93 -53.5t-108 -16.5q-51 0 -96.5 18.5t-79.5 52.5t-54 82t-20 108q0 62 20 111t53.5 82.5t78 51.5t92.5 18q46 0 87.5 -16.5t72.5 -49t49.5 -80t19.5 -110.5h-378v-6z
M281 444q-24 0 -47 -6t-42 -21t-32.5 -39.5t-19.5 -61.5h274q-6 64 -40.5 96t-92.5 32zM252 614l91 136h116l-140 -136h-67z" />
    <glyph glyph-name="ecircumflex" unicode="&#xea;" horiz-adv-x="550" 
d="M135 249q0 -48 13.5 -83.5t37 -59t55 -35.5t67.5 -12q59 0 101.5 22.5t81.5 60.5v-85q-41 -37 -93 -53.5t-108 -16.5q-51 0 -96.5 18.5t-79.5 52.5t-54 82t-20 108q0 62 20 111t53.5 82.5t78 51.5t92.5 18q46 0 87.5 -16.5t72.5 -49t49.5 -80t19.5 -110.5h-378v-6z
M281 444q-24 0 -47 -6t-42 -21t-32.5 -39.5t-19.5 -61.5h274q-6 64 -40.5 96t-92.5 32zM466 614h-86l-99 84l-99 -84h-86l142 136h89z" />
    <glyph glyph-name="edieresis" unicode="&#xeb;" horiz-adv-x="550" 
d="M135 249q0 -48 13.5 -83.5t37 -59t55 -35.5t67.5 -12q59 0 101.5 22.5t81.5 60.5v-85q-41 -37 -93 -53.5t-108 -16.5q-51 0 -96.5 18.5t-79.5 52.5t-54 82t-20 108q0 62 20 111t53.5 82.5t78 51.5t92.5 18q46 0 87.5 -16.5t72.5 -49t49.5 -80t19.5 -110.5h-378v-6z
M281 444q-24 0 -47 -6t-42 -21t-32.5 -39.5t-19.5 -61.5h274q-6 64 -40.5 96t-92.5 32zM98 705q0 26 18.5 44t44.5 18t44.5 -18t18.5 -44t-18.5 -44.5t-44.5 -18.5t-44.5 18.5t-18.5 44.5zM338 705q0 26 18.5 44t44.5 18t44.5 -18t18.5 -44t-18.5 -44.5t-44.5 -18.5
t-44.5 18.5t-18.5 44.5z" />
    <glyph glyph-name="igrave" unicode="&#xec;" 
d="M77 500h90v-500h-90v500zM-43 750h116l91 -136h-67z" />
    <glyph glyph-name="iacute" unicode="&#xed;" 
d="M77 500h90v-500h-90v500zM78 614l91 136h116l-140 -136h-67z" />
    <glyph glyph-name="icircumflex" unicode="&#xee;" 
d="M77 500h90v-500h-90v500zM308 614h-86l-99 84l-99 -84h-86l142 136h89z" />
    <glyph glyph-name="idieresis" unicode="&#xef;" 
d="M77 500h90v-500h-90v500zM-60 705q0 26 18.5 44t44.5 18t44.5 -18t18.5 -44t-18.5 -44.5t-44.5 -18.5t-44.5 18.5t-18.5 44.5zM180 705q0 26 18.5 44t44.5 18t44.5 -18t18.5 -44t-18.5 -44.5t-44.5 -18.5t-44.5 18.5t-18.5 44.5z" />
    <glyph glyph-name="eth" unicode="&#xf0;" horiz-adv-x="592" 
d="M380 635q50 -68 82.5 -121t51 -97.5t26 -82.5t7.5 -76q0 -56 -19.5 -105.5t-54 -86.5t-82.5 -58t-106 -21q-51 0 -96 17.5t-78 51t-52 82.5t-19 111q0 57 17.5 105t48 83t71.5 54.5t88 19.5q45 0 81.5 -24.5t70.5 -71.5h3q-17 35 -46.5 80t-74.5 105l-97 -42l-17 38
l87 38q-20 26 -42.5 55t-48.5 61h111q17 -21 32.5 -41t29.5 -39l94 41l17 -39zM287 57q36 0 66 14.5t51.5 41t34 64t12.5 83.5q0 41 -10.5 75t-30 58t-47 37.5t-61.5 13.5q-38 0 -68 -14t-51.5 -40t-33 -62t-11.5 -79q0 -42 10 -77.5t29 -61t46.5 -39.5t63.5 -14z" />
    <glyph glyph-name="ntilde" unicode="&#xf1;" horiz-adv-x="563" 
d="M329 511q80 0 124 -44t44 -138v-329h-90v311q0 68 -30.5 100.5t-83.5 32.5q-27 0 -50 -7.5t-40 -23t-26.5 -39.5t-9.5 -56v-318h-90v500h90v-107q17 54 59 86t103 32zM476 750q-11 -62 -43.5 -87.5t-72.5 -25.5q-23 0 -41 7.5t-34 16.5t-30.5 16.5t-30.5 7.5
q-40 0 -45 -44h-71q10 58 41 85t74 27q23 0 40.5 -7.5t32.5 -16.5t30 -16.5t32 -7.5q19 0 31.5 11t15.5 34h71z" />
    <glyph glyph-name="ograve" unicode="&#xf2;" horiz-adv-x="608" 
d="M304 -13q-60 0 -108.5 21t-83 56.5t-53.5 83t-19 101.5t19 101.5t53.5 83t83 56.5t108.5 21t108.5 -21t83 -56.5t53.5 -83t19 -101.5t-19 -101.5t-53.5 -83t-83 -56.5t-108.5 -21zM304 440q-37 0 -68.5 -14t-54 -39t-35 -60t-12.5 -78t12.5 -78t35 -60t54 -39t68.5 -14
t68.5 14t54 39t35 60t12.5 78t-12.5 78t-35 60t-54 39t-68.5 14zM129 750h116l91 -136h-67z" />
    <glyph glyph-name="oacute" unicode="&#xf3;" horiz-adv-x="608" 
d="M304 -13q-60 0 -108.5 21t-83 56.5t-53.5 83t-19 101.5t19 101.5t53.5 83t83 56.5t108.5 21t108.5 -21t83 -56.5t53.5 -83t19 -101.5t-19 -101.5t-53.5 -83t-83 -56.5t-108.5 -21zM304 440q-37 0 -68.5 -14t-54 -39t-35 -60t-12.5 -78t12.5 -78t35 -60t54 -39t68.5 -14
t68.5 14t54 39t35 60t12.5 78t-12.5 78t-35 60t-54 39t-68.5 14zM276 614l91 136h116l-140 -136h-67z" />
    <glyph glyph-name="ocircumflex" unicode="&#xf4;" horiz-adv-x="608" 
d="M489 614h-86l-99 84l-99 -84h-86l142 136h89zM304 -13q-60 0 -108.5 21t-83 56.5t-53.5 83t-19 101.5t19 101.5t53.5 83t83 56.5t108.5 21t108.5 -21t83 -56.5t53.5 -83t19 -101.5t-19 -101.5t-53.5 -83t-83 -56.5t-108.5 -21zM304 440q-37 0 -68.5 -14t-54 -39t-35 -60
t-12.5 -78t12.5 -78t35 -60t54 -39t68.5 -14t68.5 14t54 39t35 60t12.5 78t-12.5 78t-35 60t-54 39t-68.5 14z" />
    <glyph glyph-name="otilde" unicode="&#xf5;" horiz-adv-x="608" 
d="M304 -13q-60 0 -108.5 21t-83 56.5t-53.5 83t-19 101.5t19 101.5t53.5 83t83 56.5t108.5 21t108.5 -21t83 -56.5t53.5 -83t19 -101.5t-19 -101.5t-53.5 -83t-83 -56.5t-108.5 -21zM304 440q-37 0 -68.5 -14t-54 -39t-35 -60t-12.5 -78t12.5 -78t35 -60t54 -39t68.5 -14
t68.5 14t54 39t35 60t12.5 78t-12.5 78t-35 60t-54 39t-68.5 14zM491 750q-11 -62 -43.5 -87.5t-72.5 -25.5q-23 0 -41 7.5t-34 16.5t-30.5 16.5t-30.5 7.5q-40 0 -45 -44h-71q10 58 41 85t74 27q23 0 40.5 -7.5t32.5 -16.5t30 -16.5t32 -7.5q19 0 31.5 11t15.5 34h71z" />
    <glyph glyph-name="odieresis" unicode="&#xf6;" horiz-adv-x="608" 
d="M121 705q0 26 18.5 44t44.5 18t44.5 -18t18.5 -44t-18.5 -44.5t-44.5 -18.5t-44.5 18.5t-18.5 44.5zM361 705q0 26 18.5 44t44.5 18t44.5 -18t18.5 -44t-18.5 -44.5t-44.5 -18.5t-44.5 18.5t-18.5 44.5zM304 -13q-60 0 -108.5 21t-83 56.5t-53.5 83t-19 101.5t19 101.5
t53.5 83t83 56.5t108.5 21t108.5 -21t83 -56.5t53.5 -83t19 -101.5t-19 -101.5t-53.5 -83t-83 -56.5t-108.5 -21zM304 440q-37 0 -68.5 -14t-54 -39t-35 -60t-12.5 -78t12.5 -78t35 -60t54 -39t68.5 -14t68.5 14t54 39t35 60t12.5 78t-12.5 78t-35 60t-54 39t-68.5 14z" />
    <glyph glyph-name="oslash" unicode="&#xf8;" horiz-adv-x="608" 
d="M577 523l-82 -89q35 -35 54 -83t19 -102t-19 -101.5t-53.5 -83t-83 -56.5t-108.5 -21q-51 0 -93.5 15t-76.5 42l-70 -76l-35 33l71 77q-29 35 -44.5 78.5t-15.5 92.5q0 54 19 101.5t53.5 83t83 56.5t108.5 21q45 0 83.5 -12t70.5 -33l82 89zM134 249q0 -60 25 -107
l245 266q-20 15 -45.5 23.5t-54.5 8.5q-37 0 -68.5 -14t-54 -39t-35 -60t-12.5 -78zM474 249q0 37 -9.5 68t-26.5 56l-249 -270q47 -45 115 -45q37 0 68.5 14t54 39t35 60t12.5 78z" />
    <glyph glyph-name="ugrave" unicode="&#xf9;" horiz-adv-x="559" 
d="M392 500h90v-500h-90v105q-17 -54 -59 -86t-103 -32q-77 0 -120.5 44t-43.5 138v331h90v-313q0 -68 30 -100.5t80 -32.5q53 0 89.5 30.5t36.5 95.5v320zM122 750h116l91 -136h-67z" />
    <glyph glyph-name="uacute" unicode="&#xfa;" horiz-adv-x="559" 
d="M392 500h90v-500h-90v105q-17 -54 -59 -86t-103 -32q-77 0 -120.5 44t-43.5 138v331h90v-313q0 -68 30 -100.5t80 -32.5q53 0 89.5 30.5t36.5 95.5v320zM235 614l91 136h116l-140 -136h-67z" />
    <glyph glyph-name="ucircumflex" unicode="&#xfb;" horiz-adv-x="559" 
d="M392 500h90v-500h-90v105q-17 -54 -59 -86t-103 -32q-77 0 -120.5 44t-43.5 138v331h90v-313q0 -68 30 -100.5t80 -32.5q53 0 89.5 30.5t36.5 95.5v320zM460 614h-86l-99 84l-99 -84h-86l142 136h89z" />
    <glyph glyph-name="udieresis" unicode="&#xfc;" horiz-adv-x="559" 
d="M392 500h90v-500h-90v105q-17 -54 -59 -86t-103 -32q-77 0 -120.5 44t-43.5 138v331h90v-313q0 -68 30 -100.5t80 -32.5q53 0 89.5 30.5t36.5 95.5v320zM89 705q0 26 18.5 44t44.5 18t44.5 -18t18.5 -44t-18.5 -44.5t-44.5 -18.5t-44.5 18.5t-18.5 44.5zM329 705
q0 26 18.5 44t44.5 18t44.5 -18t18.5 -44t-18.5 -44.5t-44.5 -18.5t-44.5 18.5t-18.5 44.5z" />
    <glyph glyph-name="yacute" unicode="&#xfd;" horiz-adv-x="535" 
d="M84 -200l139 269l-220 431h98l172 -342l173 342h86l-360 -700h-88zM244 614l91 136h116l-140 -136h-67z" />
    <glyph glyph-name="thorn" unicode="&#xfe;" horiz-adv-x="605" 
d="M340 511q48 0 89.5 -19.5t71.5 -54.5t47 -83t17 -105t-17 -105t-47 -83t-71.5 -54.5t-89.5 -19.5q-33 0 -60.5 10t-50 26.5t-38 37t-24.5 40.5v-301h-90v950h90v-353q9 20 24.5 40.5t38 37t50 26.5t60.5 10zM303 54q37 0 67.5 14t52 40t33 61.5t11.5 79.5q0 43 -11.5 79
t-33 62t-52 40t-67.5 14q-26 0 -50 -8t-43.5 -23t-31 -35.5t-11.5 -45.5v-166q0 -25 11.5 -45.5t31 -35.5t43.5 -23t50 -8z" />
    <glyph glyph-name="ydieresis" unicode="&#xff;" horiz-adv-x="535" 
d="M84 -200l139 269l-220 431h98l172 -342l173 342h86l-360 -700h-88zM97 705q0 26 18.5 44t44.5 18t44.5 -18t18.5 -44t-18.5 -44.5t-44.5 -18.5t-44.5 18.5t-18.5 44.5zM337 705q0 26 18.5 44t44.5 18t44.5 -18t18.5 -44t-18.5 -44.5t-44.5 -18.5t-44.5 18.5t-18.5 44.5z
" />
    <glyph glyph-name="Abreve" unicode="&#x102;" horiz-adv-x="732" 
d="M279 950q3 -48 23 -70.5t64 -22.5t64 22.5t23 70.5h71q-2 -31 -11.5 -57.5t-28 -45.5t-47.5 -30t-71 -11t-71 11t-47.5 30t-28 45.5t-11.5 57.5h71zM613 0l-99 227h-303l-99 -227h-92l345 784l347 -784h-99zM247 308h232l-116 266z" />
    <glyph glyph-name="Amacron" unicode="&#x100;" horiz-adv-x="732" 
d="M216 849v69h300v-69h-300zM613 0l-99 227h-303l-99 -227h-92l345 784l347 -784h-99zM247 308h232l-116 266z" />
    <glyph glyph-name="Aogonek" unicode="&#x104;" horiz-adv-x="732" 
d="M672 -125q21 0 41 9v-61q-25 -11 -60 -11q-20 0 -40 5t-35.5 16t-25.5 29t-10 45q0 26 17 49.5t54 43.5l-99 227h-303l-99 -227h-92l345 784l347 -784q-38 -19 -62.5 -39.5t-24.5 -40.5q0 -24 14 -34.5t33 -10.5zM247 308h232l-116 266z" />
    <glyph glyph-name="Cacute" unicode="&#x106;" horiz-adv-x="744" 
d="M456 767q60 0 119.5 -14.5t107.5 -47.5v-98q-45 40 -106.5 59t-126.5 19q-58 0 -112.5 -19t-96.5 -57t-67 -96t-25 -136t25 -136t67 -96t96.5 -57t112.5 -19q65 0 126.5 19t106.5 59v-98q-48 -33 -108 -47.5t-120 -14.5q-76 0 -149 25t-130 74t-91.5 122t-34.5 169
t35 169t92.5 122t130.5 74t148 25zM382 814l101 136h136l-170 -136h-67z" />
    <glyph glyph-name="Ccaron" unicode="&#x10c;" horiz-adv-x="744" 
d="M456 767q60 0 119.5 -14.5t107.5 -47.5v-98q-45 40 -106.5 59t-126.5 19q-58 0 -112.5 -19t-96.5 -57t-67 -96t-25 -136t25 -136t67 -96t96.5 -57t112.5 -19q65 0 126.5 19t106.5 59v-98q-48 -33 -108 -47.5t-120 -14.5q-76 0 -149 25t-130 74t-91.5 122t-34.5 169
t35 169t92.5 122t130.5 74t148 25zM377 814l-152 136h86l109 -84l109 84h86l-149 -136h-89z" />
    <glyph glyph-name="Ccircumflex" unicode="&#x108;" horiz-adv-x="744" 
d="M456 767q60 0 119.5 -14.5t107.5 -47.5v-98q-45 40 -106.5 59t-126.5 19q-58 0 -112.5 -19t-96.5 -57t-67 -96t-25 -136t25 -136t67 -96t96.5 -57t112.5 -19q65 0 126.5 19t106.5 59v-98q-48 -33 -108 -47.5t-120 -14.5q-76 0 -149 25t-130 74t-91.5 122t-34.5 169
t35 169t92.5 122t130.5 74t148 25zM609 814h-86l-109 84l-109 -84h-86l152 136h89z" />
    <glyph glyph-name="Cdotaccent" unicode="&#x10a;" horiz-adv-x="744" 
d="M456 767q60 0 119.5 -14.5t107.5 -47.5v-98q-45 40 -106.5 59t-126.5 19q-58 0 -112.5 -19t-96.5 -57t-67 -96t-25 -136t25 -136t67 -96t96.5 -57t112.5 -19q65 0 126.5 19t106.5 59v-98q-48 -33 -108 -47.5t-120 -14.5q-76 0 -149 25t-130 74t-91.5 122t-34.5 169
t35 169t92.5 122t130.5 74t148 25zM367 882q0 26 18.5 44t44.5 18t44.5 -18t18.5 -44t-18.5 -44.5t-44.5 -18.5t-44.5 18.5t-18.5 44.5z" />
    <glyph glyph-name="Dcaron" unicode="&#x10e;" horiz-adv-x="783" 
d="M90 0v750h232q93 0 169.5 -28.5t131 -78.5t85 -119t30.5 -151q0 -81 -30.5 -149.5t-86 -118t-132 -77.5t-167.5 -28h-232zM640 375q0 64 -22.5 118t-63.5 93t-100 61t-132 22h-140v-588h140q73 0 131.5 22t100 61t64 93t22.5 118zM316 814l-152 136h86l109 -84l109 84h86
l-149 -136h-89z" />
    <glyph glyph-name="Dcroat" unicode="&#x110;" horiz-adv-x="783" 
d="M322 750q93 0 169.5 -28.5t131 -78.5t85 -119t30.5 -151q0 -81 -30.5 -149.5t-86 -118t-132 -77.5t-167.5 -28h-232v355h-80v81h80v314h232zM322 81q73 0 131.5 22t100 61t64 93t22.5 118t-22.5 118t-63.5 93t-100 61t-132 22h-140v-233h171v-81h-171v-274h140z" />
    <glyph glyph-name="Ebreve" unicode="&#x114;" horiz-adv-x="570" 
d="M182 436h303v-81h-303v-274h313v-81h-405v750h405v-81h-313v-233zM213 950q3 -48 23 -70.5t64 -22.5t64 22.5t23 70.5h71q-2 -31 -11.5 -57.5t-28 -45.5t-47.5 -30t-71 -11t-71 11t-47.5 30t-28 45.5t-11.5 57.5h71z" />
    <glyph glyph-name="Ecaron" unicode="&#x11a;" horiz-adv-x="570" 
d="M182 436h303v-81h-303v-274h313v-81h-405v750h405v-81h-313v-233zM255 814l-152 136h86l109 -84l109 84h86l-149 -136h-89z" />
    <glyph glyph-name="Emacron" unicode="&#x112;" horiz-adv-x="570" 
d="M182 436h303v-81h-303v-274h313v-81h-405v750h405v-81h-313v-233zM147 849v69h300v-69h-300z" />
    <glyph glyph-name="Eogonek" unicode="&#x118;" horiz-adv-x="570" 
d="M182 436h303v-81h-303v-274h313v-81h-405v750h405v-81h-313v-233zM490 0q-38 -19 -60.5 -39.5t-22.5 -40.5q0 -24 14 -34.5t33 -10.5q21 0 41 9v-61q-25 -11 -60 -11q-20 0 -40 5t-35.5 16t-25.5 29t-10 45q0 52 74 93h92z" />
    <glyph glyph-name="Edotaccent" unicode="&#x116;" horiz-adv-x="570" 
d="M182 436h303v-81h-303v-274h313v-81h-405v750h405v-81h-313v-233zM235 882q0 26 18.5 44t44.5 18t44.5 -18t18.5 -44t-18.5 -44.5t-44.5 -18.5t-44.5 18.5t-18.5 44.5z" />
    <glyph glyph-name="Gbreve" unicode="&#x11e;" horiz-adv-x="867" 
d="M430 -13q-82 0 -151.5 30t-120.5 82.5t-79.5 124.5t-28.5 155t31 154t84 123t124 81.5t151 29.5q57 0 109.5 -16.5t96.5 -47.5t77 -74t51 -95h-104q-14 35 -37.5 63t-53.5 47.5t-65.5 30t-73.5 10.5q-60 0 -112.5 -22t-92.5 -62.5t-63 -96.5t-23 -125q0 -68 20.5 -125
t59 -98t92.5 -64t121 -23q54 0 99.5 16t77.5 45.5t50 72t18 96.5v20h-201v81h291v-400h-60l-23 134q-30 -68 -99 -107.5t-165 -39.5zM346 950q3 -48 23 -70.5t64 -22.5t64 22.5t23 70.5h71q-2 -31 -11.5 -57.5t-28 -45.5t-47.5 -30t-71 -11t-71 11t-47.5 30t-28 45.5
t-11.5 57.5h71z" />
    <glyph glyph-name="Gcircumflex" unicode="&#x11c;" horiz-adv-x="867" 
d="M430 -13q-82 0 -151.5 30t-120.5 82.5t-79.5 124.5t-28.5 155t31 154t84 123t124 81.5t151 29.5q57 0 109.5 -16.5t96.5 -47.5t77 -74t51 -95h-104q-14 35 -37.5 63t-53.5 47.5t-65.5 30t-73.5 10.5q-60 0 -112.5 -22t-92.5 -62.5t-63 -96.5t-23 -125q0 -68 20.5 -125
t59 -98t92.5 -64t121 -23q54 0 99.5 16t77.5 45.5t50 72t18 96.5v20h-201v81h291v-400h-60l-23 134q-30 -68 -99 -107.5t-165 -39.5zM626 814h-86l-109 84l-109 -84h-86l152 136h89z" />
    <glyph glyph-name="uni0122" unicode="&#x122;" horiz-adv-x="867" 
d="M430 -13q-82 0 -151.5 30t-120.5 82.5t-79.5 124.5t-28.5 155t31 154t84 123t124 81.5t151 29.5q57 0 109.5 -16.5t96.5 -47.5t77 -74t51 -95h-104q-14 35 -37.5 63t-53.5 47.5t-65.5 30t-73.5 10.5q-60 0 -112.5 -22t-92.5 -62.5t-63 -96.5t-23 -125q0 -68 20.5 -125
t59 -98t92.5 -64t121 -23q54 0 99.5 16t77.5 45.5t50 72t18 96.5v20h-201v81h291v-400h-60l-23 134q-30 -68 -99 -107.5t-165 -39.5zM388 -56h95v-95l-44 -90h-54l39 96h-36v89z" />
    <glyph glyph-name="Gdotaccent" unicode="&#x120;" horiz-adv-x="867" 
d="M430 -13q-82 0 -151.5 30t-120.5 82.5t-79.5 124.5t-28.5 155t31 154t84 123t124 81.5t151 29.5q57 0 109.5 -16.5t96.5 -47.5t77 -74t51 -95h-104q-14 35 -37.5 63t-53.5 47.5t-65.5 30t-73.5 10.5q-60 0 -112.5 -22t-92.5 -62.5t-63 -96.5t-23 -125q0 -68 20.5 -125
t59 -98t92.5 -64t121 -23q54 0 99.5 16t77.5 45.5t50 72t18 96.5v20h-201v81h291v-400h-60l-23 134q-30 -68 -99 -107.5t-165 -39.5zM366 882q0 26 18.5 44t44.5 18t44.5 -18t18.5 -44t-18.5 -44.5t-44.5 -18.5t-44.5 18.5t-18.5 44.5z" />
    <glyph glyph-name="Hbar" unicode="&#x126;" horiz-adv-x="813" 
d="M793 636v-81h-80v-555h-92v355h-429v-355h-92v555h-80v81h80v114h92v-114h429v114h92v-114h80zM621 436v119h-429v-119h429z" />
    <glyph glyph-name="Hcircumflex" unicode="&#x124;" horiz-adv-x="793" 
d="M592 814h-86l-109 84l-109 -84h-86l152 136h89zM703 0h-92v355h-429v-355h-92v750h92v-314h429v314h92v-750z" />
    <glyph glyph-name="Ibreve" unicode="&#x12c;" horiz-adv-x="272" 
d="M182 0h-92v750h92v-750zM50 950q3 -48 23 -70.5t64 -22.5t64 22.5t23 70.5h71q-2 -31 -11.5 -57.5t-28 -45.5t-47.5 -30t-71 -11t-71 11t-47.5 30t-28 45.5t-11.5 57.5h71z" />
    <glyph glyph-name="Idotaccent" unicode="&#x130;" horiz-adv-x="272" 
d="M182 0h-92v750h92v-750zM73 882q0 26 18.5 44t44.5 18t44.5 -18t18.5 -44t-18.5 -44.5t-44.5 -18.5t-44.5 18.5t-18.5 44.5z" />
    <glyph glyph-name="Imacron" unicode="&#x12a;" horiz-adv-x="272" 
d="M182 0h-92v750h92v-750zM-13 849v69h300v-69h-300z" />
    <glyph glyph-name="Iogonek" unicode="&#x12e;" horiz-adv-x="272" 
d="M182 0h-92v750h92v-750zM183 0q-38 -19 -60.5 -39.5t-22.5 -40.5q0 -24 14 -34.5t33 -10.5q21 0 41 9v-61q-25 -11 -60 -11q-20 0 -40 5t-35.5 16t-25.5 29t-10 45q0 52 74 93h92z" />
    <glyph glyph-name="Itilde" unicode="&#x128;" horiz-adv-x="272" 
d="M182 0h-92v750h92v-750zM321 939q-11 -62 -43.5 -87.5t-72.5 -25.5q-23 0 -41 7.5t-34 16t-30.5 16t-30.5 7.5q-40 0 -45 -44h-71q10 58 41 85t74 27q23 0 40.5 -7.5t32.5 -16t30 -16t32 -7.5q19 0 31.5 11t15.5 34h71z" />
    <glyph glyph-name="uni1ECA" unicode="&#x1eca;" horiz-adv-x="272" 
d="M182 0h-92v750h92v-750zM73 -148q0 26 18.5 44t44.5 18t44.5 -18t18.5 -44t-18.5 -44.5t-44.5 -18.5t-44.5 18.5t-18.5 44.5z" />
    <glyph glyph-name="Jcircumflex" unicode="&#x134;" horiz-adv-x="486" 
d="M309 750h92v-571q0 -45 -14.5 -81t-40 -60.5t-60 -37.5t-74.5 -13q-41 0 -75 13.5t-59 37.5t-40 58.5t-18 76.5h89q7 -62 34.5 -85t72.5 -23q18 0 35 5.5t29.5 19t20.5 36.5t8 57v567zM551 814h-86l-109 84l-109 -84h-86l152 136h89z" />
    <glyph glyph-name="uni0136" unicode="&#x136;" horiz-adv-x="679" 
d="M673 0h-131l-360 356v-356h-92v750h92v-376l357 376h106l-355 -373zM303 -56h95v-95l-44 -90h-54l39 96h-36v89z" />
    <glyph glyph-name="Lacute" unicode="&#x139;" horiz-adv-x="525" 
d="M182 81h313v-81h-405v750h92v-669zM112 814l101 136h136l-170 -136h-67z" />
    <glyph glyph-name="Lcaron" unicode="&#x13d;" horiz-adv-x="525" 
d="M182 81h313v-81h-405v750h92v-669zM330 580h-58l30 170h98z" />
    <glyph glyph-name="uni013B" unicode="&#x13b;" horiz-adv-x="525" 
d="M182 81h313v-81h-405v750h92v-669zM253 -56h95v-95l-44 -90h-54l39 96h-36v89z" />
    <glyph glyph-name="Ldot" unicode="&#x13f;" horiz-adv-x="525" 
d="M182 81h313v-81h-405v750h92v-669zM291 397q0 26 18.5 44t44.5 18t44.5 -18t18.5 -44t-18.5 -44.5t-44.5 -18.5t-44.5 18.5t-18.5 44.5z" />
    <glyph glyph-name="Lslash" unicode="&#x141;" horiz-adv-x="535" 
d="M192 81h313v-81h-405v260l-90 -62v86l90 62v404h92v-341l195 133v-86l-195 -133v-242z" />
    <glyph glyph-name="Eng" unicode="&#x14a;" horiz-adv-x="809" 
d="M547 -147q30 15 46.5 26t24.5 23t9.5 27t1.5 37v51l-447 584v-601h-92v750h75l462 -607v607h92v-785q0 -34 -4 -57.5t-18.5 -43t-43 -37.5t-77.5 -40z" />
    <glyph glyph-name="Nacute" unicode="&#x143;" horiz-adv-x="809" 
d="M627 750h92v-779l-537 630v-601h-92v750h75l462 -547v547zM382 814l101 136h136l-170 -136h-67z" />
    <glyph glyph-name="Ncaron" unicode="&#x147;" horiz-adv-x="809" 
d="M627 750h92v-779l-537 630v-601h-92v750h75l462 -547v547zM374 814l-152 136h86l109 -84l109 84h86l-149 -136h-89z" />
    <glyph glyph-name="uni0145" unicode="&#x145;" horiz-adv-x="809" 
d="M627 750h92v-779l-537 630v-601h-92v750h75l462 -547v547zM355 -56h95v-95l-44 -90h-54l39 96h-36v89z" />
    <glyph glyph-name="OE" unicode="&#x152;" horiz-adv-x="1209" 
d="M1134 669h-313v-233h303v-81h-303v-274h313v-81h-405v123q-51 -63 -125 -99.5t-165 -36.5q-82 0 -153 30.5t-123.5 83.5t-82.5 124t-30 152t30.5 152t83 124t123.5 83.5t153 30.5q91 0 164.5 -36t124.5 -99v118h405v-81zM439 67q63 0 116 24t91.5 66t60.5 98.5t22 121.5
t-21.5 121.5t-60 98.5t-91.5 66t-116 24t-116 -24t-91.5 -66t-60.5 -98.5t-22 -121.5t21.5 -121.5t60 -98.5t91.5 -66t116 -24z" />
    <glyph glyph-name="Obreve" unicode="&#x14e;" horiz-adv-x="879" 
d="M353 950q3 -48 23 -70.5t64 -22.5t64 22.5t23 70.5h71q-2 -31 -11.5 -57.5t-28 -45.5t-47.5 -30t-71 -11t-71 11t-47.5 30t-28 45.5t-11.5 57.5h71zM440 767q82 0 153 -30t123.5 -82.5t82.5 -124t30 -153.5t-30.5 -153.5t-83 -124t-123.5 -82.5t-153 -30t-153 30
t-123.5 82.5t-82.5 124t-30 153.5t30.5 153.5t83 124t123.5 82.5t153 30zM439 69q63 0 116.5 23.5t92.5 64.5t61 97.5t22 122.5t-22 122.5t-61 97.5t-92 64.5t-116 23.5t-116.5 -23.5t-92.5 -64.5t-61 -97.5t-22 -122.5t22 -122.5t61 -97.5t92 -64.5t116 -23.5z" />
    <glyph glyph-name="Ohungarumlaut" unicode="&#x150;" horiz-adv-x="879" 
d="M440 767q82 0 153 -30t123.5 -82.5t82.5 -124t30 -153.5t-30.5 -153.5t-83 -124t-123.5 -82.5t-153 -30t-153 30t-123.5 82.5t-82.5 124t-30 153.5t30.5 153.5t83 124t123.5 82.5t153 30zM439 69q63 0 116.5 23.5t92.5 64.5t61 97.5t22 122.5t-22 122.5t-61 97.5
t-92 64.5t-116 23.5t-116.5 -23.5t-92.5 -64.5t-61 -97.5t-22 -122.5t22 -122.5t61 -97.5t92 -64.5t116 -23.5zM314 814l101 136h136l-170 -136h-67zM509 814l101 136h136l-170 -136h-67z" />
    <glyph glyph-name="Omacron" unicode="&#x14c;" horiz-adv-x="879" 
d="M290 849v69h300v-69h-300zM440 767q82 0 153 -30t123.5 -82.5t82.5 -124t30 -153.5t-30.5 -153.5t-83 -124t-123.5 -82.5t-153 -30t-153 30t-123.5 82.5t-82.5 124t-30 153.5t30.5 153.5t83 124t123.5 82.5t153 30zM439 69q63 0 116.5 23.5t92.5 64.5t61 97.5t22 122.5
t-22 122.5t-61 97.5t-92 64.5t-116 23.5t-116.5 -23.5t-92.5 -64.5t-61 -97.5t-22 -122.5t22 -122.5t61 -97.5t92 -64.5t116 -23.5z" />
    <glyph glyph-name="uni1ECC" unicode="&#x1ecc;" horiz-adv-x="879" 
d="M376 -148q0 26 18.5 44t44.5 18t44.5 -18t18.5 -44t-18.5 -44.5t-44.5 -18.5t-44.5 18.5t-18.5 44.5zM440 767q82 0 153 -30t123.5 -82.5t82.5 -124t30 -153.5t-30.5 -153.5t-83 -124t-123.5 -82.5t-153 -30t-153 30t-123.5 82.5t-82.5 124t-30 153.5t30.5 153.5t83 124
t123.5 82.5t153 30zM439 69q63 0 116.5 23.5t92.5 64.5t61 97.5t22 122.5t-22 122.5t-61 97.5t-92 64.5t-116 23.5t-116.5 -23.5t-92.5 -64.5t-61 -97.5t-22 -122.5t22 -122.5t61 -97.5t92 -64.5t116 -23.5z" />
    <glyph glyph-name="Racute" unicode="&#x154;" horiz-adv-x="645" 
d="M645 0h-116l-266 331h-81v-331h-92v750h165q72 0 121.5 -18t80.5 -47t45 -67t14 -78q0 -31 -9 -60.5t-27.5 -54.5t-47 -44.5t-67.5 -30.5zM182 412h72q75 0 120.5 30.5t45.5 97.5t-46 98t-120 31h-72v-257zM232 814l101 136h136l-170 -136h-67z" />
    <glyph glyph-name="Rcaron" unicode="&#x158;" horiz-adv-x="645" 
d="M645 0h-116l-266 331h-81v-331h-92v750h165q72 0 121.5 -18t80.5 -47t45 -67t14 -78q0 -31 -9 -60.5t-27.5 -54.5t-47 -44.5t-67.5 -30.5zM182 412h72q75 0 120.5 30.5t45.5 97.5t-46 98t-120 31h-72v-257zM235 814l-152 136h86l109 -84l109 84h86l-149 -136h-89z" />
    <glyph glyph-name="uni0156" unicode="&#x156;" horiz-adv-x="645" 
d="M645 0h-116l-266 331h-81v-331h-92v750h165q72 0 121.5 -18t80.5 -47t45 -67t14 -78q0 -31 -9 -60.5t-27.5 -54.5t-47 -44.5t-67.5 -30.5zM182 412h72q75 0 120.5 30.5t45.5 97.5t-46 98t-120 31h-72v-257zM303 -56h95v-95l-44 -90h-54l39 96h-36v89z" />
    <glyph glyph-name="Sacute" unicode="&#x15a;" horiz-adv-x="618" 
d="M553 208q0 -50 -19 -90.5t-52 -69.5t-77.5 -45t-96.5 -16q-53 0 -97.5 16t-77.5 46t-53 71.5t-25 92.5h100q9 -72 50.5 -108.5t105.5 -36.5q31 0 58 8t46.5 23.5t31 39t11.5 55.5q0 30 -11.5 53t-31.5 40t-46.5 30.5t-57.5 25.5l-62 24q-33 12 -64 30.5t-55 43.5
t-39 57.5t-15 73.5q0 43 17.5 79t48 62t72.5 40t92 14q48 0 87 -14.5t68.5 -41t49 -63.5t28.5 -81h-99q-16 62 -52 89t-90 27q-57 0 -92 -27.5t-35 -71.5q0 -51 31 -80t90 -52l62 -24q36 -14 71.5 -32t64 -44t46 -61t17.5 -83zM264 814l101 136h136l-170 -136h-67z" />
    <glyph glyph-name="Scaron" unicode="&#x160;" horiz-adv-x="618" 
d="M553 208q0 -50 -19 -90.5t-52 -69.5t-77.5 -45t-96.5 -16q-53 0 -97.5 16t-77.5 46t-53 71.5t-25 92.5h100q9 -72 50.5 -108.5t105.5 -36.5q31 0 58 8t46.5 23.5t31 39t11.5 55.5q0 30 -11.5 53t-31.5 40t-46.5 30.5t-57.5 25.5l-62 24q-33 12 -64 30.5t-55 43.5
t-39 57.5t-15 73.5q0 43 17.5 79t48 62t72.5 40t92 14q48 0 87 -14.5t68.5 -41t49 -63.5t28.5 -81h-99q-16 62 -52 89t-90 27q-57 0 -92 -27.5t-35 -71.5q0 -51 31 -80t90 -52l62 -24q36 -14 71.5 -32t64 -44t46 -61t17.5 -83zM265 814l-152 136h86l109 -84l109 84h86
l-149 -136h-89z" />
    <glyph glyph-name="Scedilla" unicode="&#x15e;" horiz-adv-x="618" 
d="M553 208q0 -50 -19 -90.5t-52 -69.5t-77.5 -45t-96.5 -16q-53 0 -97.5 16t-77.5 46t-53 71.5t-25 92.5h100q9 -72 50.5 -108.5t105.5 -36.5q31 0 58 8t46.5 23.5t31 39t11.5 55.5q0 30 -11.5 53t-31.5 40t-46.5 30.5t-57.5 25.5l-62 24q-33 12 -64 30.5t-55 43.5
t-39 57.5t-15 73.5q0 43 17.5 79t48 62t72.5 40t92 14q48 0 87 -14.5t68.5 -41t49 -63.5t28.5 -81h-99q-16 62 -52 89t-90 27q-57 0 -92 -27.5t-35 -71.5q0 -51 31 -80t90 -52l62 -24q36 -14 71.5 -32t64 -44t46 -61t17.5 -83zM221 -147q13 -6 28.5 -10t29.5 -4q22 0 41.5 7
t19.5 25q0 15 -13 22.5t-31 7.5q-8 0 -19 -2t-19 -7l-30 17l58 94h53l-39 -62q15 3 30 3q36 0 56 -18.5t20 -49.5q0 -20 -9.5 -35t-25 -25.5t-35 -16t-38.5 -5.5q-20 0 -44 3.5t-49 15.5z" />
    <glyph glyph-name="Scircumflex" unicode="&#x15c;" horiz-adv-x="618" 
d="M553 208q0 -50 -19 -90.5t-52 -69.5t-77.5 -45t-96.5 -16q-53 0 -97.5 16t-77.5 46t-53 71.5t-25 92.5h100q9 -72 50.5 -108.5t105.5 -36.5q31 0 58 8t46.5 23.5t31 39t11.5 55.5q0 30 -11.5 53t-31.5 40t-46.5 30.5t-57.5 25.5l-62 24q-33 12 -64 30.5t-55 43.5
t-39 57.5t-15 73.5q0 43 17.5 79t48 62t72.5 40t92 14q48 0 87 -14.5t68.5 -41t49 -63.5t28.5 -81h-99q-16 62 -52 89t-90 27q-57 0 -92 -27.5t-35 -71.5q0 -51 31 -80t90 -52l62 -24q36 -14 71.5 -32t64 -44t46 -61t17.5 -83zM499 814h-86l-109 84l-109 -84h-86l152 136h89
z" />
    <glyph glyph-name="uni0218" unicode="&#x218;" horiz-adv-x="618" 
d="M553 208q0 -50 -19 -90.5t-52 -69.5t-77.5 -45t-96.5 -16q-53 0 -97.5 16t-77.5 46t-53 71.5t-25 92.5h100q9 -72 50.5 -108.5t105.5 -36.5q31 0 58 8t46.5 23.5t31 39t11.5 55.5q0 30 -11.5 53t-31.5 40t-46.5 30.5t-57.5 25.5l-62 24q-33 12 -64 30.5t-55 43.5
t-39 57.5t-15 73.5q0 43 17.5 79t48 62t72.5 40t92 14q48 0 87 -14.5t68.5 -41t49 -63.5t28.5 -81h-99q-16 62 -52 89t-90 27q-57 0 -92 -27.5t-35 -71.5q0 -51 31 -80t90 -52l62 -24q36 -14 71.5 -32t64 -44t46 -61t17.5 -83zM258 -56h95v-95l-44 -90h-54l39 96h-36v89z
" />
    <glyph glyph-name="Tbar" unicode="&#x166;" horiz-adv-x="610" 
d="M600 669h-249v-233h200v-81h-200v-355h-92v355h-200v81h200v233h-249v81h590v-81z" />
    <glyph glyph-name="Tcaron" unicode="&#x164;" horiz-adv-x="610" 
d="M262 814l-152 136h86l109 -84l109 84h86l-149 -136h-89zM259 0v669h-249v81h590v-81h-249v-669h-92z" />
    <glyph glyph-name="uni0162" unicode="&#x162;" horiz-adv-x="610" 
d="M259 0v669h-249v81h590v-81h-249v-669h-92zM256 -56h95v-95l-44 -90h-54l39 96h-36v89z" />
    <glyph glyph-name="uni021A" unicode="&#x21a;" horiz-adv-x="610" 
d="M259 0v669h-249v81h590v-81h-249v-669h-92zM256 -56h95v-95l-44 -90h-54l39 96h-36v89z" />
    <glyph glyph-name="Ubreve" unicode="&#x16c;" horiz-adv-x="756" 
d="M291 950q3 -48 23 -70.5t64 -22.5t64 22.5t23 70.5h71q-2 -31 -11.5 -57.5t-28 -45.5t-47.5 -30t-71 -11t-71 11t-47.5 30t-28 45.5t-11.5 57.5h71zM85 750h92v-493q0 -46 15.5 -81t42.5 -58.5t63.5 -35.5t79.5 -12t79.5 12t63.5 35.5t42.5 58.5t15.5 81v493h92v-485
q0 -65 -21 -116.5t-59.5 -87.5t-92.5 -55t-120 -19t-120 19t-92.5 55t-59.5 87.5t-21 116.5v485z" />
    <glyph glyph-name="Uhungarumlaut" unicode="&#x170;" horiz-adv-x="756" 
d="M85 750h92v-493q0 -46 15.5 -81t42.5 -58.5t63.5 -35.5t79.5 -12t79.5 12t63.5 35.5t42.5 58.5t15.5 81v493h92v-485q0 -65 -21 -116.5t-59.5 -87.5t-92.5 -55t-120 -19t-120 19t-92.5 55t-59.5 87.5t-21 116.5v485zM242 814l101 136h136l-170 -136h-67zM437 814l101 136
h136l-170 -136h-67z" />
    <glyph glyph-name="Umacron" unicode="&#x16a;" horiz-adv-x="756" 
d="M228 849v69h300v-69h-300zM85 750h92v-493q0 -46 15.5 -81t42.5 -58.5t63.5 -35.5t79.5 -12t79.5 12t63.5 35.5t42.5 58.5t15.5 81v493h92v-485q0 -65 -21 -116.5t-59.5 -87.5t-92.5 -55t-120 -19t-120 19t-92.5 55t-59.5 87.5t-21 116.5v485z" />
    <glyph glyph-name="Uogonek" unicode="&#x172;" horiz-adv-x="756" 
d="M85 750h92v-493q0 -46 15.5 -81t42.5 -58.5t63.5 -35.5t79.5 -12t79.5 12t63.5 35.5t42.5 58.5t15.5 81v493h92v-485q0 -65 -21 -116.5t-59.5 -87.5t-92.5 -55t-120 -19t-120 19t-92.5 55t-59.5 87.5t-21 116.5v485zM462 0q-38 -19 -60.5 -39.5t-22.5 -40.5
q0 -24 14 -34.5t33 -10.5q21 0 41 9v-61q-25 -11 -60 -11q-20 0 -40 5t-35.5 16t-25.5 29t-10 45q0 52 74 93h92z" />
    <glyph glyph-name="Uring" unicode="&#x16e;" horiz-adv-x="756" 
d="M488 905q0 -45 -31.5 -73.5t-78.5 -28.5q-46 0 -77.5 28.5t-31.5 73.5q0 22 8.5 41t23.5 33t35 21.5t42 7.5t42 -7.5t35 -21.5t24 -33t9 -41zM315 905q0 -26 19.5 -44t43.5 -18q26 0 44.5 18t18.5 44q0 28 -18.5 45.5t-44.5 17.5q-24 0 -43.5 -17.5t-19.5 -45.5zM85 750
h92v-493q0 -46 15.5 -81t42.5 -58.5t63.5 -35.5t79.5 -12t79.5 12t63.5 35.5t42.5 58.5t15.5 81v493h92v-485q0 -65 -21 -116.5t-59.5 -87.5t-92.5 -55t-120 -19t-120 19t-92.5 55t-59.5 87.5t-21 116.5v485z" />
    <glyph glyph-name="Utilde" unicode="&#x168;" horiz-adv-x="756" 
d="M568 939q-11 -62 -43.5 -87.5t-72.5 -25.5q-23 0 -41 7.5t-34 16t-30.5 16t-30.5 7.5q-40 0 -45 -44h-71q10 58 41 85t74 27q23 0 40.5 -7.5t32.5 -16t30 -16t32 -7.5q19 0 31.5 11t15.5 34h71zM85 750h92v-493q0 -46 15.5 -81t42.5 -58.5t63.5 -35.5t79.5 -12t79.5 12
t63.5 35.5t42.5 58.5t15.5 81v493h92v-485q0 -65 -21 -116.5t-59.5 -87.5t-92.5 -55t-120 -19t-120 19t-92.5 55t-59.5 87.5t-21 116.5v485z" />
    <glyph glyph-name="uni1EE4" unicode="&#x1ee4;" horiz-adv-x="756" 
d="M315 -148q0 26 18.5 44t44.5 18t44.5 -18t18.5 -44t-18.5 -44.5t-44.5 -18.5t-44.5 18.5t-18.5 44.5zM85 750h92v-493q0 -46 15.5 -81t42.5 -58.5t63.5 -35.5t79.5 -12t79.5 12t63.5 35.5t42.5 58.5t15.5 81v493h92v-485q0 -65 -21 -116.5t-59.5 -87.5t-92.5 -55
t-120 -19t-120 19t-92.5 55t-59.5 87.5t-21 116.5v485z" />
    <glyph glyph-name="Wacute" unicode="&#x1e82;" horiz-adv-x="947" 
d="M222 0l-202 750h99l149 -561l209 601l206 -601l153 561h91l-203 -750h-62l-189 546l-189 -546h-62zM452 814l101 136h136l-170 -136h-67z" />
    <glyph glyph-name="Wcircumflex" unicode="&#x174;" horiz-adv-x="947" 
d="M222 0l-202 750h99l149 -561l209 601l206 -601l153 561h91l-203 -750h-62l-189 546l-189 -546h-62zM668 814h-86l-109 84l-109 -84h-86l152 136h89z" />
    <glyph glyph-name="Wdieresis" unicode="&#x1e84;" horiz-adv-x="947" 
d="M222 0l-202 750h99l149 -561l209 601l206 -601l153 561h91l-203 -750h-62l-189 546l-189 -546h-62zM293 882q0 26 18.5 44t44.5 18t44.5 -18t18.5 -44t-18.5 -44.5t-44.5 -18.5t-44.5 18.5t-18.5 44.5zM533 882q0 26 18.5 44t44.5 18t44.5 -18t18.5 -44t-18.5 -44.5
t-44.5 -18.5t-44.5 18.5t-18.5 44.5z" />
    <glyph glyph-name="Wgrave" unicode="&#x1e80;" horiz-adv-x="947" 
d="M222 0l-202 750h99l149 -561l209 601l206 -601l153 561h91l-203 -750h-62l-189 546l-189 -546h-62zM277 950h136l101 -136h-67z" />
    <glyph glyph-name="Ycircumflex" unicode="&#x176;" horiz-adv-x="627" 
d="M508 814h-86l-109 84l-109 -84h-86l152 136h89zM613 750l-258 -430v-320h-90v320l-255 430h108l200 -336l197 336h98z" />
    <glyph glyph-name="Ydieresis" unicode="&#x178;" horiz-adv-x="627" 
d="M131 882q0 26 18.5 44t44.5 18t44.5 -18t18.5 -44t-18.5 -44.5t-44.5 -18.5t-44.5 18.5t-18.5 44.5zM371 882q0 26 18.5 44t44.5 18t44.5 -18t18.5 -44t-18.5 -44.5t-44.5 -18.5t-44.5 18.5t-18.5 44.5zM613 750l-258 -430v-320h-90v320l-255 430h108l200 -336l197 336
h98z" />
    <glyph glyph-name="Ygrave" unicode="&#x1ef2;" horiz-adv-x="627" 
d="M613 750l-258 -430v-320h-90v320l-255 430h108l200 -336l197 336h98zM129 950h136l101 -136h-67z" />
    <glyph glyph-name="uni0232" unicode="&#x232;" horiz-adv-x="627" 
d="M163 849v69h300v-69h-300zM613 750l-258 -430v-320h-90v320l-255 430h108l200 -336l197 336h98z" />
    <glyph glyph-name="Zacute" unicode="&#x179;" horiz-adv-x="676" 
d="M484 669h-418v81h578l-461 -669h463v-81h-623zM303 814l101 136h136l-170 -136h-67z" />
    <glyph glyph-name="Zcaron" unicode="&#x17d;" horiz-adv-x="676" 
d="M484 669h-418v81h578l-461 -669h463v-81h-623zM319 814l-152 136h86l109 -84l109 84h86l-149 -136h-89z" />
    <glyph glyph-name="Zdotaccent" unicode="&#x17b;" horiz-adv-x="676" 
d="M484 669h-418v81h578l-461 -669h463v-81h-623zM291 882q0 26 18.5 44t44.5 18t44.5 -18t18.5 -44t-18.5 -44.5t-44.5 -18.5t-44.5 18.5t-18.5 44.5z" />
    <glyph glyph-name="uni018F" unicode="&#x18f;" horiz-adv-x="820" 
d="M384 767q87 0 158 -30t121.5 -82.5t78.5 -124t28 -153.5q0 -81 -28.5 -152t-78.5 -124t-118 -83.5t-146 -30.5q-85 0 -152 31.5t-112.5 87.5t-67.5 133t-16 169h619q-3 59 -24 109.5t-58 87.5t-88 58t-114 21q-41 0 -81 -7t-75 -19t-64 -27.5t-47 -32.5v104
q23 15 54 27.5t66 20.5t72 12.5t73 4.5zM399 67q54 0 101 19.5t83 54.5t58.5 82.5t27.5 103.5h-516q3 -59 20 -107t48.5 -82t76 -52.5t101.5 -18.5z" />
    <glyph glyph-name="abreve" unicode="&#x103;" horiz-adv-x="518" 
d="M362 124q-6 -30 -18 -55t-31.5 -43t-46.5 -28.5t-62 -10.5q-36 0 -67 11.5t-53 32t-34.5 47.5t-12.5 59q0 33 13 58t36.5 44t56 32.5t71.5 21.5q36 7 62 14t43 14t27.5 14.5t15.5 15.5v16q0 21 -9 35.5t-24 23.5t-34.5 13t-40.5 4q-53 0 -95 -20.5t-79 -59.5v86
q34 26 78 44t107 18q36 0 70 -7.5t60 -25.5t41.5 -49t15.5 -78v-351h-90v124zM362 287l-135 -46q-45 -15 -69.5 -36.5t-24.5 -59.5q0 -44 26.5 -70t74.5 -26q24 0 47 10.5t41 31t29 51.5t11 73v72zM192 750q3 -48 23 -70.5t64 -22.5t64 22.5t23 70.5h71q-2 -31 -11.5 -57.5
t-28 -45.5t-47.5 -30t-71 -11t-71 11t-47.5 30t-28 45.5t-11.5 57.5h71z" />
    <glyph glyph-name="amacron" unicode="&#x101;" horiz-adv-x="518" 
d="M362 124q-6 -30 -18 -55t-31.5 -43t-46.5 -28.5t-62 -10.5q-36 0 -67 11.5t-53 32t-34.5 47.5t-12.5 59q0 33 13 58t36.5 44t56 32.5t71.5 21.5q36 7 62 14t43 14t27.5 14.5t15.5 15.5v16q0 21 -9 35.5t-24 23.5t-34.5 13t-40.5 4q-53 0 -95 -20.5t-79 -59.5v86
q34 26 78 44t107 18q36 0 70 -7.5t60 -25.5t41.5 -49t15.5 -78v-351h-90v124zM362 287l-135 -46q-45 -15 -69.5 -36.5t-24.5 -59.5q0 -44 26.5 -70t74.5 -26q24 0 47 10.5t41 31t29 51.5t11 73v72zM121 652v69h300v-69h-300z" />
    <glyph glyph-name="aogonek" unicode="&#x105;" horiz-adv-x="518" 
d="M362 124q-6 -30 -18 -55t-31.5 -43t-46.5 -28.5t-62 -10.5q-36 0 -67 11.5t-53 32t-34.5 47.5t-12.5 59q0 33 13 58t36.5 44t56 32.5t71.5 21.5q36 7 62 14t43 14t27.5 14.5t15.5 15.5v16q0 21 -9 35.5t-24 23.5t-34.5 13t-40.5 4q-53 0 -95 -20.5t-79 -59.5v86
q34 26 78 44t107 18q36 0 70 -7.5t60 -25.5t41.5 -49t15.5 -78v-351h-90v124zM362 287l-135 -46q-45 -15 -69.5 -36.5t-24.5 -59.5q0 -44 26.5 -70t74.5 -26q24 0 47 10.5t41 31t29 51.5t11 73v72zM452 0q-45 -19 -71.5 -41t-26.5 -44q0 -23 17 -31t38 -8q11 0 22.5 2
t19.5 4v-61q-11 -4 -27.5 -6.5t-36.5 -2.5t-40.5 4t-37.5 14.5t-27.5 27.5t-10.5 44q0 30 21.5 54t69.5 44h90z" />
    <glyph glyph-name="cacute" unicode="&#x107;" horiz-adv-x="464" 
d="M305 59q32 0 60.5 8t51.5 22v-76q-23 -12 -52 -19t-66 -7q-55 0 -102 19t-82 53.5t-55 82.5t-20 107q0 58 20 106.5t55 83t82 53.5t102 19q37 0 66 -7t52 -19v-76q-23 14 -51.5 22t-60.5 8q-35 0 -65.5 -12t-53.5 -35.5t-36.5 -59t-13.5 -83.5t13.5 -83.5t36.5 -59
t53.5 -35.5t65.5 -12zM243 614l91 136h116l-140 -136h-67z" />
    <glyph glyph-name="ccaron" unicode="&#x10d;" horiz-adv-x="464" 
d="M305 59q32 0 60.5 8t51.5 22v-76q-23 -12 -52 -19t-66 -7q-55 0 -102 19t-82 53.5t-55 82.5t-20 107q0 58 20 106.5t55 83t82 53.5t102 19q37 0 66 -7t52 -19v-76q-23 14 -51.5 22t-60.5 8q-35 0 -65.5 -12t-53.5 -35.5t-36.5 -59t-13.5 -83.5t13.5 -83.5t36.5 -59
t53.5 -35.5t65.5 -12zM234 614l-142 136h86l99 -84l99 84h86l-139 -136h-89z" />
    <glyph glyph-name="ccircumflex" unicode="&#x109;" horiz-adv-x="464" 
d="M305 59q32 0 60.5 8t51.5 22v-76q-23 -12 -52 -19t-66 -7q-55 0 -102 19t-82 53.5t-55 82.5t-20 107q0 58 20 106.5t55 83t82 53.5t102 19q37 0 66 -7t52 -19v-76q-23 14 -51.5 22t-60.5 8q-35 0 -65.5 -12t-53.5 -35.5t-36.5 -59t-13.5 -83.5t13.5 -83.5t36.5 -59
t53.5 -35.5t65.5 -12zM454 614h-86l-99 84l-99 -84h-86l142 136h89z" />
    <glyph glyph-name="cdotaccent" unicode="&#x10b;" horiz-adv-x="464" 
d="M305 59q32 0 60.5 8t51.5 22v-76q-23 -12 -52 -19t-66 -7q-55 0 -102 19t-82 53.5t-55 82.5t-20 107q0 58 20 106.5t55 83t82 53.5t102 19q37 0 66 -7t52 -19v-76q-23 14 -51.5 22t-60.5 8q-35 0 -65.5 -12t-53.5 -35.5t-36.5 -59t-13.5 -83.5t13.5 -83.5t36.5 -59
t53.5 -35.5t65.5 -12zM219 705q0 26 18.5 44t44.5 18t44.5 -18t18.5 -44t-18.5 -44.5t-44.5 -18.5t-44.5 18.5t-18.5 44.5z" />
    <glyph glyph-name="dcaron" unicode="&#x10f;" horiz-adv-x="676" 
d="M438 750h90v-750h-90v101q-9 -20 -24.5 -40.5t-38 -37t-50 -26.5t-60.5 -10q-48 0 -89.5 19.5t-71.5 54.5t-47 83t-17 105t17 105t47 83t71.5 54.5t89.5 19.5q33 0 60.5 -10t50 -26.5t38 -37t24.5 -40.5v353zM438 332q0 25 -11.5 45.5t-31 35.5t-44 23t-49.5 8
q-38 0 -68 -14t-51.5 -40t-33 -62t-11.5 -79q0 -44 11.5 -79.5t33 -61.5t51.5 -40t68 -14q25 0 49.5 8t44 23t31 35.5t11.5 45.5v166zM626 580h-58l30 170h98z" />
    <glyph glyph-name="dcroat" unicode="&#x111;" horiz-adv-x="615" 
d="M610 634v-61h-82v-573h-90v101q-9 -20 -24.5 -40.5t-38 -37t-50 -26.5t-60.5 -10q-48 0 -89.5 19.5t-71.5 54.5t-47 83t-17 105t17 105t47 83t71.5 54.5t89.5 19.5q33 0 60.5 -10t50 -26.5t38 -37t24.5 -40.5v176h-145v61h145v116h90v-116h82zM438 332q0 25 -11.5 45.5
t-31 35.5t-44 23t-49.5 8q-38 0 -68 -14t-51.5 -40t-33 -62t-11.5 -79q0 -44 11.5 -79.5t33 -61.5t51.5 -40t68 -14q25 0 49.5 8t44 23t31 35.5t11.5 45.5v166z" />
    <glyph glyph-name="ebreve" unicode="&#x115;" horiz-adv-x="550" 
d="M135 249q0 -48 13.5 -83.5t37 -59t55 -35.5t67.5 -12q59 0 101.5 22.5t81.5 60.5v-85q-41 -37 -93 -53.5t-108 -16.5q-51 0 -96.5 18.5t-79.5 52.5t-54 82t-20 108q0 62 20 111t53.5 82.5t78 51.5t92.5 18q46 0 87.5 -16.5t72.5 -49t49.5 -80t19.5 -110.5h-378v-6z
M281 444q-24 0 -47 -6t-42 -21t-32.5 -39.5t-19.5 -61.5h274q-6 64 -40.5 96t-92.5 32zM190 750q3 -48 23 -70.5t64 -22.5t64 22.5t23 70.5h71q-2 -31 -11.5 -57.5t-28 -45.5t-47.5 -30t-71 -11t-71 11t-47.5 30t-28 45.5t-11.5 57.5h71z" />
    <glyph glyph-name="ecaron" unicode="&#x11b;" horiz-adv-x="550" 
d="M135 249q0 -48 13.5 -83.5t37 -59t55 -35.5t67.5 -12q59 0 101.5 22.5t81.5 60.5v-85q-41 -37 -93 -53.5t-108 -16.5q-51 0 -96.5 18.5t-79.5 52.5t-54 82t-20 108q0 62 20 111t53.5 82.5t78 51.5t92.5 18q46 0 87.5 -16.5t72.5 -49t49.5 -80t19.5 -110.5h-378v-6z
M281 444q-24 0 -47 -6t-42 -21t-32.5 -39.5t-19.5 -61.5h274q-6 64 -40.5 96t-92.5 32zM242 614l-142 136h86l99 -84l99 84h86l-139 -136h-89z" />
    <glyph glyph-name="emacron" unicode="&#x113;" horiz-adv-x="550" 
d="M135 249q0 -48 13.5 -83.5t37 -59t55 -35.5t67.5 -12q59 0 101.5 22.5t81.5 60.5v-85q-41 -37 -93 -53.5t-108 -16.5q-51 0 -96.5 18.5t-79.5 52.5t-54 82t-20 108q0 62 20 111t53.5 82.5t78 51.5t92.5 18q46 0 87.5 -16.5t72.5 -49t49.5 -80t19.5 -110.5h-378v-6z
M281 444q-24 0 -47 -6t-42 -21t-32.5 -39.5t-19.5 -61.5h274q-6 64 -40.5 96t-92.5 32zM135 652v69h300v-69h-300z" />
    <glyph glyph-name="eogonek" unicode="&#x119;" horiz-adv-x="550" 
d="M135 249q0 -48 13.5 -83.5t37 -59t55 -35.5t67.5 -12q59 0 101.5 22.5t81.5 60.5v-85q-41 -37 -93 -53.5t-108 -16.5q-51 0 -96.5 18.5t-79.5 52.5t-54 82t-20 108q0 62 20 111t53.5 82.5t78 51.5t92.5 18q46 0 87.5 -16.5t72.5 -49t49.5 -80t19.5 -110.5h-378v-6z
M281 444q-24 0 -47 -6t-42 -21t-32.5 -39.5t-19.5 -61.5h274q-6 64 -40.5 96t-92.5 32zM383 0q-45 -19 -71.5 -41t-26.5 -44q0 -23 17 -31t38 -8q11 0 22.5 2t19.5 4v-61q-11 -4 -27.5 -6.5t-36.5 -2.5t-40.5 4t-37.5 14.5t-27.5 27.5t-10.5 44q0 30 21.5 54t69.5 44h90z
" />
    <glyph glyph-name="edotaccent" unicode="&#x117;" horiz-adv-x="550" 
d="M135 249q0 -48 13.5 -83.5t37 -59t55 -35.5t67.5 -12q59 0 101.5 22.5t81.5 60.5v-85q-41 -37 -93 -53.5t-108 -16.5q-51 0 -96.5 18.5t-79.5 52.5t-54 82t-20 108q0 62 20 111t53.5 82.5t78 51.5t92.5 18q46 0 87.5 -16.5t72.5 -49t49.5 -80t19.5 -110.5h-378v-6z
M281 444q-24 0 -47 -6t-42 -21t-32.5 -39.5t-19.5 -61.5h274q-6 64 -40.5 96t-92.5 32zM212 705q0 26 18.5 44t44.5 18t44.5 -18t18.5 -44t-18.5 -44.5t-44.5 -18.5t-44.5 18.5t-18.5 44.5z" />
    <glyph glyph-name="gbreve" unicode="&#x11f;" horiz-adv-x="555" 
d="M555 500v-54h-128q20 -22 31 -50t11 -63q0 -38 -14.5 -71t-41.5 -58.5t-64.5 -40t-83.5 -14.5q-28 0 -53 6q-15 -1 -28.5 -6t-24 -12t-16.5 -16t-6 -18q0 -16 15 -28.5t56 -10.5l98 6q211 13 211 -116q0 -72 -69 -115t-191 -43q-66 0 -117.5 14t-91.5 35v87
q60 -39 112 -50t99 -11q78 0 121.5 18t43.5 50q0 28 -26 42.5t-96 10.5l-87 -6q-41 -3 -69 4t-45 19t-25 28.5t-8 33.5q0 32 26 56.5t76 40.5q-49 22 -80.5 63t-31.5 97q0 43 17 77t46 57.5t67 36t79 12.5q37 0 73 -11h215zM267 201q54 0 83 35t29 95q0 59 -28.5 94
t-83.5 35q-57 0 -87 -34t-30 -98q0 -60 33 -93.5t84 -33.5zM190 750q3 -48 23 -70.5t64 -22.5t64 22.5t23 70.5h71q-2 -31 -11.5 -57.5t-28 -45.5t-47.5 -30t-71 -11t-71 11t-47.5 30t-28 45.5t-11.5 57.5h71z" />
    <glyph glyph-name="gcircumflex" unicode="&#x11d;" horiz-adv-x="555" 
d="M555 500v-54h-128q20 -22 31 -50t11 -63q0 -38 -14.5 -71t-41.5 -58.5t-64.5 -40t-83.5 -14.5q-28 0 -53 6q-15 -1 -28.5 -6t-24 -12t-16.5 -16t-6 -18q0 -16 15 -28.5t56 -10.5l98 6q211 13 211 -116q0 -72 -69 -115t-191 -43q-66 0 -117.5 14t-91.5 35v87
q60 -39 112 -50t99 -11q78 0 121.5 18t43.5 50q0 28 -26 42.5t-96 10.5l-87 -6q-41 -3 -69 4t-45 19t-25 28.5t-8 33.5q0 32 26 56.5t76 40.5q-49 22 -80.5 63t-31.5 97q0 43 17 77t46 57.5t67 36t79 12.5q37 0 73 -11h215zM267 201q54 0 83 35t29 95q0 59 -28.5 94
t-83.5 35q-57 0 -87 -34t-30 -98q0 -60 33 -93.5t84 -33.5zM465 614h-86l-99 84l-99 -84h-86l142 136h89z" />
    <glyph glyph-name="uni0123" unicode="&#x123;" horiz-adv-x="555" 
d="M313 704v-89h-95v95l44 90h54l-39 -96h36zM555 500v-54h-128q20 -22 31 -50t11 -63q0 -38 -14.5 -71t-41.5 -58.5t-64.5 -40t-83.5 -14.5q-28 0 -53 6q-15 -1 -28.5 -6t-24 -12t-16.5 -16t-6 -18q0 -16 15 -28.5t56 -10.5l98 6q211 13 211 -116q0 -72 -69 -115t-191 -43
q-66 0 -117.5 14t-91.5 35v87q60 -39 112 -50t99 -11q78 0 121.5 18t43.5 50q0 28 -26 42.5t-96 10.5l-87 -6q-41 -3 -69 4t-45 19t-25 28.5t-8 33.5q0 32 26 56.5t76 40.5q-49 22 -80.5 63t-31.5 97q0 43 17 77t46 57.5t67 36t79 12.5q37 0 73 -11h215zM267 201q54 0 83 35
t29 95q0 59 -28.5 94t-83.5 35q-57 0 -87 -34t-30 -98q0 -60 33 -93.5t84 -33.5z" />
    <glyph glyph-name="gdotaccent" unicode="&#x121;" horiz-adv-x="555" 
d="M555 500v-54h-128q20 -22 31 -50t11 -63q0 -38 -14.5 -71t-41.5 -58.5t-64.5 -40t-83.5 -14.5q-28 0 -53 6q-15 -1 -28.5 -6t-24 -12t-16.5 -16t-6 -18q0 -16 15 -28.5t56 -10.5l98 6q211 13 211 -116q0 -72 -69 -115t-191 -43q-66 0 -117.5 14t-91.5 35v87
q60 -39 112 -50t99 -11q78 0 121.5 18t43.5 50q0 28 -26 42.5t-96 10.5l-87 -6q-41 -3 -69 4t-45 19t-25 28.5t-8 33.5q0 32 26 56.5t76 40.5q-49 22 -80.5 63t-31.5 97q0 43 17 77t46 57.5t67 36t79 12.5q37 0 73 -11h215zM267 201q54 0 83 35t29 95q0 59 -28.5 94
t-83.5 35q-57 0 -87 -34t-30 -98q0 -60 33 -93.5t84 -33.5zM196 705q0 26 18.5 44t44.5 18t44.5 -18t18.5 -44t-18.5 -44.5t-44.5 -18.5t-44.5 18.5t-18.5 44.5z" />
    <glyph glyph-name="hcircumflex" unicode="&#x125;" horiz-adv-x="563" 
d="M329 511q80 0 124 -44t44 -138v-329h-90v311q0 68 -30.5 100.5t-83.5 32.5q-27 0 -50 -7.5t-40 -23t-26.5 -39.5t-9.5 -56v-318h-90v750h90v-357q17 54 59 86t103 32zM347 698l-69 -84h-86l112 136h89l109 -136h-86z" />
    <glyph glyph-name="hbar" unicode="&#x127;" horiz-adv-x="573" 
d="M339 511q80 0 124 -44t44 -138v-329h-90v311q0 68 -30.5 100.5t-83.5 32.5q-27 0 -50 -7.5t-40 -23t-26.5 -39.5t-9.5 -56v-318h-90v573h-82v61h82v116h90v-116h145v-61h-145v-180q17 54 59 86t103 32z" />
    <glyph glyph-name="dotlessi" unicode="&#x131;" 
d="M77 500h90v-500h-90v500z" />
    <glyph glyph-name="ibreve" unicode="&#x12d;" 
d="M77 500h90v-500h-90v500zM36 750q3 -48 23 -70.5t64 -22.5t64 22.5t23 70.5h71q-2 -31 -11.5 -57.5t-28 -45.5t-47.5 -30t-71 -11t-71 11t-47.5 30t-28 45.5t-11.5 57.5h71z" />
    <glyph glyph-name="imacron" unicode="&#x12b;" 
d="M77 500h90v-500h-90v500zM-27 652v69h300v-69h-300z" />
    <glyph glyph-name="iogonek" unicode="&#x12f;" 
d="M77 500h90v-500h-90v500zM62 706q0 26 17.5 43.5t43.5 17.5t43.5 -17.5t17.5 -43.5t-17.5 -43.5t-43.5 -17.5t-43.5 17.5t-17.5 43.5zM168 0q-45 -19 -71.5 -41t-26.5 -44q0 -23 17 -31t38 -8q11 0 22.5 2t19.5 4v-61q-11 -4 -27.5 -6.5t-36.5 -2.5t-40.5 4t-37.5 14.5
t-27.5 27.5t-10.5 44q0 30 21.5 54t69.5 44h90z" />
    <glyph glyph-name="itilde" unicode="&#x129;" 
d="M77 500h90v-500h-90v500zM307 750q-11 -62 -43.5 -87.5t-72.5 -25.5q-23 0 -41 7.5t-34 16.5t-30.5 16.5t-30.5 7.5q-40 0 -45 -44h-71q10 58 41 85t74 27q23 0 40.5 -7.5t32.5 -16.5t30 -16.5t32 -7.5q19 0 31.5 11t15.5 34h71z" />
    <glyph glyph-name="uni1ECB" unicode="&#x1ecb;" 
d="M77 500h90v-500h-90v500zM59 -148q0 26 18.5 44t44.5 18t44.5 -18t18.5 -44t-18.5 -44.5t-44.5 -18.5t-44.5 18.5t-18.5 44.5zM62 706q0 26 17.5 43.5t43.5 17.5t43.5 -17.5t17.5 -43.5t-17.5 -43.5t-43.5 -17.5t-43.5 17.5t-17.5 43.5z" />
    <glyph glyph-name="uni0237" unicode="&#x237;" horiz-adv-x="246" 
d="M79 500h90v-535q0 -34 -4 -57.5t-18.5 -43t-43 -37.5t-77.5 -40l-29 66q30 15 46.5 26t24.5 23t9.5 27t1.5 37v534z" />
    <glyph glyph-name="jcircumflex" unicode="&#x135;" horiz-adv-x="246" 
d="M79 500h90v-535q0 -34 -4 -57.5t-18.5 -43t-43 -37.5t-77.5 -40l-29 66q30 15 46.5 26t24.5 23t9.5 27t1.5 37v534zM309 614h-86l-99 84l-99 -84h-86l142 136h89z" />
    <glyph glyph-name="uni0137" unicode="&#x137;" horiz-adv-x="516" 
d="M544 0h-120l-257 254v-254h-90v750h90v-480l240 230h100l-238 -226zM240 -56h95v-95l-44 -90h-54l39 96h-36v89z" />
    <glyph glyph-name="lacute" unicode="&#x13a;" 
d="M77 750h90v-750h-90v750zM92 814l101 136h136l-170 -136h-67z" />
    <glyph glyph-name="lcaron" unicode="&#x13e;" horiz-adv-x="325" 
d="M77 750h90v-750h-90v750zM275 580h-58l30 170h98z" />
    <glyph glyph-name="uni013C" unicode="&#x13c;" 
d="M77 750h90v-750h-90v750zM73 -56h95v-95l-44 -90h-54l39 96h-36v89z" />
    <glyph glyph-name="ldot" unicode="&#x140;" horiz-adv-x="303" 
d="M77 750h90v-750h-90v750zM209 381q0 26 18.5 44t44.5 18t44.5 -18t18.5 -44t-18.5 -44.5t-44.5 -18.5t-44.5 18.5t-18.5 44.5z" />
    <glyph glyph-name="lslash" unicode="&#x142;" horiz-adv-x="265" 
d="M250 528v-86l-73 -54v-388h-90v321l-72 -54v86l72 54v343h90v-276z" />
    <glyph glyph-name="eng" unicode="&#x14b;" horiz-adv-x="563" 
d="M329 511q80 0 124 -44t44 -138v-364q0 -34 -4 -57.5t-18.5 -43t-43 -37.5t-77.5 -40l-29 66q30 15 46.5 26t24.5 23t9.5 27t1.5 37v345q0 68 -30.5 100.5t-83.5 32.5q-27 0 -50 -7.5t-40 -23t-26.5 -39.5t-9.5 -56v-318h-90v500h90v-107q17 54 59 86t103 32z" />
    <glyph glyph-name="nacute" unicode="&#x144;" horiz-adv-x="563" 
d="M329 511q80 0 124 -44t44 -138v-329h-90v311q0 68 -30.5 100.5t-83.5 32.5q-27 0 -50 -7.5t-40 -23t-26.5 -39.5t-9.5 -56v-318h-90v500h90v-107q17 54 59 86t103 32zM231 614l91 136h116l-140 -136h-67z" />
    <glyph glyph-name="ncaron" unicode="&#x148;" horiz-adv-x="563" 
d="M329 511q80 0 124 -44t44 -138v-329h-90v311q0 68 -30.5 100.5t-83.5 32.5q-27 0 -50 -7.5t-40 -23t-26.5 -39.5t-9.5 -56v-318h-90v500h90v-107q17 54 59 86t103 32zM241 614l-142 136h86l99 -84l99 84h86l-139 -136h-89z" />
    <glyph glyph-name="uni0146" unicode="&#x146;" horiz-adv-x="563" 
d="M329 511q80 0 124 -44t44 -138v-329h-90v311q0 68 -30.5 100.5t-83.5 32.5q-27 0 -50 -7.5t-40 -23t-26.5 -39.5t-9.5 -56v-318h-90v500h90v-107q17 54 59 86t103 32zM243 -56h95v-95l-44 -90h-54l39 96h-36v89z" />
    <glyph glyph-name="oe" unicode="&#x153;" horiz-adv-x="983" 
d="M568 249q0 -48 13.5 -83.5t37 -59t55 -35t67.5 -11.5q59 0 101.5 23t81.5 61v-87q-41 -37 -93 -53.5t-108 -16.5q-63 0 -116.5 27.5t-88.5 77.5q-35 -48 -89 -76.5t-125 -28.5q-60 0 -108.5 21t-83 57t-53.5 83.5t-19 100.5t19 100.5t53.5 83.5t83 57t108.5 21
q70 0 124.5 -28.5t89.5 -76.5q34 51 86.5 78t112.5 27q46 0 87.5 -16.5t72.5 -49t49.5 -80t19.5 -110.5h-378v-6zM714 444q-24 0 -47 -6t-42 -21t-32.5 -39.5t-19.5 -61.5h274q-6 64 -40.5 96t-92.5 32zM304 57q37 0 68 14t53 39t34.5 60.5t12.5 78.5t-12.5 78.5t-34.5 60.5
t-53 39t-68 14t-68 -14t-53 -39t-34.5 -60.5t-12.5 -78.5t12.5 -78.5t34.5 -60.5t53 -39t68 -14z" />
    <glyph glyph-name="obreve" unicode="&#x14f;" horiz-adv-x="608" 
d="M217 750q3 -48 23 -70.5t64 -22.5t64 22.5t23 70.5h71q-2 -31 -11.5 -57.5t-28 -45.5t-47.5 -30t-71 -11t-71 11t-47.5 30t-28 45.5t-11.5 57.5h71zM304 -13q-60 0 -108.5 21t-83 56.5t-53.5 83t-19 101.5t19 101.5t53.5 83t83 56.5t108.5 21t108.5 -21t83 -56.5
t53.5 -83t19 -101.5t-19 -101.5t-53.5 -83t-83 -56.5t-108.5 -21zM304 440q-37 0 -68.5 -14t-54 -39t-35 -60t-12.5 -78t12.5 -78t35 -60t54 -39t68.5 -14t68.5 14t54 39t35 60t12.5 78t-12.5 78t-35 60t-54 39t-68.5 14z" />
    <glyph glyph-name="ohungarumlaut" unicode="&#x151;" horiz-adv-x="608" 
d="M304 -13q-60 0 -108.5 21t-83 56.5t-53.5 83t-19 101.5t19 101.5t53.5 83t83 56.5t108.5 21t108.5 -21t83 -56.5t53.5 -83t19 -101.5t-19 -101.5t-53.5 -83t-83 -56.5t-108.5 -21zM304 440q-37 0 -68.5 -14t-54 -39t-35 -60t-12.5 -78t12.5 -78t35 -60t54 -39t68.5 -14
t68.5 14t54 39t35 60t12.5 78t-12.5 78t-35 60t-54 39t-68.5 14zM178 614l91 136h116l-140 -136h-67zM341 614l91 136h116l-140 -136h-67z" />
    <glyph glyph-name="omacron" unicode="&#x14d;" horiz-adv-x="608" 
d="M154 652v69h300v-69h-300zM304 -13q-60 0 -108.5 21t-83 56.5t-53.5 83t-19 101.5t19 101.5t53.5 83t83 56.5t108.5 21t108.5 -21t83 -56.5t53.5 -83t19 -101.5t-19 -101.5t-53.5 -83t-83 -56.5t-108.5 -21zM304 440q-37 0 -68.5 -14t-54 -39t-35 -60t-12.5 -78t12.5 -78
t35 -60t54 -39t68.5 -14t68.5 14t54 39t35 60t12.5 78t-12.5 78t-35 60t-54 39t-68.5 14z" />
    <glyph glyph-name="uni1ECD" unicode="&#x1ecd;" horiz-adv-x="608" 
d="M241 -148q0 26 18.5 44t44.5 18t44.5 -18t18.5 -44t-18.5 -44.5t-44.5 -18.5t-44.5 18.5t-18.5 44.5zM304 -13q-60 0 -108.5 21t-83 56.5t-53.5 83t-19 101.5t19 101.5t53.5 83t83 56.5t108.5 21t108.5 -21t83 -56.5t53.5 -83t19 -101.5t-19 -101.5t-53.5 -83t-83 -56.5
t-108.5 -21zM304 440q-37 0 -68.5 -14t-54 -39t-35 -60t-12.5 -78t12.5 -78t35 -60t54 -39t68.5 -14t68.5 14t54 39t35 60t12.5 78t-12.5 78t-35 60t-54 39t-68.5 14z" />
    <glyph glyph-name="racute" unicode="&#x155;" horiz-adv-x="356" 
d="M317 505q18 0 35 -3v-91q-21 6 -48 6q-23 0 -47 -3t-44 -13t-33 -29.5t-13 -52.5v-319h-90v500h90v-117q9 28 25 50.5t36.5 38.5t43.5 24.5t45 8.5zM186 614l91 136h116l-140 -136h-67z" />
    <glyph glyph-name="rcaron" unicode="&#x159;" horiz-adv-x="356" 
d="M317 505q18 0 35 -3v-91q-21 6 -48 6q-23 0 -47 -3t-44 -13t-33 -29.5t-13 -52.5v-319h-90v500h90v-117q9 28 25 50.5t36.5 38.5t43.5 24.5t45 8.5zM168 614l-142 136h86l99 -84l99 84h86l-139 -136h-89z" />
    <glyph glyph-name="uni0157" unicode="&#x157;" horiz-adv-x="356" 
d="M317 505q18 0 35 -3v-91q-21 6 -48 6q-23 0 -47 -3t-44 -13t-33 -29.5t-13 -52.5v-319h-90v500h90v-117q9 28 25 50.5t36.5 38.5t43.5 24.5t45 8.5zM74 -56h95v-95l-44 -90h-54l39 96h-36v89z" />
    <glyph glyph-name="sacute" unicode="&#x15b;" horiz-adv-x="456" 
d="M260 291q28 -8 55.5 -21t48.5 -31.5t34 -43.5t13 -57q0 -34 -13 -62t-37 -47.5t-56.5 -30.5t-71.5 -11q-81 0 -133.5 45t-60.5 126h80q15 -101 115 -101q37 0 65.5 17.5t28.5 51.5q0 19 -7.5 32.5t-20.5 23.5t-31 17.5t-38 13.5l-44 13q-63 19 -98 57.5t-35 96.5
q0 29 13 53t35.5 41.5t53 27t65.5 9.5q64 0 111 -34.5t58 -102.5h-80q-11 38 -35.5 54t-59.5 16q-30 0 -55.5 -15.5t-25.5 -48.5q0 -28 22 -46.5t60 -29.5zM206 614l91 136h116l-140 -136h-67z" />
    <glyph glyph-name="scaron" unicode="&#x161;" horiz-adv-x="456" 
d="M260 291q28 -8 55.5 -21t48.5 -31.5t34 -43.5t13 -57q0 -34 -13 -62t-37 -47.5t-56.5 -30.5t-71.5 -11q-81 0 -133.5 45t-60.5 126h80q15 -101 115 -101q37 0 65.5 17.5t28.5 51.5q0 19 -7.5 32.5t-20.5 23.5t-31 17.5t-38 13.5l-44 13q-63 19 -98 57.5t-35 96.5
q0 29 13 53t35.5 41.5t53 27t65.5 9.5q64 0 111 -34.5t58 -102.5h-80q-11 38 -35.5 54t-59.5 16q-30 0 -55.5 -15.5t-25.5 -48.5q0 -28 22 -46.5t60 -29.5zM187 614l-142 136h86l99 -84l99 84h86l-139 -136h-89z" />
    <glyph glyph-name="scedilla" unicode="&#x15f;" horiz-adv-x="456" 
d="M260 291q28 -8 55.5 -21t48.5 -31.5t34 -43.5t13 -57q0 -34 -13 -62t-37 -47.5t-56.5 -30.5t-71.5 -11q-81 0 -133.5 45t-60.5 126h80q15 -101 115 -101q37 0 65.5 17.5t28.5 51.5q0 19 -7.5 32.5t-20.5 23.5t-31 17.5t-38 13.5l-44 13q-63 19 -98 57.5t-35 96.5
q0 29 13 53t35.5 41.5t53 27t65.5 9.5q64 0 111 -34.5t58 -102.5h-80q-11 38 -35.5 54t-59.5 16q-30 0 -55.5 -15.5t-25.5 -48.5q0 -28 22 -46.5t60 -29.5zM130 -147q13 -6 28.5 -10t29.5 -4q22 0 41.5 7t19.5 25q0 15 -13 22.5t-31 7.5q-8 0 -19 -2t-19 -7l-30 17l58 94h53
l-39 -62q15 3 30 3q36 0 56 -18.5t20 -49.5q0 -20 -9.5 -35t-25 -25.5t-35 -16t-38.5 -5.5q-20 0 -44 3.5t-49 15.5z" />
    <glyph glyph-name="scircumflex" unicode="&#x15d;" horiz-adv-x="456" 
d="M260 291q28 -8 55.5 -21t48.5 -31.5t34 -43.5t13 -57q0 -34 -13 -62t-37 -47.5t-56.5 -30.5t-71.5 -11q-81 0 -133.5 45t-60.5 126h80q15 -101 115 -101q37 0 65.5 17.5t28.5 51.5q0 19 -7.5 32.5t-20.5 23.5t-31 17.5t-38 13.5l-44 13q-63 19 -98 57.5t-35 96.5
q0 29 13 53t35.5 41.5t53 27t65.5 9.5q64 0 111 -34.5t58 -102.5h-80q-11 38 -35.5 54t-59.5 16q-30 0 -55.5 -15.5t-25.5 -48.5q0 -28 22 -46.5t60 -29.5zM407 614h-86l-99 84l-99 -84h-86l142 136h89z" />
    <glyph glyph-name="uni0219" unicode="&#x219;" horiz-adv-x="456" 
d="M260 291q28 -8 55.5 -21t48.5 -31.5t34 -43.5t13 -57q0 -34 -13 -62t-37 -47.5t-56.5 -30.5t-71.5 -11q-81 0 -133.5 45t-60.5 126h80q15 -101 115 -101q37 0 65.5 17.5t28.5 51.5q0 19 -7.5 32.5t-20.5 23.5t-31 17.5t-38 13.5l-44 13q-63 19 -98 57.5t-35 96.5
q0 29 13 53t35.5 41.5t53 27t65.5 9.5q64 0 111 -34.5t58 -102.5h-80q-11 38 -35.5 54t-59.5 16q-30 0 -55.5 -15.5t-25.5 -48.5q0 -28 22 -46.5t60 -29.5zM182 -56h95v-95l-44 -90h-54l39 96h-36v89z" />
    <glyph glyph-name="tbar" unicode="&#x167;" horiz-adv-x="444" 
d="M394 278h-176v-118q0 -33 5 -52.5t14.5 -30t22.5 -14t28 -3.5q23 0 49 8.5t49 24.5v-77q-20 -11 -51 -20t-58 -9q-39 0 -67.5 8t-46.5 27t-26.5 51.5t-8.5 80.5v124h-101v61h101v89h-108v4l198 202v-134h175v-72h-175v-89h176v-61z" />
    <glyph glyph-name="tcaron" unicode="&#x165;" horiz-adv-x="450" 
d="M198 428v-268q0 -33 5 -52.5t14.5 -30t22.5 -14t28 -3.5q23 0 49 8.5t49 24.5v-77q-20 -11 -51 -20t-58 -9q-39 0 -67.5 8t-46.5 27t-26.5 51.5t-8.5 80.5v274h-108v4l198 202v-134h175v-72h-175zM420 580h-58l30 170h98z" />
    <glyph glyph-name="uni0163" unicode="&#x163;" horiz-adv-x="403" 
d="M198 428v-268q0 -33 5 -52.5t14.5 -30t22.5 -14t28 -3.5q23 0 49 8.5t49 24.5v-77q-20 -11 -51 -20t-58 -9q-39 0 -67.5 8t-46.5 27t-26.5 51.5t-8.5 80.5v274h-108v4l198 202v-134h175v-72h-175zM180 -56h95v-95l-44 -90h-54l39 96h-36v89z" />
    <glyph glyph-name="uni021B" unicode="&#x21b;" horiz-adv-x="403" 
d="M198 428v-268q0 -33 5 -52.5t14.5 -30t22.5 -14t28 -3.5q23 0 49 8.5t49 24.5v-77q-20 -11 -51 -20t-58 -9q-39 0 -67.5 8t-46.5 27t-26.5 51.5t-8.5 80.5v274h-108v4l198 202v-134h175v-72h-175zM180 -56h95v-95l-44 -90h-54l39 96h-36v89z" />
    <glyph glyph-name="ubreve" unicode="&#x16d;" horiz-adv-x="559" 
d="M392 500h90v-500h-90v105q-17 -54 -59 -86t-103 -32q-77 0 -120.5 44t-43.5 138v331h90v-313q0 -68 30 -100.5t80 -32.5q53 0 89.5 30.5t36.5 95.5v320zM181 750q3 -48 23 -70.5t64 -22.5t64 22.5t23 70.5h71q-2 -31 -11.5 -57.5t-28 -45.5t-47.5 -30t-71 -11t-71 11
t-47.5 30t-28 45.5t-11.5 57.5h71z" />
    <glyph glyph-name="uhungarumlaut" unicode="&#x171;" horiz-adv-x="559" 
d="M392 500h90v-500h-90v105q-17 -54 -59 -86t-103 -32q-77 0 -120.5 44t-43.5 138v331h90v-313q0 -68 30 -100.5t80 -32.5q53 0 89.5 30.5t36.5 95.5v320zM159 614l91 136h116l-140 -136h-67zM322 614l91 136h116l-140 -136h-67z" />
    <glyph glyph-name="umacron" unicode="&#x16b;" horiz-adv-x="559" 
d="M392 500h90v-500h-90v105q-17 -54 -59 -86t-103 -32q-77 0 -120.5 44t-43.5 138v331h90v-313q0 -68 30 -100.5t80 -32.5q53 0 89.5 30.5t36.5 95.5v320zM130 652v69h300v-69h-300z" />
    <glyph glyph-name="uogonek" unicode="&#x173;" horiz-adv-x="559" 
d="M392 500h90v-500h-90v105q-17 -54 -59 -86t-103 -32q-77 0 -120.5 44t-43.5 138v331h90v-313q0 -68 30 -100.5t80 -32.5q53 0 89.5 30.5t36.5 95.5v320zM482 0q-45 -19 -71.5 -41t-26.5 -44q0 -23 17 -31t38 -8q11 0 22.5 2t19.5 4v-61q-11 -4 -27.5 -6.5t-36.5 -2.5
t-40.5 4t-37.5 14.5t-27.5 27.5t-10.5 44q0 30 21.5 54t69.5 44h90z" />
    <glyph glyph-name="uring" unicode="&#x16f;" horiz-adv-x="559" 
d="M392 500h90v-500h-90v105q-17 -54 -59 -86t-103 -32q-77 0 -120.5 44t-43.5 138v331h90v-313q0 -68 30 -100.5t80 -32.5q53 0 89.5 30.5t36.5 95.5v320zM373 699q0 -41 -29 -67t-71 -26t-70.5 26t-28.5 67q0 42 29 68t70 26q42 0 71 -26t29 -68zM216 699q0 -24 17.5 -40
t39.5 -16q23 0 40 16t17 40q0 26 -17 41.5t-40 15.5q-22 0 -39.5 -15.5t-17.5 -41.5z" />
    <glyph glyph-name="utilde" unicode="&#x169;" horiz-adv-x="559" 
d="M392 500h90v-500h-90v105q-17 -54 -59 -86t-103 -32q-77 0 -120.5 44t-43.5 138v331h90v-313q0 -68 30 -100.5t80 -32.5q53 0 89.5 30.5t36.5 95.5v320zM468 750q-11 -62 -43.5 -87.5t-72.5 -25.5q-23 0 -41 7.5t-34 16.5t-30.5 16.5t-30.5 7.5q-40 0 -45 -44h-71
q10 58 41 85t74 27q23 0 40.5 -7.5t32.5 -16.5t30 -16.5t32 -7.5q19 0 31.5 11t15.5 34h71z" />
    <glyph glyph-name="uni1EE5" unicode="&#x1ee5;" horiz-adv-x="559" 
d="M392 500h90v-500h-90v105q-17 -54 -59 -86t-103 -32q-77 0 -120.5 44t-43.5 138v331h90v-313q0 -68 30 -100.5t80 -32.5q53 0 89.5 30.5t36.5 95.5v320zM201 -148q0 26 18.5 44t44.5 18t44.5 -18t18.5 -44t-18.5 -44.5t-44.5 -18.5t-44.5 18.5t-18.5 44.5z" />
    <glyph glyph-name="wacute" unicode="&#x1e83;" horiz-adv-x="731" 
d="M25 500h91l112 -365l145 388l142 -385l111 362h80l-158 -500h-64l-117 315l-118 -315h-66zM332 614l91 136h116l-140 -136h-67z" />
    <glyph glyph-name="wcircumflex" unicode="&#x175;" horiz-adv-x="731" 
d="M25 500h91l112 -365l145 388l142 -385l111 362h80l-158 -500h-64l-117 315l-118 -315h-66zM557 614h-86l-99 84l-99 -84h-86l142 136h89z" />
    <glyph glyph-name="wdieresis" unicode="&#x1e85;" horiz-adv-x="731" 
d="M25 500h91l112 -365l145 388l142 -385l111 362h80l-158 -500h-64l-117 315l-118 -315h-66zM194 705q0 26 18.5 44t44.5 18t44.5 -18t18.5 -44t-18.5 -44.5t-44.5 -18.5t-44.5 18.5t-18.5 44.5zM434 705q0 26 18.5 44t44.5 18t44.5 -18t18.5 -44t-18.5 -44.5t-44.5 -18.5
t-44.5 18.5t-18.5 44.5z" />
    <glyph glyph-name="wgrave" unicode="&#x1e81;" horiz-adv-x="731" 
d="M25 500h91l112 -365l145 388l142 -385l111 362h80l-158 -500h-64l-117 315l-118 -315h-66zM193 750h116l91 -136h-67z" />
    <glyph glyph-name="ycircumflex" unicode="&#x177;" horiz-adv-x="535" 
d="M84 -200l139 269l-220 431h98l172 -342l173 342h86l-360 -700h-88zM460 614h-86l-99 84l-99 -84h-86l142 136h89z" />
    <glyph glyph-name="ygrave" unicode="&#x1ef3;" horiz-adv-x="535" 
d="M84 -200l139 269l-220 431h98l172 -342l173 342h86l-360 -700h-88zM110 750h116l91 -136h-67z" />
    <glyph glyph-name="uni0233" unicode="&#x233;" horiz-adv-x="535" 
d="M84 -200l139 269l-220 431h98l172 -342l173 342h86l-360 -700h-88zM124 652v69h300v-69h-300z" />
    <glyph glyph-name="zacute" unicode="&#x17a;" horiz-adv-x="497" 
d="M325 428h-266v72h411l-297 -428h287v-72h-433zM229 614l91 136h116l-140 -136h-67z" />
    <glyph glyph-name="zcaron" unicode="&#x17e;" horiz-adv-x="497" 
d="M325 428h-266v72h411l-297 -428h287v-72h-433zM231 614l-142 136h86l99 -84l99 84h86l-139 -136h-89z" />
    <glyph glyph-name="zdotaccent" unicode="&#x17c;" horiz-adv-x="497" 
d="M325 428h-266v72h411l-297 -428h287v-72h-433zM208 705q0 26 18.5 44t44.5 18t44.5 -18t18.5 -44t-18.5 -44.5t-44.5 -18.5t-44.5 18.5t-18.5 44.5z" />
    <glyph glyph-name="uni0259" unicode="&#x259;" horiz-adv-x="550" 
d="M414.975 248.984q0 47.9971 -13.499 83.4951t-36.998 58.9971q-23.498 23.498 -54.9961 35.4971q-31.498 12 -67.4961 12q-58.9961 0 -101.494 -22.499q-42.4971 -22.499 -81.4951 -60.4961v84.9941q40.998 36.998 92.9941 53.4971q51.9971 16.499 107.994 16.499
q50.9971 0 96.4941 -18.499t79.4951 -52.4971q33.998 -33.9971 53.9961 -81.9941q19.999 -47.9971 19.999 -107.994q0 -61.9961 -19.999 -110.993q-19.998 -48.9971 -53.4961 -82.4951q-33.498 -33.4971 -77.9951 -51.4961q-44.498 -17.999 -92.4951 -17.999
q-45.9971 0 -87.4941 16.499q-41.498 16.499 -72.4961 48.9971t-49.4971 79.9951q-18.498 47.4971 -19.498 110.493h377.977v5.99902zM268.983 53.9971q23.999 0 46.9971 5.99902q22.999 6 41.998 20.999q18.998 14.999 32.498 39.4971q13.499 24.499 19.498 61.4971
h-273.982q5.99902 -63.9961 40.4971 -95.9941t92.4941 -31.998z" />
    <glyph glyph-name="ellipsis" unicode="&#x2026;" horiz-adv-x="864" 
d="M70 61q0 31 22 52.5t52 21.5q31 0 52.5 -21.5t21.5 -52.5t-21.5 -52.5t-52.5 -21.5q-30 0 -52 21.5t-22 52.5zM358 61q0 31 22 52.5t52 21.5q31 0 52.5 -21.5t21.5 -52.5t-21.5 -52.5t-52.5 -21.5q-30 0 -52 21.5t-22 52.5zM646 61q0 31 22 52.5t52 21.5q31 0 52.5 -21.5
t21.5 -52.5t-21.5 -52.5t-52.5 -21.5q-30 0 -52 21.5t-22 52.5z" />
    <glyph glyph-name="endash" unicode="&#x2013;" horiz-adv-x="583" 
d="M70 303h443v-79h-443v79z" />
    <glyph glyph-name="emdash" unicode="&#x2014;" horiz-adv-x="733" 
d="M70 303h593v-79h-593v79z" />
    <glyph glyph-name="guilsinglleft" unicode="&#x2039;" horiz-adv-x="340" 
d="M30 253l159 198h101l-159 -198l159 -198h-101z" />
    <glyph glyph-name="guilsinglright" unicode="&#x203a;" horiz-adv-x="340" 
d="M151 55h-101l159 198l-159 198h101l159 -198z" />
    <glyph glyph-name="quoteleft" unicode="&#x2018;" horiz-adv-x="262" 
d="M141 565h51v-123h-122v124l80 184h57z" />
    <glyph glyph-name="quoteright" unicode="&#x2019;" horiz-adv-x="262" 
d="M121 627h-51v123h122v-124l-80 -184h-57z" />
    <glyph glyph-name="quotedblleft" unicode="&#x201c;" horiz-adv-x="432" 
d="M141 565h51v-123h-122v124l80 184h57zM311 565h51v-123h-122v124l80 184h57z" />
    <glyph glyph-name="quotedblright" unicode="&#x201d;" horiz-adv-x="432" 
d="M121 627h-51v123h122v-124l-80 -184h-57zM291 627h-51v123h122v-124l-80 -184h-57z" />
    <glyph glyph-name="quotesinglbase" unicode="&#x201a;" horiz-adv-x="262" 
d="M121 0h-51v123h122v-124l-80 -184h-57z" />
    <glyph glyph-name="quotedblbase" unicode="&#x201e;" horiz-adv-x="432" 
d="M121 0h-51v123h122v-124l-80 -184h-57zM291 0h-51v123h122v-124l-80 -184h-57z" />
    <glyph glyph-name="bullet" unicode="&#x2022;" horiz-adv-x="480" 
d="M236 442q39 0 73 -14t58.5 -38t38.5 -56t14 -69q0 -39 -14 -72.5t-38.5 -58t-58.5 -38.5t-73 -14q-36 0 -68 14t-56 38.5t-38 58t-14 72.5q0 37 14 69t38 56t56 38t68 14z" />
    <glyph glyph-name="minus" unicode="&#x2212;" horiz-adv-x="723" 
d="M90 288v79h543v-79h-543z" />
    <glyph glyph-name="Euro" unicode="&#x20ac;" horiz-adv-x="858" 
d="M533 684q-45 0 -85 -14.5t-72.5 -40.5t-56.5 -62.5t-37 -80.5h372l-49 -65h-337q-1 -11 -1.5 -22t-0.5 -22t0.5 -21.5t1.5 -21.5h291l-49 -65h-228q13 -44 37.5 -80.5t57 -63t72.5 -41t85 -14.5q78 0 134.5 25.5t91.5 60.5v-104q-43 -31 -100 -48t-124 -17q-64 0 -121 21
t-103 58.5t-79.5 89t-49.5 113.5h-173l49 65h113q-1 10 -1.5 20t-0.5 21q0 12 0.5 23.5t1.5 22.5h-162l49 65h125q16 61 49.5 112.5t79.5 89t102.5 58.5t120.5 21q67 0 124 -16.5t100 -48.5v-104q-35 35 -93 60.5t-134 25.5z" />
    <glyph glyph-name="uniFB01" unicode="&#xfb01;" horiz-adv-x="560" 
d="M113 577q0 52 14 88.5t37.5 59t54.5 32.5t64 10q35 0 64 -7v-74q-14 4 -28.5 6t-31.5 2t-32 -5t-26.5 -16.5t-18.5 -31t-7 -48.5v-93h131v-72h-131v-428h-90v428h-101v72h101v77zM497 706q0 -26 -17.5 -43.5t-43.5 -17.5t-43.5 17.5t-17.5 43.5t17.5 43.5t43.5 17.5
t43.5 -17.5t17.5 -43.5zM393 0v500h90v-500h-90z" />
    <glyph glyph-name="uniFB02" unicode="&#xfb02;" horiz-adv-x="560" 
d="M113 577q0 52 14 88.5t37.5 59t54.5 32.5t64 10q35 0 64 -7v-74q-14 4 -28.5 6t-31.5 2t-32 -5t-26.5 -16.5t-18.5 -31t-7 -48.5v-93h131v-72h-131v-428h-90v428h-101v72h101v77zM393 750h90v-750h-90v750z" />
    <glyph glyph-name="breve" unicode="&#x2d8;" horiz-adv-x="360" 
d="M93 750q3 -48 23 -70.5t64 -22.5t64 22.5t23 70.5h71q-2 -31 -11.5 -57.5t-28 -45.5t-47.5 -30t-71 -11t-71 11t-47.5 30t-28 45.5t-11.5 57.5h71z" />
    <glyph glyph-name="caron" unicode="&#x2c7;" horiz-adv-x="394" 
d="M154 614l-142 136h86l99 -84l99 84h86l-139 -136h-89z" />
    <glyph glyph-name="circumflex" unicode="&#x2c6;" horiz-adv-x="394" 
d="M382 614h-86l-99 84l-99 -84h-86l142 136h89z" />
    <glyph glyph-name="dotaccent" unicode="&#x2d9;" horiz-adv-x="166" 
d="M20 705q0 26 18.5 44t44.5 18t44.5 -18t18.5 -44t-18.5 -44.5t-44.5 -18.5t-44.5 18.5t-18.5 44.5z" />
    <glyph glyph-name="glyph337" horiz-adv-x="166" 
d="M20 -148q0 26 18.5 44t44.5 18t44.5 -18t18.5 -44t-18.5 -44.5t-44.5 -18.5t-44.5 18.5t-18.5 44.5z" />
    <glyph glyph-name="hungarumlaut" unicode="&#x2dd;" horiz-adv-x="409" 
d="M22 614l91 136h116l-140 -136h-67zM185 614l91 136h116l-140 -136h-67z" />
    <glyph glyph-name="uni0326" unicode="&#x326;" horiz-adv-x="142" 
d="M25 -56h95v-95l-44 -90h-54l39 96h-36v89z" />
    <glyph glyph-name="ogonek" unicode="&#x2db;" horiz-adv-x="242" 
d="M203 0q-45 -19 -71.5 -41t-26.5 -44q0 -23 17 -31t38 -8q11 0 22.5 2t19.5 4v-61q-11 -4 -27.5 -6.5t-36.5 -2.5t-40.5 4t-37.5 14.5t-27.5 27.5t-10.5 44q0 30 21.5 54t69.5 44h90z" />
    <glyph glyph-name="ring" unicode="&#x2da;" horiz-adv-x="225" 
d="M212 699q0 -41 -29 -67t-71 -26t-70.5 26t-28.5 67q0 42 29 68t70 26q42 0 71 -26t29 -68zM55 699q0 -24 17.5 -40t39.5 -16q23 0 40 16t17 40q0 26 -17 41.5t-40 15.5q-22 0 -39.5 -15.5t-17.5 -41.5z" />
    <glyph glyph-name="tilde" unicode="&#x2dc;" horiz-adv-x="412" 
d="M390 750q-11 -62 -43.5 -87.5t-72.5 -25.5q-23 0 -41 7.5t-34 16.5t-30.5 16.5t-30.5 7.5q-40 0 -45 -44h-71q10 58 41 85t74 27q23 0 40.5 -7.5t32.5 -16.5t30 -16.5t32 -7.5q19 0 31.5 11t15.5 34h71z" />
    <glyph glyph-name="glyph343" horiz-adv-x="283" 
d="M22 814l101 136h136l-170 -136h-67z" />
    <glyph glyph-name="glyph344" horiz-adv-x="359" 
d="M93 950q3 -48 23 -70.5t64 -22.5t64 22.5t23 70.5h71q-2 -31 -11.5 -57.5t-28 -45.5t-47.5 -30t-71 -11t-71 11t-47.5 30t-28 45.5t-11.5 57.5h71z" />
    <glyph glyph-name="glyph345" horiz-adv-x="394" 
d="M154 814l-152 136h86l109 -84l109 84h86l-149 -136h-89z" />
    <glyph glyph-name="glyph346" horiz-adv-x="245" 
d="M31 -147q13 -6 28.5 -10t29.5 -4q22 0 41.5 7t19.5 25q0 15 -13 22.5t-31 7.5q-8 0 -19 -2t-19 -7l-30 17l58 94h53l-39 -62q15 3 30 3q36 0 56 -18.5t20 -49.5q0 -20 -9.5 -35t-25 -25.5t-35 -16t-38.5 -5.5q-20 0 -44 3.5t-49 15.5z" />
    <glyph glyph-name="glyph347" horiz-adv-x="394" 
d="M392 814h-86l-109 84l-109 -84h-86l152 136h89z" />
    <glyph glyph-name="glyph348" horiz-adv-x="406" 
d="M20 882q0 26 18.5 44t44.5 18t44.5 -18t18.5 -44t-18.5 -44.5t-44.5 -18.5t-44.5 18.5t-18.5 44.5zM260 882q0 26 18.5 44t44.5 18t44.5 -18t18.5 -44t-18.5 -44.5t-44.5 -18.5t-44.5 18.5t-18.5 44.5z" />
    <glyph glyph-name="glyph349" horiz-adv-x="166" 
d="M20 882q0 26 18.5 44t44.5 18t44.5 -18t18.5 -44t-18.5 -44.5t-44.5 -18.5t-44.5 18.5t-18.5 44.5z" />
    <glyph glyph-name="glyph350" horiz-adv-x="283" 
d="M12 950h136l101 -136h-67z" />
    <glyph glyph-name="glyph351" horiz-adv-x="450" 
d="M22 814l101 136h136l-170 -136h-67zM217 814l101 136h136l-170 -136h-67z" />
    <glyph glyph-name="glyph352" horiz-adv-x="344" 
d="M22 849v69h300v-69h-300z" />
    <glyph glyph-name="glyph353" horiz-adv-x="215" 
d="M188 0q-38 -19 -60.5 -39.5t-22.5 -40.5q0 -24 14 -34.5t33 -10.5q21 0 41 9v-61q-25 -11 -60 -11q-20 0 -40 5t-35.5 16t-25.5 29t-10 45q0 52 74 93h92z" />
    <glyph glyph-name="glyph354" horiz-adv-x="225" 
d="M222 905q0 -45 -31.5 -73.5t-78.5 -28.5q-46 0 -77.5 28.5t-31.5 73.5q0 22 8.5 41t23.5 33t35 21.5t42 7.5t42 -7.5t35 -21.5t24 -33t9 -41zM49 905q0 -26 19.5 -44t43.5 -18q26 0 44.5 18t18.5 44q0 28 -18.5 45.5t-44.5 17.5q-24 0 -43.5 -17.5t-19.5 -45.5z" />
    <glyph glyph-name="glyph355" horiz-adv-x="412" 
d="M390 939q-11 -62 -43.5 -87.5t-72.5 -25.5q-23 0 -41 7.5t-34 16t-30.5 16t-30.5 7.5q-40 0 -45 -44h-71q10 58 41 85t74 27q23 0 40.5 -7.5t32.5 -16t30 -16t32 -7.5q19 0 31.5 11t15.5 34h71z" />
    <glyph glyph-name="glyph356" horiz-adv-x="327" 
d="M102 706q0 26 17.5 43.5t43.5 17.5t43.5 -17.5t17.5 -43.5t-17.5 -43.5t-43.5 -17.5t-43.5 17.5t-17.5 43.5z" />
    <glyph glyph-name="glyph357" horiz-adv-x="172" 
d="M80 580h-58l30 170h98z" />
    </font>
</defs>
</svg>
