<?xml version="1.0" encoding="utf-8"?>
<!-- Generator: Adobe Illustrator 16.0.0, SVG Export Plug-In . SVG Version: 6.00 Build 0)  -->
<!DOCTYPE svg PUBLIC "-//W3C//DTD SVG 1.1//EN" "http://www.w3.org/Graphics/SVG/1.1/DTD/svg11.dtd">
<svg version="1.1" id="Layer_1" xmlns="http://www.w3.org/2000/svg" xmlns:xlink="http://www.w3.org/1999/xlink" x="0px" y="0px"
	 width="1350.958px" height="99.24px" viewBox="0 0 1350.958 99.24" enable-background="new 0 0 1350.958 99.24"
	 xml:space="preserve">
<path fill="#FFFFFF" d="M208.344,99.199h-15.062V35.664c0-3.656-0.115-7.822-1.495-10.996c-1.179-2.713-3.44-5.121-6.205-6.607
	c-2.71-1.457-6.226-2.344-10.748-2.71c-3.73-0.304-7.52-0.294-11.536-0.284l-2.116,0.004H0V0.007l163.261-0.003
	c4.146-0.013,8.435-0.022,12.792,0.332c6.634,0.539,12.084,1.997,16.662,4.457c5.771,3.104,10.347,8.029,12.886,13.87
	c2.411,5.547,2.744,11.449,2.744,17V99.199z"/>
<rect x="79.265" y="28.132" fill="#FFFFFF" width="15.062" height="71.067"/>
<rect x="233.79" y="35.132" fill="#FFFFFF" width="95.143" height="15.063"/>
<rect x="313.871" y="0.007" fill="#FFFFFF" width="15.062" height="99.192"/>
<rect x="353.784" y="0.007" fill="#FFFFFF" width="15.062" height="99.192"/>
<path fill="#FFFFFF" d="M441.425,91.668"/>
<path fill="#FFFFFF" d="M448.957,99.199h-7.531c-34.981,0-47.445-18.365-47.445-35.551V0.007h15.062v63.641
	c0,18.492,22.646,20.488,32.383,20.488h7.531V99.199z"/>
<rect x="433.894" y="84.137" fill="#FFFFFF" width="95.172" height="15.062"/>
<path opacity="0.9922" fill="#FFFFFF" d="M600.762,99.199c-17.562,0-34.167-4.861-46.757-13.686
	c-13.404-9.395-20.786-22.148-20.786-35.91c0-13.763,7.382-26.517,20.786-35.912C566.594,4.868,583.2,0.007,600.762,0.007
	s34.168,4.86,46.757,13.685c13.404,9.395,20.786,22.148,20.786,35.912c0,13.762-7.382,26.516-20.786,35.91
	C634.93,94.338,618.324,99.199,600.762,99.199z M600.762,15.07c-28.447,0-52.48,15.814-52.48,34.534
	c0,18.719,24.033,34.533,52.48,34.533s52.48-15.814,52.48-34.533C653.243,30.884,629.209,15.07,600.762,15.07z"/>
<path fill="#FFFFFF" d="M710.671,99.199h-15.062V0.007h87.358c15.77,0,27.219,2.339,35.001,7.149
	c8.141,5.031,12.443,12.947,12.443,22.892v7.531h-15.062v-7.531c0-4.482,0-14.979-32.382-14.979h-72.296V99.199z"/>
<path fill="#FFFFFF" d="M830.412,61.223h-15.062v-7.432c-4.175-1.57-13.801-3.186-19.992-3.203l-0.015-15.063
	c7.878-0.039,16.392-2.169,20.007-3.781V27.13h15.062v7.531c0,3.305-1.664,5.925-4.268,8.003c0.59,0.446,1.121,0.92,1.583,1.423
	c1.831,1.992,2.775,4.461,2.685,6.993V61.223z"/>
<path fill="#FFFFFF" d="M870.608,99.199h-15.062V35.664c0-12.338,4.38-21.634,13.019-27.629c7.782-5.401,19.043-8.027,34.426-8.027
	h7.531V15.07h-7.531c-29.88,0-32.382,10.63-32.382,20.594V99.199z"/>
<path fill="#FFFFFF" d="M990.63,99.199h-15.062V36.664c0-11.814-2.437-21.594-32.382-21.594h-47.727V0.007h47.727
	c20.367,0,47.444,3.8,47.444,36.656V99.199z"/>
<rect x="895.46" y="35.132" fill="#FFFFFF" width="95.171" height="15.063"/>
<rect x="1015.482" y="0.007" fill="#FFFFFF" width="15.062" height="71.172"/>
<path fill="#FFFFFF" d="M1070.742,99.199h-7.531c-11.805,0-47.729,0-47.729-35.551v-7.531h15.062v7.531
	c0,9.912,2.524,20.488,32.666,20.488h7.531V99.199z"/>
<rect x="1055.679" y="84.137" fill="#FFFFFF" width="95.172" height="15.062"/>
<rect x="1135.789" y="0.007" fill="#FFFFFF" width="15.062" height="99.192"/>
<polygon fill="#FFFFFF" points="1190.827,99.199 1175.764,99.199 1175.764,0.007 1248.073,0.007 1248.073,15.07 1190.827,15.07 "/>
<path fill="#FFFFFF" d="M1350.957,43.195h-15.062v-7.531c0-10.853-2.485-20.594-32.502-20.594h-28.273
	c-1.718,0.873-4.299,7.2-4.228,11.516l-15.058,0.373c-0.174-5.242-2.708-11.002-4.213-11.889h-7.4V0.007h7.531
	c4.887,0,8.72,2.189,11.631,5.467c0.164-0.181,0.33-0.357,0.501-0.532c3.131-3.202,6.948-4.909,11.039-4.935h28.47
	c20.419,0,47.564,3.696,47.564,35.656V43.195z"/>
<rect x="1335.895" y="28.132" fill="#FFFFFF" width="15.062" height="71.067"/>
<path fill="#FFFFFF" d="M782.781,99.24h-47.444V84.178h47.444c32.664,0,32.664-13.656,32.664-19.488v-7.531h15.062v7.531
	C830.507,80.451,822.227,99.24,782.781,99.24z"/>
</svg>
