<?xml version="1.0" encoding="utf-8"?>
<!-- Generator: Adobe Illustrator 16.0.0, SVG Export Plug-In . SVG Version: 6.00 Build 0)  -->
<!DOCTYPE svg PUBLIC "-//W3C//DTD SVG 1.1//EN" "http://www.w3.org/Graphics/SVG/1.1/DTD/svg11.dtd">
<svg version="1.1" id="Layer_1" xmlns="http://www.w3.org/2000/svg" xmlns:xlink="http://www.w3.org/1999/xlink" x="0px" y="0px"
	 width="861.919px" height="296.658px" viewBox="0 0 861.919 296.658" enable-background="new 0 0 861.919 296.658"
	 xml:space="preserve">
<g>
	<path fill="#FFFFFF" d="M38.836,290.708l6.315-6.535c1.672-1.716,2.464-3.146,2.464-4.841c0-2.09-1.32-3.234-3.344-3.234
		c-2.024,0-3.455,1.166-3.763,3.741h-1.144c0.242-2.971,2.156-4.753,4.907-4.753c2.706,0,4.577,1.562,4.577,4.291
		c0,1.914-1.056,3.674-2.993,5.566l-5.083,5.039h8.295v1.012H38.836V290.708z"/>
	<path fill="#FFFFFF" d="M50.914,283.799v-1.32c0-4.599,2.244-7.393,5.985-7.393c3.74,0,6.029,2.838,6.029,7.327v1.342
		c0,4.577-2.156,7.415-5.963,7.415C53.224,291.17,50.914,288.376,50.914,283.799z M61.673,283.733v-1.32
		c0-3.851-1.76-6.315-4.774-6.315c-2.993,0-4.731,2.311-4.731,6.359v1.342c0,4.181,1.804,6.337,4.797,6.337
		C60.067,290.136,61.673,287.914,61.673,283.733z"/>
</g>
<g>
	<path fill="#FFFFFF" d="M10.412,258.125v-1.144c0-5.765,2.464-8.317,5.919-8.317c2.31,0,4.048,1.145,4.422,3.586h-1.166
		c-0.33-1.716-1.408-2.552-3.323-2.552c-2.706,0-4.599,2.002-4.643,6.909v0.638c0.726-1.738,2.552-2.685,4.401-2.685
		c3.278,0,5.148,2.2,5.148,5.039c0,3.059-2.068,5.148-5.281,5.148C11.908,264.748,10.412,261.844,10.412,258.125z M19.917,259.644
		c0-2.442-1.43-4.093-4.049-4.093c-2.244,0-4.114,1.475-4.114,3.895c0,2.398,1.408,4.312,4.136,4.312
		C18.333,263.758,19.917,262.086,19.917,259.644z"/>
	<path fill="#FFFFFF" d="M23.018,260.523h1.188c0.264,1.761,1.32,3.213,3.873,3.213c2.508,0,4.004-1.629,4.004-4.269
		c0-2.486-1.606-4.115-3.785-4.115c-1.914,0-3.08,0.727-3.895,1.717h-0.462v-8.229h8.581v1.057h-7.547v5.765
		c0.66-0.66,1.892-1.32,3.521-1.32c2.729,0,4.841,1.98,4.841,5.127c0,3.278-2.223,5.28-5.259,5.28
		C24.888,264.748,23.238,262.834,23.018,260.523z"/>
</g>
<g>
	<path fill="#FFFFFF" d="M125.516,286.945h1.188c0.264,1.761,1.32,3.213,3.873,3.213c2.508,0,4.004-1.629,4.004-4.269
		c0-2.486-1.606-4.115-3.785-4.115c-1.914,0-3.08,0.727-3.895,1.717h-0.462v-8.229h8.581v1.057h-7.547v5.765
		c0.66-0.66,1.892-1.32,3.521-1.32c2.729,0,4.841,1.98,4.841,5.127c0,3.278-2.223,5.28-5.259,5.28
		C127.386,291.17,125.736,289.256,125.516,286.945z"/>
	<path fill="#FFFFFF" d="M137.88,283.799v-1.32c0-4.599,2.244-7.393,5.985-7.393c3.74,0,6.029,2.838,6.029,7.327v1.342
		c0,4.577-2.156,7.415-5.963,7.415C140.19,291.17,137.88,288.376,137.88,283.799z M148.639,283.733v-1.32
		c0-3.851-1.76-6.315-4.774-6.315c-2.993,0-4.731,2.311-4.731,6.359v1.342c0,4.181,1.804,6.337,4.797,6.337
		C147.033,290.136,148.639,287.914,148.639,283.733z"/>
</g>
<g>
	<path fill="#FFFFFF" d="M199.019,276.538l-3.608,2.509v-1.145l3.784-2.641h1.034v15.732h-1.21V276.538z"/>
	<path fill="#FFFFFF" d="M203.616,283.799v-1.32c0-4.599,2.244-7.393,5.985-7.393c3.74,0,6.029,2.838,6.029,7.327v1.342
		c0,4.577-2.156,7.415-5.963,7.415C205.926,291.17,203.616,288.376,203.616,283.799z M214.375,283.733v-1.32
		c0-3.851-1.76-6.315-4.774-6.315c-2.993,0-4.731,2.311-4.731,6.359v1.342c0,4.181,1.804,6.337,4.797,6.337
		C212.77,290.136,214.375,287.914,214.375,283.733z"/>
	<path fill="#FFFFFF" d="M218.114,283.799v-1.32c0-4.599,2.244-7.393,5.985-7.393c3.74,0,6.029,2.838,6.029,7.327v1.342
		c0,4.577-2.156,7.415-5.963,7.415C220.424,291.17,218.114,288.376,218.114,283.799z M228.874,283.733v-1.32
		c0-3.851-1.76-6.315-4.774-6.315c-2.993,0-4.731,2.311-4.731,6.359v1.342c0,4.181,1.804,6.337,4.797,6.337
		C227.268,290.136,228.874,287.914,228.874,283.733z"/>
</g>
<g>
	<path fill="#FFFFFF" d="M265.678,290.708l6.315-6.535c1.672-1.716,2.464-3.146,2.464-4.841c0-2.09-1.32-3.234-3.345-3.234
		c-2.023,0-3.454,1.166-3.762,3.741h-1.144c0.242-2.971,2.156-4.753,4.906-4.753c2.707,0,4.577,1.562,4.577,4.291
		c0,1.914-1.056,3.674-2.993,5.566l-5.082,5.039h8.295v1.012h-10.231V290.708z"/>
	<path fill="#FFFFFF" d="M277.756,283.799v-1.32c0-4.599,2.244-7.393,5.985-7.393c3.74,0,6.028,2.838,6.028,7.327v1.342
		c0,4.577-2.156,7.415-5.963,7.415C280.065,291.17,277.756,288.376,277.756,283.799z M288.515,283.733v-1.32
		c0-3.851-1.76-6.315-4.773-6.315c-2.993,0-4.731,2.311-4.731,6.359v1.342c0,4.181,1.804,6.337,4.797,6.337
		C286.909,290.136,288.515,287.914,288.515,283.733z"/>
	<path fill="#FFFFFF" d="M292.254,283.799v-1.32c0-4.599,2.244-7.393,5.985-7.393c3.74,0,6.028,2.838,6.028,7.327v1.342
		c0,4.577-2.156,7.415-5.963,7.415C294.563,291.17,292.254,288.376,292.254,283.799z M303.013,283.733v-1.32
		c0-3.851-1.76-6.315-4.773-6.315c-2.993,0-4.731,2.311-4.731,6.359v1.342c0,4.181,1.804,6.337,4.797,6.337
		C301.407,290.136,303.013,287.914,303.013,283.733z"/>
</g>
<g>
	<path fill="#FFFFFF" d="M364.655,286.945h1.189c0.264,1.761,1.319,3.213,3.872,3.213c2.509,0,4.005-1.629,4.005-4.269
		c0-2.486-1.606-4.115-3.785-4.115c-1.914,0-3.08,0.727-3.895,1.717h-0.462v-8.229h8.581v1.057h-7.547v5.765
		c0.66-0.66,1.893-1.32,3.521-1.32c2.729,0,4.841,1.98,4.841,5.127c0,3.278-2.223,5.28-5.259,5.28
		C366.526,291.17,364.876,289.256,364.655,286.945z"/>
	<path fill="#FFFFFF" d="M377.021,283.799v-1.32c0-4.599,2.244-7.393,5.984-7.393s6.029,2.838,6.029,7.327v1.342
		c0,4.577-2.156,7.415-5.963,7.415C379.33,291.17,377.021,288.376,377.021,283.799z M387.779,283.733v-1.32
		c0-3.851-1.761-6.315-4.774-6.315c-2.992,0-4.73,2.311-4.73,6.359v1.342c0,4.181,1.804,6.337,4.797,6.337
		C386.173,290.136,387.779,287.914,387.779,283.733z"/>
	<path fill="#FFFFFF" d="M391.519,283.799v-1.32c0-4.599,2.244-7.393,5.984-7.393s6.029,2.838,6.029,7.327v1.342
		c0,4.577-2.156,7.415-5.963,7.415C393.828,291.17,391.519,288.376,391.519,283.799z M402.277,283.733v-1.32
		c0-3.851-1.761-6.315-4.774-6.315c-2.992,0-4.73,2.311-4.73,6.359v1.342c0,4.181,1.804,6.337,4.797,6.337
		C400.671,290.136,402.277,287.914,402.277,283.733z"/>
</g>
<g>
	<path fill="#FFFFFF" d="M454.438,276.538l-3.608,2.509v-1.145l3.784-2.641h1.034v15.732h-1.21V276.538z"/>
	<path fill="#FFFFFF" d="M459.365,273.985h1.166v10.914l5.611-5.413h1.387l-5.611,5.369l5.984,6.139h-1.451l-5.92-6.095v6.095
		h-1.166V273.985z"/>
</g>
<g>
	<path fill="#FFFFFF" d="M520.681,290.708l6.314-6.535c1.672-1.716,2.465-3.146,2.465-4.841c0-2.09-1.32-3.234-3.345-3.234
		s-3.455,1.166-3.763,3.741h-1.145c0.242-2.971,2.156-4.753,4.907-4.753c2.706,0,4.576,1.562,4.576,4.291
		c0,1.914-1.056,3.674-2.992,5.566l-5.083,5.039h8.296v1.012h-10.231V290.708z"/>
	<path fill="#FFFFFF" d="M533.133,273.985h1.166v10.914l5.61-5.413h1.387l-5.611,5.369l5.985,6.139h-1.452l-5.919-6.095v6.095
		h-1.166V273.985z"/>
</g>
<g>
	<path fill="#FFFFFF" d="M622.144,286.945h1.188c0.264,1.761,1.32,3.213,3.872,3.213c2.509,0,4.005-1.629,4.005-4.269
		c0-2.486-1.606-4.115-3.784-4.115c-1.915,0-3.081,0.727-3.895,1.717h-0.462v-8.229h8.581v1.057h-7.548v5.765
		c0.66-0.66,1.893-1.32,3.521-1.32c2.729,0,4.841,1.98,4.841,5.127c0,3.278-2.222,5.28-5.259,5.28
		C624.014,291.17,622.363,289.256,622.144,286.945z"/>
	<path fill="#FFFFFF" d="M635.124,273.985h1.166v10.914l5.61-5.413h1.387l-5.611,5.369l5.985,6.139h-1.452l-5.919-6.095v6.095
		h-1.166V273.985z"/>
</g>
<g>
	<path fill="#FFFFFF" d="M695.206,276.538l-3.608,2.509v-1.145l3.785-2.641h1.034v15.732h-1.211V276.538z"/>
	<path fill="#FFFFFF" d="M699.826,283.799v-1.32c0-4.599,2.244-7.393,5.985-7.393c3.74,0,6.028,2.838,6.028,7.327v1.342
		c0,4.577-2.156,7.415-5.963,7.415C702.137,291.17,699.826,288.376,699.826,283.799z M710.586,283.733v-1.32
		c0-3.851-1.76-6.315-4.774-6.315c-2.992,0-4.73,2.311-4.73,6.359v1.342c0,4.181,1.804,6.337,4.796,6.337
		C708.979,290.136,710.586,287.914,710.586,283.733z"/>
	<path fill="#FFFFFF" d="M714.721,273.985h1.166v10.914l5.61-5.413h1.387l-5.611,5.369l5.985,6.139h-1.452l-5.919-6.095v6.095
		h-1.166V273.985z"/>
</g>
<g>
	<path fill="#FFFFFF" d="M762.769,290.708l6.314-6.535c1.672-1.716,2.465-3.146,2.465-4.841c0-2.09-1.32-3.234-3.345-3.234
		s-3.455,1.166-3.763,3.741h-1.145c0.242-2.971,2.156-4.753,4.907-4.753c2.706,0,4.576,1.562,4.576,4.291
		c0,1.914-1.056,3.674-2.992,5.566l-5.083,5.039H773v1.012h-10.231V290.708z"/>
	<path fill="#FFFFFF" d="M774.846,283.799v-1.32c0-4.599,2.244-7.393,5.985-7.393c3.74,0,6.028,2.838,6.028,7.327v1.342
		c0,4.577-2.156,7.415-5.963,7.415C777.156,291.17,774.846,288.376,774.846,283.799z M785.605,283.733v-1.32
		c0-3.851-1.76-6.315-4.774-6.315c-2.992,0-4.73,2.311-4.73,6.359v1.342c0,4.181,1.804,6.337,4.796,6.337
		C783.999,290.136,785.605,287.914,785.605,283.733z"/>
	<path fill="#FFFFFF" d="M789.74,273.985h1.166v10.914l5.61-5.413h1.387l-5.611,5.369l5.985,6.139h-1.452l-5.919-6.095v6.095h-1.166
		V273.985z"/>
</g>
<g>
	<path fill="#FFFFFF" d="M810.663,141.151h-8.119v-0.374l7.612-11.815h1.717v11.178h2.178v1.012h-2.178v3.543h-1.21V141.151z
		 M810.663,140.14v-10.275l-6.491,10.275H810.663z"/>
	<path fill="#FFFFFF" d="M815.743,140.646h1.188c0.264,1.761,1.32,3.213,3.872,3.213c2.509,0,4.005-1.628,4.005-4.269
		c0-2.486-1.606-4.115-3.784-4.115c-1.915,0-3.081,0.727-3.895,1.717h-0.462v-8.229h8.581v1.057h-7.548v5.765
		c0.66-0.66,1.893-1.32,3.521-1.32c2.729,0,4.841,1.98,4.841,5.127c0,3.278-2.222,5.28-5.259,5.28
		C817.613,144.87,815.963,142.956,815.743,140.646z"/>
	<path fill="#FFFFFF" d="M827.381,132.043c0-1.805,1.496-3.279,3.366-3.279c1.849,0,3.345,1.475,3.345,3.279
		c0,1.782-1.496,3.256-3.345,3.256C828.877,135.299,827.381,133.825,827.381,132.043z M833.036,132.043
		c0-1.343-0.969-2.421-2.289-2.421c-1.342,0-2.332,1.078-2.332,2.421c0,1.342,0.99,2.397,2.332,2.397
		C832.067,134.44,833.036,133.385,833.036,132.043z"/>
</g>
<g>
	<path fill="#FFFFFF" d="M802.632,96.535h1.122c0.198,1.98,1.474,3.608,4.158,3.608c2.53,0,3.938-1.299,3.938-3.521
		c0-2.024-1.144-3.366-3.586-3.366h-1.145v-1.034h1.057c2.266,0,3.19-1.343,3.19-2.993c0-1.782-1.123-3.124-3.235-3.124
		c-2.178,0-3.586,1.386-3.784,3.278h-1.1c0.153-2.398,2.112-4.312,4.884-4.312c2.795,0,4.423,1.893,4.423,4.137
		c0,1.716-1.034,2.97-2.574,3.454c1.87,0.418,3.125,1.782,3.125,3.961c0,2.86-2.135,4.532-5.215,4.532
		C804.656,101.155,802.741,99.043,802.632,96.535z"/>
	<path fill="#FFFFFF" d="M815.347,93.784v-1.32c0-4.599,2.244-7.393,5.985-7.393c3.74,0,6.028,2.838,6.028,7.327v1.342
		c0,4.577-2.156,7.415-5.963,7.415C817.657,101.155,815.347,98.361,815.347,93.784z M826.106,93.719v-1.32
		c0-3.851-1.76-6.315-4.774-6.315c-2.992,0-4.73,2.311-4.73,6.359v1.342c0,4.181,1.804,6.337,4.796,6.337
		C824.5,100.121,826.106,97.899,826.106,93.719z"/>
	<path fill="#FFFFFF" d="M829.581,88.328c0-1.805,1.496-3.279,3.366-3.279c1.849,0,3.345,1.475,3.345,3.279
		c0,1.782-1.496,3.256-3.345,3.256C831.077,91.584,829.581,90.11,829.581,88.328z M835.236,88.328c0-1.343-0.969-2.421-2.289-2.421
		c-1.342,0-2.332,1.078-2.332,2.421c0,1.342,0.99,2.397,2.332,2.397C834.268,90.726,835.236,89.67,835.236,88.328z"/>
</g>
<g>
	<path fill="#FFFFFF" d="M815.326,70.2v-1.32c0-4.599,2.244-7.393,5.985-7.393c3.74,0,6.028,2.838,6.028,7.327v1.342
		c0,4.577-2.156,7.415-5.963,7.415C817.637,77.571,815.326,74.777,815.326,70.2z M826.086,70.135v-1.32
		c0-3.851-1.76-6.315-4.774-6.315c-2.992,0-4.73,2.311-4.73,6.359V70.2c0,4.181,1.804,6.337,4.796,6.337
		C824.479,76.537,826.086,74.315,826.086,70.135z"/>
	<path fill="#FFFFFF" d="M829.561,64.744c0-1.805,1.496-3.279,3.366-3.279c1.849,0,3.345,1.475,3.345,3.279
		c0,1.782-1.496,3.256-3.345,3.256C831.057,68,829.561,66.526,829.561,64.744z M835.216,64.744c0-1.343-0.969-2.421-2.289-2.421
		c-1.342,0-2.332,1.078-2.332,2.421c0,1.342,0.99,2.397,2.332,2.397C834.247,67.142,835.216,66.086,835.216,64.744z"/>
</g>
<g>
	<path fill="#FFFFFF" d="M807.406,275.239h1.232v7.327h9.263v-7.327h1.232v15.732h-1.232v-7.371h-9.263v7.371h-1.232V275.239z"/>
	<path fill="#FFFFFF" d="M821.178,290.773l7.48-10.319h-6.82v-0.99h8.646v0.22l-7.415,10.254h7.262v1.034h-9.153V290.773z"/>
</g>
<g>
	<path fill="#FFFFFF" d="M18.179,203.366H9.664v-1.013h10.055v0.198l-6.139,15.534h-1.254L18.179,203.366z"/>
	<path fill="#FFFFFF" d="M20.51,210.891v-1.32c0-4.599,2.244-7.393,5.985-7.393c3.74,0,6.029,2.838,6.029,7.327v1.342
		c0,4.577-2.156,7.415-5.963,7.415C22.82,218.262,20.51,215.468,20.51,210.891z M31.27,210.825v-1.32
		c0-3.851-1.76-6.315-4.774-6.315c-2.993,0-4.731,2.311-4.731,6.359v1.342c0,4.181,1.804,6.337,4.797,6.337
		C29.664,217.228,31.27,215.006,31.27,210.825z"/>
</g>
<g>
	<path fill="#FFFFFF" d="M18.091,155.824H9.576v-1.013h10.055v0.198l-6.139,15.534h-1.254L18.091,155.824z"/>
	<path fill="#FFFFFF" d="M20.642,166.495h1.188c0.264,1.761,1.32,3.213,3.873,3.213c2.508,0,4.004-1.628,4.004-4.269
		c0-2.486-1.606-4.115-3.785-4.115c-1.914,0-3.08,0.727-3.895,1.717h-0.462v-8.229h8.581v1.057h-7.547v5.765
		c0.66-0.66,1.892-1.32,3.521-1.32c2.729,0,4.841,1.98,4.841,5.127c0,3.278-2.223,5.28-5.259,5.28
		C22.513,170.72,20.862,168.806,20.642,166.495z"/>
</g>
<g>
	<path fill="#FFFFFF" d="M10.104,117.919c0-2.2,1.497-3.63,3.455-4.137c-1.606-0.462-2.794-1.649-2.794-3.432
		c0-2.442,2.245-3.961,4.621-3.961c2.398,0,4.599,1.562,4.599,3.916c0,1.827-1.144,2.971-2.75,3.477
		c2.024,0.528,3.41,1.915,3.41,4.093c0,3.037-2.464,4.599-5.259,4.599C12.701,122.474,10.104,120.934,10.104,117.919z
		 M19.39,117.831c0-2.267-1.782-3.498-3.961-3.498c-2.178,0-4.07,1.254-4.07,3.542c0,2.377,1.826,3.564,4.026,3.564
		C17.717,121.439,19.39,120.229,19.39,117.831z M18.751,110.306c0-1.716-1.43-2.926-3.367-2.926c-1.936,0-3.388,1.144-3.388,2.971
		c0,1.958,1.716,2.992,3.454,2.992C17.321,113.343,18.751,112.286,18.751,110.306z"/>
	<path fill="#FFFFFF" d="M22.82,115.103v-1.32c0-4.599,2.244-7.393,5.985-7.393c3.74,0,6.029,2.838,6.029,7.327v1.342
		c0,4.577-2.156,7.415-5.963,7.415C25.13,122.474,22.82,119.68,22.82,115.103z M33.58,115.037v-1.32c0-3.851-1.76-6.315-4.774-6.315
		c-2.993,0-4.731,2.311-4.731,6.359v1.342c0,4.181,1.804,6.337,4.797,6.337C31.974,121.439,33.58,119.218,33.58,115.037z"/>
</g>
<g>
	<path fill="#FFFFFF" d="M10.192,72.093c0-2.2,1.497-3.63,3.455-4.137c-1.606-0.462-2.794-1.649-2.794-3.432
		c0-2.442,2.245-3.961,4.621-3.961c2.398,0,4.599,1.562,4.599,3.916c0,1.827-1.144,2.971-2.75,3.477
		c2.024,0.528,3.41,1.915,3.41,4.093c0,3.037-2.464,4.599-5.259,4.599C12.789,76.647,10.192,75.107,10.192,72.093z M19.478,72.005
		c0-2.267-1.782-3.498-3.961-3.498c-2.178,0-4.07,1.254-4.07,3.542c0,2.377,1.826,3.564,4.026,3.564
		C17.805,75.613,19.478,74.403,19.478,72.005z M18.839,64.479c0-1.716-1.43-2.926-3.367-2.926c-1.936,0-3.388,1.144-3.388,2.971
		c0,1.958,1.716,2.992,3.454,2.992C17.409,67.517,18.839,66.46,18.839,64.479z"/>
	<path fill="#FFFFFF" d="M22.578,72.423h1.188c0.264,1.761,1.32,3.213,3.873,3.213c2.508,0,4.004-1.628,4.004-4.269
		c0-2.486-1.606-4.115-3.785-4.115c-1.914,0-3.08,0.727-3.895,1.717h-0.462v-8.229h8.581v1.057h-7.547v5.765
		c0.66-0.66,1.892-1.32,3.521-1.32c2.729,0,4.841,1.98,4.841,5.127c0,3.278-2.223,5.28-5.259,5.28
		C24.448,76.647,22.798,74.733,22.578,72.423z"/>
</g>
<g>
	<path fill="#FFFFFF" d="M9.994,20.393v-0.176c0-3.543,2.31-5.919,5.347-5.919c2.266,0,3.542,1.298,4.203,2.729V8.973h1.166v17.009
		h-1.166v-2.662c-0.616,1.386-2.222,2.838-4.379,2.838C12.238,26.157,9.994,24.045,9.994,20.393z M19.565,20.305v-0.176
		c0-3.169-1.716-4.841-4.115-4.841c-2.464,0-4.247,1.782-4.247,4.885v0.176c0,3.146,1.782,4.818,4.071,4.818
		C17.607,25.167,19.565,23.473,19.565,20.305z"/>
	<path fill="#FFFFFF" d="M24.14,10.249h4.466c2.772,0,4.775,1.122,4.775,3.983v0.088c0,1.738-0.924,2.926-2.685,3.41
		c2.354,0.439,3.455,1.694,3.455,3.828v0.088c0,2.883-1.892,4.335-4.885,4.335H24.14V10.249z M28.629,17.334
		c2.398,0,3.542-1.057,3.542-3.036V14.21c0-2.046-1.276-2.971-3.587-2.971H25.35v6.095H28.629z M29.245,24.991
		c2.464,0,3.719-1.166,3.719-3.345v-0.088c0-2.156-1.386-3.256-4.137-3.256H25.35v6.688H29.245z"/>
</g>
<path fill="none" stroke="#FFFFFF" stroke-width="0.96" stroke-miterlimit="10" d="M750.539,149.915v74.626 M708.276,172.968v51.573
	 M696.751,172.968v51.573 M683.304,173.929v50.612 M667.936,170.087v87.405 M651.607,172.968v84.524 M608.385,137.43v120.062
	 M577.648,140.311v117.182 M532.505,151.837v105.655 M504.65,141.271v116.221 M460.468,121.102v136.391 M447.98,127.824v129.668
	 M435.494,129.745v127.747 M422.048,123.021v134.471 M404.759,120.141v137.352 M385.549,124.943v132.549 M362.497,187.376v37.165
	 M362.497,112.456v66.274 M331.761,154.719v69.822 M331.761,93.246v54.749 M286.618,154.719v69.822 M286.618,93.246v53.788
	 M257.802,151.837v104.694 M257.802,93.246v51.867 M213.619,142.232v114.299 M213.619,74.036v61.473 M202.093,147.995v108.536
	 M202.093,70.194v71.077 M189.606,150.877v106.615 M189.606,70.194v74.919 M175.199,151.837v105.655 M175.199,65.392v79.722
	 M157.91,154.719v102.773 M157.832,73.076l0.15,74.919 M138.701,173.929v83.563 M138.701,90.365v75.879 M115.647,184.493v72.999
	 M115.647,106.693v70.117 M83.952,213.309v44.184 M83.952,158.561v46.104"/>
<line fill="none" stroke="#FFFFFF" stroke-width="0.96" stroke-linecap="round" stroke-miterlimit="10" x1="781.274" y1="93.246" x2="781.274" y2="257.492"/>
<path fill="none" stroke="#FFFFFF" stroke-width="0.96" stroke-miterlimit="10" d="M39.289,257.012h741.506 M633.357,153.758
	v103.734"/>
<g>
	<defs>
		<rect id="SVGID_1_" width="861.919" height="296.658"/>
	</defs>
	<clipPath id="SVGID_2_">
		<use xlink:href="#SVGID_1_"  overflow="visible"/>
	</clipPath>
	<path clip-path="url(#SVGID_2_)" fill="none" stroke="#FFFFFF" stroke-width="0.96" stroke-linecap="round" d="M60.055,257.012
		l4.206-19.81l9.965-43.043l10.626-37.189l7.474-8.87l8.779-15.12l8.292-16.444c0,0,6.367-12.004,9.489-13.686
		c3.122-1.681,20.773-13.086,20.773-13.086l19.211-17.168c0,0,5.043-3.842,8.045-5.522c3.001-1.682,7.924-2.762,12.606-1.2
		c4.683,1.56,5.403,4.321,12.006,4.562c6.604,0.24,16.929,0.24,16.929,0.24s11.046,7.084,12.727,8.765s7.324,6.483,7.324,6.483
		s20.17,7.684,26.894,7.324c6.723-0.36,21.131-1.321,21.131-1.321l16.929,1.681l10.685-3.122c0,0,15.608,3.362,16.93,4.323
		c1.32,0.96,6.242-0.48,6.242-0.48l7.324-1.682l17.89,11.526c0,0,6.364,6.964,6.964,7.684c0.6,0.722,4.802,1.562,6.843,1.081
		c2.042-0.479,5.043,0,6.724,1.562c1.682,1.561,9.485,10.085,12.006,10.205c2.522,0.12,5.884-0.36,6.845-0.601
		c0.96-0.239,4.683-2.041,5.042-2.041c0.361,0,3.242,0.48,3.242,0.48s3.361-2.041,4.441-2.521c1.082-0.48,4.323-0.36,5.164,0.36
		c0.84,0.72,3.241,3.602,5.643,3.962c2.4,0.36,9.365-2.401,9.365-2.401s5.643,3.723,7.804,6.003c2.16,2.281,4.803,1.922,6.242,1.441
		c1.441-0.48,5.884-1.321,5.884-1.321l5.883-0.479c0,0,7.925-4.563,9.365-6.003c1.44-1.441,5.883-6.364,6.364-6.484
		c0.479-0.12,1.199-0.96,4.201,1.321s14.647,10.085,14.647,10.085s7.563,9.005,8.524,9.485c0.961,0.479,11.887,5.402,11.887,5.402
		l8.164,7.444c0,0,2.041,3.001,5.522,3.121c3.482,0.12,14.769,0,14.769,0s3.001-0.721,3.842-1.44c0.84-0.721,2.281,0.84,3.962,2.521
		c1.681,1.681,9.604,4.202,9.604,4.202l2.762,0.239l25.093-18.309l9.005-7.985h4.202l6.604,7.564c0,0,3.603,1.561,5.162,0.961
		c1.562-0.601,8.886-4.682,9.605-4.562c0.721,0.12,6.483,9.485,7.324,10.205c0.841,0.721,5.643,7.564,6.123,8.044
		c0.48,0.48,4.442,1.081,5.163,0.601c0.72-0.48,6.482-3.723,6.482-3.723s5.163,7.806,5.523,9.245
		c0.36,1.441,0.601,7.324,0.961,8.285c0.359,0.96,5.162,5.522,6.123,5.522c0.96,0,2.521-0.601,3.122-0.721
		c0.6-0.119,5.521-3.602,5.521-3.602s5.163,1.321,5.764,1.561c0.601,0.24,5.763-0.6,5.763-0.6s6.604,1.08,7.805,2.041
		c1.2,0.96,7.683,3.482,8.524,3.121c0.84-0.36,10.806-2.641,11.405-3.481c0.601-0.841,7.564-0.24,8.645,1.08
		c1.081,1.321,12.727,9.846,12.967,9.365c0.24-0.479,2.522-0.24,4.202-2.281c1.681-2.041,4.923-3.722,6.964-4.082
		c2.041-0.359,3.962-1.32,6.123-5.163c2.161-3.842,3.482-3.481,3.482-3.481L745.016,157c0,0,3.603-6.363,5.042-6.725
		c1.441-0.359,4.804,3.062,5.644,3.903c0.841,0.84,0.36,1.021,1.921,1.021h1.081l5.282-10.445c0,0,6.483-19.451,9.966-17.409
		c3.48,2.041,7.324,9.484,7.324,9.484 M56.728,257.012l28.184-105.895l13.207-19.69l6.964-15.608l4.802-11.285l5.523-6.484
		l4.562-4.802l19.691-10.326l12.006-11.045l7.203-6.244l7.925-5.522h11.766l6.243,2.882l5.763,1.2l12.486-1.681
		c0,0,10.086,3.362,11.767,5.523c1.68,2.16,9.124,8.644,18.249,11.284c9.125,2.643,12.727,3.362,12.727,3.362
		s7.924,0.642,14.407,0.161c6.484-0.481,10.086-0.641,10.086-0.641s5.522-1.762,5.843-1.841c0.319-0.08,16.09,6.162,23.532,1.36
		c7.444-4.803,4.162-2.721,4.162-2.721l19.05,5.762l8.725-4.161l8.484,4.322l8.965,4.641c0,0,4.801,3.043,9.924,0.162
		c5.125-2.882,6.404-3.043,6.404-3.043s3.362,1.281,5.283,3.523c1.921,2.24,14.729,13.927,14.729,13.927s1.119,2.72,5.603,1.12
		c4.481-1.601,7.203-4.802,7.203-4.802l4.323-0.641c0,0,4.481,3.521,7.523,3.521s8.043-3.684,8.043-3.684l4.924-1.759
		c0,0,4.002,6.243,10.565,5.283c6.564-0.961,12.967-7.684,13.447-7.684s4.961-1.121,4.961-1.121l8.326-0.161l2.08-2.401l4.323,1.441
		l14.887,17.129l2.562-0.48l15.848,6.082c0,0,6.084-4.803,6.564-4.803s11.846,2.083,11.846,2.083l3.042-1.921l4.962,0.96
		l6.084-2.401l5.764-0.479l5.121-0.961l15.049-4.003c0,0,2.081-5.121,3.201-5.603c1.121-0.479,4.803,0.481,6.243,0.481
		c1.441,0,10.726,4.001,10.726,4.001s3.843-0.48,5.604-1.441c1.76-0.96,6.403,4.644,6.403,4.644s4.803-2.401,5.603-1.602
		c0.801,0.8,6.403,8.164,7.204,10.085c0.8,1.921,7.524,7.044,9.285,8.646c1.76,1.601,8.164,10.246,8.164,10.246
		s10.565,5.601,12.646,6.401c2.081,0.801,4.003,0,4.003,0l3.842-3.202l4.003,0.161l7.202-7.523l11.208,0.479l8.322-7.524
		c0,0,1.441-2.561,5.925,0c4.481,2.562,7.201,5.604,10.885,1.921c3.683-3.681,5.923-5.121,5.923-5.121s4.963,3.521,4.963,5.283
		c0,1.759,5.283,8.804,5.283,8.804s2.721-0.641,7.043-1.762c4.323-1.12,11.847-6.724,12.007-7.204
		c0.159-0.48,3.681-0.799,3.681-0.799l4.804,4.962l6.402,17.929l7.685,0.161l10.726-32.338c0,0,8.003-1.441,10.245-7.204
		c2.242-5.764,3.522-11.364,3.522-11.364l1.921-4.964l3.842-3.362l4.038,5.161 M55.432,257.012L81.19,153.158
		c0,0,30.076-55.289,32.717-59.852c2.642-4.562,9.875-8.915,9.875-8.915s12.021-4.577,15.864-7.459
		c3.842-2.881,19.217-13.214,19.217-13.214l8.648-6.727l13.449,1.438l6.004,2.16l16.089-3.603l10.566,3.602l10.325,6.723
		l13.687,6.964l21.132-0.961l14.167-0.96l14.647,3.362l18.009-6.484l18.01,5.764l9.125-2.161l9.125,2.4l21.61-4.321l8.404,2.4
		l9.364,9.847l6.965,3.842l6.964-1.681l5.762-2.161l6.244,0.72l7.924-3.122l7.925,0.721l13.446-0.961l12.486-7.204l8.164-1.921
		l8.885,3.842l5.043,6.244c0,0,13.687,1.2,15.128,0.721c1.441-0.48,3.842,3.122,3.842,3.122l12.486-2.883l3.122-4.802l6.243-4.562
		l11.046-3.121c0,0,8.164,7.203,8.403,8.164c0.241,0.96,3.603,0.239,6.964,3.122c3.362,2.881,7.685-0.722,7.685-0.722l4.562-4.082
		l9.846-5.282l5.043,1.921l4.562,2.401l4.563,2.642l4.082-0.24l4.082,0.96c0,0,11.766-6.723,13.207-8.645
		c1.44-1.921,6.242-0.479,6.242-0.479l6.004,3.121l1.2-0.96l8.404,4.082l2.162-0.24l6.003-3.842l5.523,1.439l8.884-2.4l6.482,6.483
		l8.165,0.96l6.724,8.886l8.645,0.96l9.845-1.921l2.401-1.201l8.646,2.642l4.082-3.842l4.321-0.24l5.043-4.803l6.724,1.201
		l7.924-3.603h9.604l7.925-4.562l6.243,4.082l8.404-0.24l15.368-6.003c0,0,6.003-3.362,6.964-0.241
		c0.96,3.122,7.444,24.253,7.444,24.253"/>
</g>
<path fill="none" stroke="#FFFFFF" stroke-width="0.96" stroke-miterlimit="10" d="M78.669,161.923h-39.38 M152.628,67.793H39.289
	 M101.721,114.857H39.289"/>
<path fill="none" stroke="#FFFFFF" stroke-width="0.96" stroke-miterlimit="10" d="M71.945,256.892l8.044-38.96l6.424-7.955
	l6.213-7.458l9.83-4.569l5.035-6.247l8.161-7.206l10.323-9.847l5.282-1.441l7.443,0.961l9.845-8.404l7.444-9.604l6.723-3.843
	l9.605-1.921l6.244,3.121l8.404-3.121h10.806l20.89-10.326l6.724-1.681l4.322,1.201l8.645,10.325l10.085,5.283l9.365-2.882
	l4.322-5.043l10.806-3.361l13.687,10.445l4.322,7.564h2.882l3.842,2.881l8.164-2.881l4.322-3.122l9.605,1.183l12.006-5.744
	l13.447,7.202l17.288,26.654 M773.11,68.754h25.934 M780.794,92.767h18.25 M780.794,135.989h18.25"/>
<line fill="none" stroke="#FFFFFF" stroke-width="0.96" stroke-miterlimit="10" x1="67.413" y1="209.11" x2="39.573" y2="209.11"/>
<rect x="258.009" y="224.541" fill="none" width="104.303" height="32.411"/>
<rect x="258.009" y="224.541" fill="none" stroke="#FFFFFF" width="104.303" height="32.411"/>
<g>
	<path fill="#FFFFFF" d="M274.259,232.101h1.85l6.423,17.871h-1.399l-1.975-5.474h-8.048l-1.95,5.474h-1.324L274.259,232.101z
		 M271.509,243.373h7.248l-3.623-10.122L271.509,243.373z"/>
	<path fill="#FFFFFF" d="M284.26,241.148v-0.199c0-5.274,3.624-9.073,8.298-9.073c3.699,0,6.674,1.925,7.223,5.599h-1.398
		c-0.551-2.874-2.5-4.474-5.799-4.474c-4,0-6.898,3.199-6.898,7.923v0.2c0,4.823,2.649,7.873,6.898,7.873
		c3.225,0,5.523-1.7,6.098-4.774h1.301c-0.65,3.85-3.574,5.949-7.424,5.949C287.459,250.172,284.26,246.548,284.26,241.148z"/>
	<path fill="#FFFFFF" d="M307.033,233.251h-5.548v-1.15h12.471v1.15h-5.548v16.721h-1.375V233.251z"/>
	<path fill="#FFFFFF" d="M317.209,232.101h1.399v17.871h-1.399V232.101z"/>
	<path fill="#FFFFFF" d="M321.834,232.101h1.375l5.974,16.496l5.799-16.496h1.299l-6.323,17.871h-1.649L321.834,232.101z"/>
	<path fill="#FFFFFF" d="M339.483,232.101h10.273v1.15h-8.873v6.973h7.198v1.15h-7.198v7.448h9.322v1.149h-10.723V232.101z"/>
</g>
<rect x="668.009" y="224.541" fill="none" width="113" height="32.411"/>
<rect x="668.009" y="224.541" fill="none" stroke="#FFFFFF" width="113" height="32.411"/>
<g>
	<path fill="#FFFFFF" d="M677.499,232.101h4.724c3.474,0,6.099,1.4,6.099,5.024v0.1c0,3.674-2.6,5.099-6.074,5.099h-3.349v7.648
		h-1.399V232.101z M682.348,241.199c2.874,0,4.573-1.225,4.573-3.975v-0.1c0-2.899-1.824-3.874-4.623-3.874h-3.399v7.948H682.348z"
		/>
	<path fill="#FFFFFF" d="M695.322,232.101h1.85l6.424,17.871h-1.4l-1.974-5.474h-8.049l-1.949,5.474h-1.324L695.322,232.101z
		 M692.573,243.373h7.248l-3.624-10.122L692.573,243.373z"/>
	<path fill="#FFFFFF" d="M705.474,244.848h1.375c0.3,2.25,1.549,4.174,5.273,4.174c2.799,0,4.624-1.624,4.624-3.823
		c0-2.5-1.2-3.375-4.799-3.925c-3.899-0.574-5.773-1.874-5.773-4.698c0-2.774,2.274-4.674,5.623-4.674
		c3.324,0,5.349,1.649,5.749,4.499h-1.275c-0.425-2.225-1.824-3.35-4.474-3.35c-2.749,0-4.324,1.274-4.324,3.424
		c0,1.95,0.976,3,4.699,3.55c3.999,0.6,5.924,1.725,5.924,5.073c0,2.824-2.375,5.074-5.974,5.074
		C707.698,250.172,705.849,247.772,705.474,244.848z"/>
	<path fill="#FFFFFF" d="M720.974,244.848h1.375c0.3,2.25,1.549,4.174,5.273,4.174c2.799,0,4.624-1.624,4.624-3.823
		c0-2.5-1.2-3.375-4.799-3.925c-3.899-0.574-5.773-1.874-5.773-4.698c0-2.774,2.274-4.674,5.623-4.674
		c3.324,0,5.349,1.649,5.749,4.499h-1.275c-0.425-2.225-1.824-3.35-4.474-3.35c-2.749,0-4.324,1.274-4.324,3.424
		c0,1.95,0.976,3,4.699,3.55c3.999,0.6,5.924,1.725,5.924,5.073c0,2.824-2.375,5.074-5.974,5.074
		C723.198,250.172,721.349,247.772,720.974,244.848z"/>
	<path fill="#FFFFFF" d="M737.673,232.101h1.399v17.871h-1.399V232.101z"/>
	<path fill="#FFFFFF" d="M742.272,232.101h1.375l5.974,16.496l5.799-16.496h1.299l-6.323,17.871h-1.649L742.272,232.101z"/>
	<path fill="#FFFFFF" d="M759.923,232.101h10.272v1.15h-8.873v6.973h7.198v1.15h-7.198v7.448h9.322v1.149h-10.722V232.101z"/>
</g>
<g>
</g>
<g>
</g>
<g>
</g>
<g>
</g>
<g>
</g>
<g>
</g>
<g>
</g>
<g>
</g>
<g>
</g>
<g>
</g>
<g>
</g>
<g>
</g>
<g>
</g>
<g>
</g>
<g>
</g>
</svg>
