<?xml version="1.0" encoding="utf-8"?>
<!-- Generator: Adobe Illustrator 16.0.0, SVG Export Plug-In . SVG Version: 6.00 Build 0)  -->
<!DOCTYPE svg PUBLIC "-//W3C//DTD SVG 1.1//EN" "http://www.w3.org/Graphics/SVG/1.1/DTD/svg11.dtd">
<svg version="1.1" id="Layer_1" xmlns="http://www.w3.org/2000/svg" xmlns:xlink="http://www.w3.org/1999/xlink" x="0px" y="0px"
	 width="192.208px" height="198.39px" viewBox="0 0 192.208 198.39" enable-background="new 0 0 192.208 198.39"
	 xml:space="preserve">
<g>
	<path fill-rule="evenodd" clip-rule="evenodd" d="M-160.56,138.031c2.727-17.255,5.454-34.51,8.182-51.764
		c-0.133-0.031-0.266-0.063-0.4-0.095c-5.371,16.512-10.744,33.023-16.164,49.688c-0.804-0.299-1.402-0.52-2.114-0.785
		c5.361-16.517,10.679-32.898,15.996-49.279c-0.14-0.059-0.279-0.117-0.42-0.175c-7.814,15.328-15.629,30.655-23.525,46.138
		c-0.675-0.289-1.251-0.535-2.085-0.893c7.814-15.348,15.556-30.553,23.297-45.759c-0.15-0.099-0.299-0.198-0.449-0.298
		c-10.004,13.759-20.009,27.52-30.12,41.426c-0.605-0.389-1.136-0.729-1.912-1.226c10.133-13.958,20.172-27.786,30.308-41.749
		c-12.173,12.175-24.215,24.219-36.341,36.348c-0.955-0.769-1.449-1.166-2.069-1.664c12.391-12.386,24.68-24.668,36.969-36.952
		c-0.127-0.141-0.255-0.282-0.383-0.423c-14.01,10.173-28.02,20.346-42.141,30.599c-0.502-0.607-0.909-1.104-1.446-1.756
		c14.072-10.229,28.031-20.378,41.989-30.526c-0.072-0.13-0.144-0.26-0.216-0.39c-15.367,7.822-30.733,15.644-46.235,23.536
		c-0.341-0.7-0.619-1.268-0.993-2.035c15.417-7.861,30.7-15.652,45.982-23.443c-0.059-0.151-0.117-0.303-0.176-0.454
		c-16.3,5.29-32.601,10.579-49.047,15.916c-0.263-0.635-0.51-1.229-0.866-2.087c16.53-5.376,32.898-10.701,49.267-16.025
		c-0.03-0.159-0.06-0.317-0.09-0.475c-16.944,2.675-33.889,5.35-50.812,8.022c-0.801-2.176-0.796-2.15,1.442-2.504
		c16.305-2.577,32.609-5.165,48.916-8.202c-0.722,0-1.444,0-2.166,0c-15.788,0-31.575-0.007-47.362,0.012
		c-1.419,0.001-2.683,0.021-1.967-2.158c17.518,0,35.087,0,52.655,0c0.018-0.163,0.036-0.325,0.055-0.487
		c-17.323-2.755-34.647-5.51-52.13-8.29c0.104-0.771,0.188-1.394,0.298-2.219c17.415,2.755,34.672,5.485,51.931,8.216
		c0.032-0.112,0.064-0.224,0.097-0.335c-16.589-5.396-33.178-10.793-49.944-16.248c0.173-0.711,0.322-1.32,0.536-2.195
		c16.66,5.407,33.158,10.763,49.656,16.118c0.051-0.128,0.103-0.255,0.154-0.383c-15.423-7.863-30.846-15.726-46.408-23.66
		c0.345-0.712,0.622-1.285,0.988-2.041c15.204,7.741,30.276,15.416,45.35,23.091c0.106-0.168,0.213-0.336,0.32-0.505
		c-13.656-9.929-27.312-19.858-41.112-29.891c0.377-0.617,0.708-1.157,1.187-1.94c13.865,10.065,27.621,20.051,41.545,30.161
		c-12.155-12.15-24.146-24.138-36.222-36.209c0.912-1.001,1.347-1.479,1.832-2.011c12.408,12.418,24.721,24.74,37.033,37.062
		c0.135-0.111,0.269-0.223,0.403-0.334c-10.229-14.088-20.458-28.176-30.774-42.385c0.667-0.454,1.2-0.815,1.879-1.277
		c9.964,13.708,19.844,27.298,29.723,40.889c0.187-0.104,0.373-0.209,0.559-0.313c-7.609-14.953-15.219-29.906-22.904-45.009
		c0.598-0.386,1.135-0.732,1.909-1.231c7.882,15.454,15.71,30.806,23.538,46.159c0.15-0.056,0.299-0.111,0.448-0.167
		c-5.292-16.305-10.583-32.61-15.938-49.108c0.679-0.262,1.261-0.487,2.104-0.813c5.408,16.621,10.771,33.101,16.133,49.581
		c0.138-0.036,0.277-0.072,0.416-0.107c-2.695-17.036-5.391-34.072-8.114-51.283c0.652-0.208,1.255-0.4,2.161-0.688
		c2.767,17.421,5.503,34.654,8.24,51.886c0.125-0.008,0.249-0.017,0.374-0.024c0-17.536,0-35.071,0-52.606c0.751,0,1.503,0,2.255,0
		c0,17.641,0,35.282,0,52.922c0.126,0.005,0.252,0.01,0.377,0.014c2.75-17.32,5.5-34.641,8.276-52.122
		c0.838,0.215,1.457,0.374,2.181,0.559c-2.73,17.248-5.438,34.35-8.145,51.453c0.133,0.034,0.266,0.067,0.399,0.101
		c5.371-16.5,10.742-33,16.157-49.636c0.821,0.282,1.406,0.484,2.129,0.733c-5.377,16.563-10.686,32.914-15.994,49.266
		c0.142,0.055,0.283,0.111,0.425,0.167c7.831-15.352,15.661-30.704,23.562-46.195c0.75,0.422,1.301,0.733,1.972,1.11
		c-7.833,15.387-15.594,30.632-23.354,45.876c0.143,0.08,0.287,0.159,0.43,0.238c10.094-13.879,20.187-27.758,30.37-41.76
		c0.729,0.63,1.205,1.042,1.723,1.489c-10.225,14.076-20.352,28.02-30.479,41.963c0.107,0.093,0.214,0.186,0.321,0.279
		c12.229-12.235,24.457-24.47,36.758-36.777c0.632,0.67,1.084,1.15,1.803,1.912c-12.199,12.191-24.328,24.312-36.458,36.431
		c0.041,0.058,0.08,0.115,0.12,0.171c13.883-10.082,27.768-20.164,41.745-30.314c0.455,0.632,0.833,1.158,1.325,1.841
		c-13.774,10.018-27.457,19.969-41.14,29.919c0.11,0.167,0.22,0.334,0.33,0.501c15.076-7.674,30.15-15.348,45.359-23.088
		c0.364,0.839,0.614,1.417,0.898,2.08c-15.537,7.922-30.931,15.772-46.326,23.622c0.056,0.128,0.112,0.258,0.167,0.387
		c16.447-5.339,32.895-10.678,49.53-16.079c0.24,0.771,0.426,1.365,0.672,2.149c-16.329,5.312-32.48,10.567-48.633,15.822
		c0.879,0.386,1.665,0.341,2.438,0.218c15.494-2.464,30.985-4.952,46.488-7.361c0.69-0.107,1.488,0.483,2.235,0.748
		c0,0.452,0,0.903,0,1.354c-0.67,0.032-1.349,0-2.007,0.103c-13.27,2.09-26.537,4.189-39.803,6.302
		c-3.516,0.561-7.023,1.174-10.534,1.762c2.609,0.328,5.162,0.325,7.716,0.329c14.876,0.024,29.752,0.05,44.628,0.075
		c0,0.751,0,1.504,0,2.255c-17.076,0-34.152,0-51.229,0c7.729,1.586,15.486,2.81,23.241,4.053
		c9.331,1.497,18.659,3.011,27.988,4.517c0,0.3,0,0.602,0,0.902c-0.581,1.698-1.913,0.989-2.955,0.825
		c-12.83-2.015-25.652-4.08-38.479-6.117c-3.399-0.541-6.807-1.034-10.21-1.549c-0.027,0.145-0.053,0.29-0.08,0.435
		c16.371,5.326,32.743,10.652,49.266,16.026c-0.318,0.842-0.547,1.445-0.8,2.112c-16.428-5.333-32.698-10.617-48.967-15.899
		c-0.062,0.157-0.123,0.314-0.185,0.471c15.269,7.788,30.538,15.575,45.946,23.434c-0.434,0.793-0.734,1.34-1.084,1.981
		c-15.504-7.892-30.859-15.707-46.214-23.523c-0.071,0.13-0.143,0.259-0.213,0.39c13.958,10.147,27.917,20.294,41.996,30.53
		c-0.541,0.664-0.944,1.159-1.436,1.763c-14.177-10.296-28.233-20.502-42.29-30.71c-0.081,0.094-0.161,0.189-0.242,0.283
		c12.309,12.292,24.619,24.584,36.973,36.919c-0.512,0.765-0.867,1.298-1.564,2.341c-12.528-12.531-24.626-24.63-37.139-37.146
		c10.38,14.295,20.424,28.126,30.547,42.067c-0.64,0.49-1.145,0.877-1.804,1.381c-10.271-14.128-20.458-28.139-30.645-42.148
		c-0.114,0.075-0.229,0.151-0.344,0.226c7.85,15.416,15.699,30.833,23.617,46.381c-0.737,0.383-1.295,0.672-2.011,1.043
		c-7.908-15.51-15.746-30.882-23.583-46.255c-0.136,0.058-0.272,0.117-0.409,0.174c5.333,16.432,10.666,32.863,16.042,49.43
		c-0.875,0.245-1.478,0.415-2.173,0.61c-5.422-16.674-10.782-33.156-16.141-49.64c0.584,6.321,1.579,12.535,2.556,18.751
		c1.735,11.05,3.458,22.102,5.188,33.152c-0.751,0-1.503,0-2.255,0c-2.734-17.35-5.468-34.698-8.202-52.046
		c-0.123,0.012-0.246,0.025-0.369,0.038c0,17.336,0,34.673,0,52.009c-0.752,0-1.504,0-2.255,0c0-17.217,0-34.432,0-51.648
		c-0.118-0.008-0.235-0.015-0.354-0.023c-2.738,17.223-5.478,34.447-8.217,51.671C-159.056,138.031-159.809,138.031-160.56,138.031z
		"/>
</g>
<g>
	<rect x="-239.618" y="148.939" fill-rule="evenodd" clip-rule="evenodd" fill="none" width="192.208" height="44.579"/>
	<path d="M-175.994,148.938v18.201h-2.288v-8.19h-10.114v8.19h-2.262v-18.201h2.262v8.086h10.114v-8.086H-175.994z"/>
	<path d="M-169.167,150.862v6.032h10.452v1.924h-10.452v6.396h10.92v1.924h-13.183v-18.201h13.183v1.924H-169.167z"/>
	<path d="M-139.033,148.938v18.201h-4.056l-9.022-16.719v16.719h-2.262v-18.201h3.978l9.101,16.796v-16.796H-139.033z"/>
	<path d="M-119.53,167.139h-2.548c-1.3-3.12-0.832-7.982-4.29-7.982h-5.824v7.931h-2.262v-18.149h8.502
		c3.38,0,5.72,1.534,5.72,4.992c0,3.016-1.742,4.446-3.874,4.784C-121.116,159.052-121.22,164.019-119.53,167.139z M-126.16,157.362
		c2.704,0,3.64-1.222,3.64-3.302c0-2.054-0.936-3.328-3.64-3.328h-6.032v6.63H-126.16z"/>
	<path d="M-113.774,148.938v18.201h-2.262v-18.201H-113.774z"/>
	<path d="M-104.792,158.09l-2.184,1.924v7.124h-2.262v-18.201h2.262v8.268l9.36-8.268h3.172l-8.788,7.774l9.048,10.426h-2.912
		L-104.792,158.09z"/>
	<path d="M-217.792,193.139h-2.548c-1.3-3.12-0.832-7.982-4.29-7.982h-5.824v7.931h-2.262v-18.149h8.502
		c3.38,0,5.72,1.534,5.72,4.992c0,3.016-1.742,4.446-3.875,4.784C-219.378,185.052-219.482,190.019-217.792,193.139z
		 M-224.422,183.362c2.704,0,3.64-1.222,3.64-3.302c0-2.054-0.936-3.328-3.64-3.328h-6.032v6.63H-224.422z"/>
	<path d="M-215.62,183.986c0-5.46,3.51-9.309,8.658-9.309c5.148,0,8.685,3.849,8.685,9.309c0,5.538-3.536,9.438-8.685,9.438
		C-212.109,193.425-215.62,189.524-215.62,183.986z M-200.539,184.038c0-4.29-2.548-7.436-6.422-7.436
		c-3.848,0-6.396,3.146-6.396,7.436c0,4.316,2.548,7.463,6.396,7.463C-203.087,191.501-200.539,188.354-200.539,184.038z"/>
	<path d="M-195.855,185.962h2.262c0,4.161,2.73,5.59,5.435,5.59c2.392,0,4.68-1.118,4.68-3.303c0-2.027-2.08-2.574-5.331-3.38
		c-3.016-0.728-6.552-1.586-6.552-4.966c0-2.678,2.21-5.252,6.604-5.252c4.628,0,6.864,2.886,6.864,6.708h-2.262
		c0-3.12-1.43-4.836-4.524-4.836c-2.938,0-4.394,1.612-4.394,3.224c0,1.898,2.002,2.392,4.966,3.12
		c2.886,0.676,6.891,1.768,6.891,5.356c0,3.068-2.964,5.2-6.995,5.2C-192.605,193.425-195.855,190.902-195.855,185.962z"/>
	<path d="M-178.804,185.962h2.262c0,4.161,2.73,5.59,5.435,5.59c2.392,0,4.68-1.118,4.68-3.303c0-2.027-2.08-2.574-5.331-3.38
		c-3.016-0.728-6.552-1.586-6.552-4.966c0-2.678,2.21-5.252,6.604-5.252c4.628,0,6.864,2.886,6.864,6.708h-2.262
		c0-3.12-1.43-4.836-4.524-4.836c-2.938,0-4.394,1.612-4.394,3.224c0,1.898,2.002,2.392,4.966,3.12
		c2.886,0.676,6.891,1.768,6.891,5.356c0,3.068-2.964,5.2-6.995,5.2C-175.554,193.425-178.804,190.902-178.804,185.962z"/>
	<path d="M-145.95,187.834c0,3.459-2.574,5.305-5.148,5.305h-9.542v-18.201h8.71c3.146,0,4.888,1.794,4.888,4.836
		c0,1.794-0.91,2.886-2.21,3.484C-147.458,183.778-145.95,185.13-145.95,187.834z M-158.378,182.608h5.85
		c1.924,0,3.224-0.884,3.224-2.782c0-2.132-1.326-3.094-3.224-3.094h-5.85V182.608z M-148.212,187.809
		c0-2.34-1.352-3.458-3.224-3.458h-6.942v6.968h6.968C-149.512,191.318-148.212,189.967-148.212,187.809z"/>
	<path d="M-131.079,187.809h-8.97l-2.106,5.33h-2.34l7.202-18.201h3.458l7.202,18.201h-2.34L-131.079,187.809z M-131.833,185.884
		l-3.744-9.438l-3.718,9.438H-131.833z"/>
	<path d="M-108.625,174.938v18.201h-4.057l-9.022-16.719v16.719h-2.262v-18.201h3.978l9.101,16.796v-16.796H-108.625z"/>
	<path d="M-97.235,174.938c5.252,0,8.347,3.38,8.347,9.205c0,5.746-3.042,9.048-8.294,9.048h-6.864v-18.252H-97.235z
		 M-101.785,191.267h3.692c5.252,0,6.942-2.626,6.942-7.124c0-4.576-1.716-7.307-6.968-7.307h-3.666V191.267z"/>
	<path d="M-83.039,176.862v6.032h10.452v1.924h-10.452v6.396h10.92v1.924h-13.183v-18.201h13.183v1.924H-83.039z"/>
	<path d="M-53.321,193.139h-2.548c-1.3-3.12-0.832-7.982-4.29-7.982h-5.824v7.931h-2.262v-18.149h8.502
		c3.38,0,5.72,1.534,5.72,4.992c0,3.016-1.742,4.446-3.875,4.784C-54.907,185.052-55.011,190.019-53.321,193.139z M-59.951,183.362
		c2.704,0,3.64-1.222,3.64-3.302c0-2.054-0.936-3.328-3.64-3.328h-6.032v6.63H-59.951z"/>
</g>
<g>
	<path fill-rule="evenodd" clip-rule="evenodd" fill="#FFFFFF" d="M79.058,138.031c2.727-17.256,5.454-34.51,8.182-51.764
		c-0.133-0.031-0.266-0.063-0.4-0.095c-5.371,16.511-10.744,33.023-16.164,49.689c-0.804-0.299-1.402-0.52-2.114-0.785
		c5.361-16.518,10.679-32.898,15.996-49.28c-0.14-0.059-0.279-0.117-0.42-0.175c-7.814,15.328-15.629,30.654-23.525,46.139
		c-0.675-0.289-1.251-0.535-2.085-0.893c7.814-15.348,15.556-30.554,23.297-45.759c-0.15-0.099-0.299-0.198-0.449-0.298
		c-10.004,13.759-20.009,27.52-30.12,41.426c-0.605-0.389-1.136-0.729-1.912-1.227c10.133-13.957,20.172-27.786,30.308-41.749
		c-12.173,12.175-24.215,24.219-36.341,36.348c-0.955-0.77-1.449-1.166-2.069-1.664c12.391-12.387,24.68-24.669,36.969-36.952
		c-0.127-0.141-0.255-0.282-0.383-0.423c-14.01,10.173-28.02,20.346-42.141,30.6c-0.502-0.607-0.909-1.104-1.446-1.756
		c14.072-10.23,28.031-20.379,41.989-30.527c-0.072-0.13-0.144-0.26-0.216-0.39c-15.367,7.822-30.733,15.644-46.235,23.536
		c-0.341-0.701-0.619-1.268-0.993-2.035c15.417-7.861,30.7-15.652,45.982-23.444c-0.059-0.151-0.117-0.303-0.176-0.454
		c-16.3,5.29-32.601,10.579-49.047,15.916c-0.263-0.635-0.51-1.229-0.866-2.087c16.53-5.376,32.898-10.701,49.267-16.025
		c-0.03-0.159-0.06-0.317-0.09-0.475c-16.944,2.675-33.889,5.35-50.812,8.022c-0.801-2.176-0.796-2.15,1.442-2.504
		c16.305-2.577,32.609-5.165,48.916-8.202c-0.722,0-1.444,0-2.166,0c-15.788,0-31.575-0.007-47.362,0.012
		c-1.419,0.001-2.683,0.021-1.967-2.158c17.518,0,35.087,0,52.655,0c0.018-0.163,0.036-0.325,0.055-0.487
		c-17.323-2.755-34.647-5.51-52.13-8.29c0.104-0.771,0.188-1.394,0.298-2.219c17.415,2.755,34.672,5.485,51.931,8.216
		c0.032-0.112,0.064-0.224,0.097-0.335c-16.589-5.396-33.178-10.793-49.944-16.248c0.173-0.711,0.322-1.32,0.536-2.195
		c16.66,5.407,33.158,10.763,49.656,16.118c0.051-0.128,0.103-0.255,0.154-0.383c-15.423-7.863-30.846-15.726-46.408-23.66
		c0.345-0.712,0.622-1.285,0.988-2.041c15.204,7.741,30.276,15.416,45.35,23.091c0.106-0.168,0.213-0.336,0.32-0.505
		c-13.656-9.929-27.312-19.858-41.112-29.891c0.377-0.617,0.708-1.157,1.187-1.94c13.865,10.065,27.621,20.051,41.545,30.161
		c-12.155-12.15-24.146-24.138-36.222-36.209c0.912-1.001,1.347-1.479,1.832-2.011c12.408,12.418,24.721,24.74,37.033,37.062
		c0.135-0.111,0.269-0.223,0.403-0.334C69.901,42.412,59.672,28.323,49.356,14.115c0.667-0.454,1.2-0.815,1.879-1.277
		c9.964,13.708,19.844,27.298,29.723,40.889c0.187-0.104,0.373-0.209,0.559-0.313C73.907,38.46,66.298,23.507,58.612,8.404
		c0.598-0.386,1.135-0.732,1.909-1.231c7.882,15.454,15.71,30.806,23.538,46.159c0.15-0.056,0.299-0.111,0.448-0.167
		C79.216,36.859,73.925,20.555,68.57,4.056c0.679-0.262,1.261-0.487,2.104-0.813c5.408,16.621,10.771,33.101,16.133,49.581
		c0.138-0.036,0.277-0.072,0.416-0.107c-2.695-17.036-5.391-34.072-8.114-51.283c0.652-0.208,1.255-0.4,2.161-0.688
		c2.767,17.421,5.503,34.654,8.24,51.886c0.125-0.008,0.249-0.017,0.374-0.024c0-17.536,0-35.071,0-52.606c0.751,0,1.503,0,2.255,0
		c0,17.641,0,35.282,0,52.922c0.126,0.005,0.252,0.01,0.377,0.014c2.75-17.32,5.5-34.641,8.276-52.122
		c0.838,0.215,1.457,0.374,2.181,0.559c-2.73,17.248-5.438,34.35-8.145,51.453c0.133,0.034,0.266,0.067,0.399,0.101
		c5.371-16.5,10.742-33,16.157-49.636c0.821,0.282,1.406,0.484,2.129,0.733c-5.377,16.563-10.686,32.914-15.994,49.266
		c0.142,0.055,0.283,0.111,0.425,0.167c7.831-15.352,15.661-30.704,23.562-46.195c0.75,0.422,1.301,0.733,1.972,1.11
		c-7.833,15.387-15.594,30.632-23.354,45.876c0.143,0.08,0.287,0.159,0.43,0.238c10.094-13.879,20.187-27.758,30.37-41.76
		c0.729,0.63,1.205,1.042,1.723,1.489c-10.225,14.076-20.352,28.02-30.479,41.963c0.107,0.093,0.214,0.186,0.321,0.279
		c12.229-12.235,24.457-24.47,36.758-36.777c0.632,0.67,1.084,1.15,1.803,1.912c-12.199,12.191-24.328,24.312-36.458,36.431
		c0.041,0.058,0.08,0.115,0.12,0.171c13.883-10.082,27.768-20.164,41.745-30.314c0.455,0.632,0.833,1.158,1.325,1.841
		c-13.774,10.018-27.457,19.969-41.14,29.919c0.11,0.167,0.22,0.334,0.33,0.501c15.076-7.674,30.15-15.348,45.359-23.088
		c0.364,0.839,0.614,1.417,0.898,2.08c-15.537,7.922-30.931,15.772-46.326,23.622c0.056,0.128,0.112,0.258,0.167,0.387
		c16.447-5.339,32.895-10.678,49.53-16.079c0.24,0.771,0.426,1.365,0.672,2.149c-16.329,5.312-32.48,10.567-48.633,15.822
		c0.879,0.386,1.665,0.341,2.438,0.218c15.494-2.464,30.985-4.952,46.488-7.361c0.69-0.107,1.488,0.483,2.235,0.748
		c0,0.452,0,0.903,0,1.354c-0.67,0.032-1.349,0-2.007,0.103c-13.27,2.09-26.537,4.189-39.803,6.302
		c-3.516,0.561-7.023,1.174-10.534,1.762c2.609,0.328,5.162,0.325,7.716,0.329c14.876,0.024,29.752,0.05,44.628,0.075
		c0,0.751,0,1.504,0,2.255c-17.076,0-34.152,0-51.229,0c7.729,1.586,15.486,2.81,23.241,4.053
		c9.331,1.497,18.659,3.011,27.988,4.517c0,0.3,0,0.602,0,0.902c-0.581,1.698-1.913,0.989-2.955,0.825
		c-12.83-2.015-25.652-4.08-38.479-6.117c-3.399-0.541-6.807-1.034-10.21-1.549c-0.027,0.145-0.053,0.29-0.08,0.435
		c16.371,5.326,32.743,10.652,49.266,16.026c-0.318,0.842-0.547,1.445-0.8,2.112c-16.428-5.333-32.698-10.617-48.967-15.899
		c-0.062,0.157-0.123,0.314-0.185,0.471c15.269,7.788,30.538,15.575,45.946,23.434c-0.434,0.794-0.734,1.341-1.084,1.981
		c-15.504-7.892-30.859-15.708-46.214-23.523c-0.071,0.13-0.143,0.259-0.213,0.39c13.958,10.147,27.917,20.294,41.996,30.53
		c-0.541,0.664-0.944,1.158-1.436,1.762c-14.177-10.295-28.233-20.502-42.29-30.709c-0.081,0.094-0.161,0.189-0.242,0.283
		c12.309,12.292,24.619,24.585,36.973,36.919c-0.512,0.766-0.867,1.299-1.564,2.342c-12.528-12.531-24.626-24.63-37.139-37.146
		c10.38,14.295,20.424,28.126,30.547,42.068c-0.64,0.49-1.145,0.877-1.804,1.381c-10.271-14.129-20.458-28.139-30.645-42.149
		c-0.114,0.075-0.229,0.151-0.344,0.226c7.85,15.416,15.699,30.833,23.617,46.382c-0.737,0.383-1.295,0.672-2.011,1.043
		c-7.908-15.51-15.746-30.883-23.583-46.256c-0.136,0.058-0.272,0.117-0.409,0.174c5.333,16.431,10.666,32.863,16.042,49.429
		c-0.875,0.246-1.478,0.416-2.173,0.611c-5.422-16.674-10.782-33.156-16.141-49.641c0.584,6.321,1.579,12.535,2.556,18.752
		c1.735,11.049,3.458,22.102,5.188,33.152c-0.751,0-1.503,0-2.255,0c-2.734-17.35-5.468-34.699-8.202-52.047
		c-0.123,0.012-0.246,0.025-0.369,0.038c0,17.335,0,34.673,0,52.009c-0.752,0-1.504,0-2.255,0c0-17.217,0-34.432,0-51.648
		c-0.118-0.008-0.235-0.015-0.354-0.023c-2.738,17.223-5.478,34.447-8.217,51.672C80.562,138.031,79.809,138.031,79.058,138.031z"/>
</g>
<g>
	<rect y="148.939" fill-rule="evenodd" clip-rule="evenodd" fill="none" width="192.208" height="44.578"/>
	<path fill="#FFFFFF" d="M63.624,148.938v18.201h-2.288v-8.19H51.222v8.19h-2.262v-18.201h2.262v8.086h10.114v-8.086H63.624z"/>
	<path fill="#FFFFFF" d="M70.451,150.862v6.032h10.452v1.924H70.451v6.396h10.92v1.924H68.189v-18.201h13.183v1.924H70.451z"/>
	<path fill="#FFFFFF" d="M100.585,148.938v18.201h-4.056l-9.022-16.719v16.719h-2.262v-18.201h3.978l9.101,16.796v-16.796H100.585z"
		/>
	<path fill="#FFFFFF" d="M120.088,167.139h-2.548c-1.3-3.12-0.832-7.982-4.29-7.982h-5.824v7.931h-2.262v-18.149h8.502
		c3.38,0,5.72,1.534,5.72,4.992c0,3.016-1.742,4.446-3.874,4.784C118.501,159.052,118.397,164.019,120.088,167.139z
		 M113.458,157.362c2.704,0,3.64-1.222,3.64-3.302c0-2.054-0.936-3.328-3.64-3.328h-6.032v6.63H113.458z"/>
	<path fill="#FFFFFF" d="M125.843,148.938v18.201h-2.262v-18.201H125.843z"/>
	<path fill="#FFFFFF" d="M134.826,158.09l-2.184,1.924v7.124h-2.262v-18.201h2.262v8.268l9.36-8.268h3.172l-8.788,7.774
		l9.048,10.426h-2.912L134.826,158.09z"/>
	<path fill="#FFFFFF" d="M21.825,193.139h-2.548c-1.3-3.12-0.832-7.982-4.29-7.982H9.163v7.931H6.901v-18.149h8.502
		c3.38,0,5.72,1.534,5.72,4.992c0,3.016-1.742,4.446-3.875,4.784C20.239,185.052,20.135,190.019,21.825,193.139z M15.195,183.362
		c2.704,0,3.64-1.222,3.64-3.302c0-2.054-0.936-3.328-3.64-3.328H9.163v6.63H15.195z"/>
	<path fill="#FFFFFF" d="M23.998,183.986c0-5.46,3.51-9.309,8.658-9.309c5.148,0,8.685,3.849,8.685,9.309
		c0,5.538-3.536,9.438-8.685,9.438C27.508,193.425,23.998,189.524,23.998,183.986z M39.079,184.038c0-4.29-2.548-7.436-6.422-7.436
		c-3.848,0-6.396,3.146-6.396,7.436c0,4.316,2.548,7.463,6.396,7.463C36.53,191.501,39.079,188.354,39.079,184.038z"/>
	<path fill="#FFFFFF" d="M43.763,185.962h2.262c0,4.161,2.73,5.59,5.435,5.59c2.392,0,4.68-1.118,4.68-3.303
		c0-2.027-2.08-2.574-5.331-3.38c-3.016-0.728-6.552-1.586-6.552-4.966c0-2.678,2.21-5.252,6.604-5.252
		c4.628,0,6.864,2.886,6.864,6.708h-2.262c0-3.12-1.43-4.836-4.524-4.836c-2.938,0-4.394,1.612-4.394,3.224
		c0,1.898,2.002,2.392,4.966,3.12c2.886,0.676,6.891,1.768,6.891,5.356c0,3.068-2.964,5.2-6.995,5.2
		C47.013,193.425,43.763,190.902,43.763,185.962z"/>
	<path fill="#FFFFFF" d="M60.813,185.962h2.262c0,4.161,2.73,5.59,5.435,5.59c2.392,0,4.68-1.118,4.68-3.303
		c0-2.027-2.08-2.574-5.331-3.38c-3.016-0.728-6.552-1.586-6.552-4.966c0-2.678,2.21-5.252,6.604-5.252
		c4.628,0,6.864,2.886,6.864,6.708h-2.262c0-3.12-1.43-4.836-4.524-4.836c-2.938,0-4.394,1.612-4.394,3.224
		c0,1.898,2.002,2.392,4.966,3.12c2.886,0.676,6.891,1.768,6.891,5.356c0,3.068-2.964,5.2-6.995,5.2
		C64.063,193.425,60.813,190.902,60.813,185.962z"/>
	<path fill="#FFFFFF" d="M93.667,187.834c0,3.459-2.574,5.305-5.148,5.305h-9.542v-18.201h8.71c3.146,0,4.888,1.794,4.888,4.836
		c0,1.794-0.91,2.886-2.21,3.484C92.16,183.778,93.667,185.13,93.667,187.834z M81.239,182.608h5.85
		c1.924,0,3.224-0.884,3.224-2.782c0-2.132-1.326-3.094-3.224-3.094h-5.85V182.608z M91.405,187.809c0-2.34-1.352-3.458-3.224-3.458
		h-6.942v6.968h6.968C90.105,191.318,91.405,189.967,91.405,187.809z"/>
	<path fill="#FFFFFF" d="M108.539,187.809h-8.97l-2.106,5.33h-2.34l7.202-18.201h3.458l7.202,18.201h-2.34L108.539,187.809z
		 M107.785,185.884l-3.744-9.438l-3.718,9.438H107.785z"/>
	<path fill="#FFFFFF" d="M130.993,174.938v18.201h-4.057l-9.022-16.719v16.719h-2.262v-18.201h3.978l9.101,16.796v-16.796H130.993z"
		/>
	<path fill="#FFFFFF" d="M142.383,174.938c5.252,0,8.347,3.38,8.347,9.205c0,5.746-3.042,9.048-8.294,9.048h-6.864v-18.252H142.383z
		 M137.833,191.267h3.692c5.252,0,6.942-2.626,6.942-7.124c0-4.576-1.716-7.307-6.968-7.307h-3.666V191.267z"/>
	<path fill="#FFFFFF" d="M156.579,176.862v6.032h10.452v1.924h-10.452v6.396h10.92v1.924h-13.183v-18.201h13.183v1.924H156.579z"/>
	<path fill="#FFFFFF" d="M186.297,193.139h-2.548c-1.3-3.12-0.832-7.982-4.29-7.982h-5.824v7.931h-2.262v-18.149h8.502
		c3.38,0,5.72,1.534,5.72,4.992c0,3.016-1.742,4.446-3.875,4.784C184.711,185.052,184.607,190.019,186.297,193.139z
		 M179.667,183.362c2.704,0,3.64-1.222,3.64-3.302c0-2.054-0.936-3.328-3.64-3.328h-6.032v6.63H179.667z"/>
</g>
<g>
</g>
<g>
</g>
<g>
</g>
<g>
</g>
<g>
</g>
<g>
</g>
<g>
</g>
<g>
</g>
<g>
</g>
<g>
</g>
<g>
</g>
<g>
</g>
<g>
</g>
<g>
</g>
<g>
</g>
</svg>
